%TF.GenerationSoftware,KiCad,Pcbnew,(5.0.0-rc2-dev-433-g81843c37a)*%
%TF.CreationDate,2018-08-17T12:44:53+02:00*%
%TF.ProjectId,phloppy_0,70686C6F7070795F302E6B696361645F,rev?*%
%TF.SameCoordinates,Original*%
%TF.FileFunction,Legend,Bot*%
%TF.FilePolarity,Positive*%
%FSLAX46Y46*%
G04 Gerber Fmt 4.6, Leading zero omitted, Abs format (unit mm)*
G04 Created by KiCad (PCBNEW (5.0.0-rc2-dev-433-g81843c37a)) date Fri Aug 17 12:44:53 2018*
%MOMM*%
%LPD*%
G01*
G04 APERTURE LIST*
%ADD10C,0.120000*%
%ADD11C,0.150000*%
G04 APERTURE END LIST*
D10*
%TO.C,P8*%
X118830000Y-27420000D02*
X117500000Y-27420000D01*
X118830000Y-28750000D02*
X118830000Y-27420000D01*
X116230000Y-27420000D02*
X113630000Y-27420000D01*
X116230000Y-30020000D02*
X116230000Y-27420000D01*
X118830000Y-30020000D02*
X116230000Y-30020000D01*
X113630000Y-27420000D02*
X113630000Y-70720000D01*
X118830000Y-30020000D02*
X118830000Y-70720000D01*
X118830000Y-70720000D02*
X113630000Y-70720000D01*
%TO.C,R11*%
X37600000Y-32480000D02*
X38800000Y-32480000D01*
X38800000Y-30720000D02*
X37600000Y-30720000D01*
%TO.C,C2*%
X59250000Y-42150000D02*
X60250000Y-42150000D01*
X60250000Y-43850000D02*
X59250000Y-43850000D01*
%TO.C,C3*%
X64850000Y-36500000D02*
X64850000Y-37500000D01*
X63150000Y-37500000D02*
X63150000Y-36500000D01*
%TO.C,C4*%
X75600000Y-36500000D02*
X75600000Y-37500000D01*
X73900000Y-37500000D02*
X73900000Y-36500000D01*
%TO.C,C5*%
X82500000Y-38150000D02*
X83500000Y-38150000D01*
X83500000Y-39850000D02*
X82500000Y-39850000D01*
%TO.C,C8*%
X83500000Y-46100000D02*
X82500000Y-46100000D01*
X82500000Y-44400000D02*
X83500000Y-44400000D01*
%TO.C,C9*%
X83850000Y-59750000D02*
X83850000Y-60750000D01*
X82150000Y-60750000D02*
X82150000Y-59750000D01*
%TO.C,C10*%
X82500000Y-50150000D02*
X83500000Y-50150000D01*
X83500000Y-51850000D02*
X82500000Y-51850000D01*
%TO.C,C11*%
X70350000Y-36500000D02*
X70350000Y-37500000D01*
X68650000Y-37500000D02*
X68650000Y-36500000D01*
%TO.C,C12*%
X59500000Y-53150000D02*
X60500000Y-53150000D01*
X60500000Y-54850000D02*
X59500000Y-54850000D01*
%TO.C,C13*%
X98750000Y-59150000D02*
X99750000Y-59150000D01*
X99750000Y-60850000D02*
X98750000Y-60850000D01*
%TO.C,C14*%
X77500000Y-54980000D02*
X79500000Y-54980000D01*
X79500000Y-57020000D02*
X77500000Y-57020000D01*
%TO.C,C15*%
X41650000Y-63250000D02*
X41650000Y-62250000D01*
X43350000Y-62250000D02*
X43350000Y-63250000D01*
%TO.C,C16*%
X39000000Y-62100000D02*
X38000000Y-62100000D01*
X38000000Y-60400000D02*
X39000000Y-60400000D01*
%TO.C,C17*%
X59250000Y-47900000D02*
X60250000Y-47900000D01*
X60250000Y-49600000D02*
X59250000Y-49600000D01*
%TO.C,C19*%
X77150000Y-60750000D02*
X77150000Y-59750000D01*
X78850000Y-59750000D02*
X78850000Y-60750000D01*
%TO.C,C20*%
X109350000Y-65900000D02*
X109350000Y-64900000D01*
X111050000Y-64900000D02*
X111050000Y-65900000D01*
%TO.C,C21*%
X70900000Y-59550000D02*
X71900000Y-59550000D01*
X71900000Y-61250000D02*
X70900000Y-61250000D01*
%TO.C,C22*%
X106750000Y-34650000D02*
X107750000Y-34650000D01*
X107750000Y-36350000D02*
X106750000Y-36350000D01*
%TO.C,C23*%
X106600000Y-54250000D02*
X106600000Y-55250000D01*
X104900000Y-55250000D02*
X104900000Y-54250000D01*
%TO.C,C24*%
X103600000Y-47750000D02*
X103600000Y-48750000D01*
X101900000Y-48750000D02*
X101900000Y-47750000D01*
%TO.C,C25*%
X44150000Y-63250000D02*
X44150000Y-62250000D01*
X45850000Y-62250000D02*
X45850000Y-63250000D01*
%TO.C,C26*%
X22000000Y-66100000D02*
X22000000Y-65100000D01*
X23700000Y-65100000D02*
X23700000Y-66100000D01*
%TO.C,C27*%
X66850000Y-59750000D02*
X66850000Y-60750000D01*
X65150000Y-60750000D02*
X65150000Y-59750000D01*
%TO.C,C28*%
X34750000Y-58600000D02*
X33750000Y-58600000D01*
X33750000Y-56900000D02*
X34750000Y-56900000D01*
%TO.C,C29*%
X59500000Y-56150000D02*
X60500000Y-56150000D01*
X60500000Y-57850000D02*
X59500000Y-57850000D01*
%TO.C,C30*%
X41250000Y-73600000D02*
X40250000Y-73600000D01*
X40250000Y-71900000D02*
X41250000Y-71900000D01*
%TO.C,C31*%
X78770000Y-35500000D02*
X78770000Y-37500000D01*
X76730000Y-37500000D02*
X76730000Y-35500000D01*
%TO.C,R2*%
X68450000Y-43120000D02*
X67250000Y-43120000D01*
X67250000Y-44880000D02*
X68450000Y-44880000D01*
%TO.C,R3*%
X67250000Y-42380000D02*
X68450000Y-42380000D01*
X68450000Y-40620000D02*
X67250000Y-40620000D01*
%TO.C,R4*%
X68900000Y-56880000D02*
X70100000Y-56880000D01*
X70100000Y-55120000D02*
X68900000Y-55120000D01*
%TO.C,C32*%
X95900000Y-54500000D02*
X95900000Y-53500000D01*
X97600000Y-53500000D02*
X97600000Y-54500000D01*
%TO.C,C33*%
X36500000Y-70250000D02*
X35500000Y-70250000D01*
X35500000Y-68550000D02*
X36500000Y-68550000D01*
%TO.C,R12*%
X126400000Y-27520000D02*
X125200000Y-27520000D01*
X125200000Y-29280000D02*
X126400000Y-29280000D01*
%TO.C,R13*%
X125200000Y-26480000D02*
X126400000Y-26480000D01*
X126400000Y-24720000D02*
X125200000Y-24720000D01*
%TO.C,R14*%
X107800000Y-29520000D02*
X106600000Y-29520000D01*
X106600000Y-31280000D02*
X107800000Y-31280000D01*
%TO.C,R15*%
X101320000Y-31200000D02*
X101320000Y-32400000D01*
X103080000Y-32400000D02*
X103080000Y-31200000D01*
%TO.C,R20*%
X112480000Y-59400000D02*
X112480000Y-58200000D01*
X110720000Y-58200000D02*
X110720000Y-59400000D01*
%TO.C,R21*%
X107920000Y-58200000D02*
X107920000Y-59400000D01*
X109680000Y-59400000D02*
X109680000Y-58200000D01*
%TO.C,R22*%
X108080000Y-66000000D02*
X108080000Y-64800000D01*
X106320000Y-64800000D02*
X106320000Y-66000000D01*
%TO.C,R23*%
X37600000Y-37680000D02*
X38800000Y-37680000D01*
X38800000Y-35920000D02*
X37600000Y-35920000D01*
%TO.C,R24*%
X37600000Y-35080000D02*
X38800000Y-35080000D01*
X38800000Y-33320000D02*
X37600000Y-33320000D01*
%TO.C,R25*%
X37600000Y-40280000D02*
X38800000Y-40280000D01*
X38800000Y-38520000D02*
X37600000Y-38520000D01*
%TO.C,R26*%
X95690000Y-32192500D02*
X95690000Y-31892500D01*
X97110000Y-32192500D02*
X97110000Y-31892500D01*
%TO.C,R27*%
X93910000Y-32192500D02*
X93910000Y-31892500D01*
X92490000Y-32192500D02*
X92490000Y-31892500D01*
%TO.C,P8*%
D11*
X116968095Y-26872380D02*
X116968095Y-25872380D01*
X116587142Y-25872380D01*
X116491904Y-25920000D01*
X116444285Y-25967619D01*
X116396666Y-26062857D01*
X116396666Y-26205714D01*
X116444285Y-26300952D01*
X116491904Y-26348571D01*
X116587142Y-26396190D01*
X116968095Y-26396190D01*
X115825238Y-26300952D02*
X115920476Y-26253333D01*
X115968095Y-26205714D01*
X116015714Y-26110476D01*
X116015714Y-26062857D01*
X115968095Y-25967619D01*
X115920476Y-25920000D01*
X115825238Y-25872380D01*
X115634761Y-25872380D01*
X115539523Y-25920000D01*
X115491904Y-25967619D01*
X115444285Y-26062857D01*
X115444285Y-26110476D01*
X115491904Y-26205714D01*
X115539523Y-26253333D01*
X115634761Y-26300952D01*
X115825238Y-26300952D01*
X115920476Y-26348571D01*
X115968095Y-26396190D01*
X116015714Y-26491428D01*
X116015714Y-26681904D01*
X115968095Y-26777142D01*
X115920476Y-26824761D01*
X115825238Y-26872380D01*
X115634761Y-26872380D01*
X115539523Y-26824761D01*
X115491904Y-26777142D01*
X115444285Y-26681904D01*
X115444285Y-26491428D01*
X115491904Y-26396190D01*
X115539523Y-26348571D01*
X115634761Y-26300952D01*
%TO.C,R11*%
X33842857Y-32052380D02*
X34176190Y-31576190D01*
X34414285Y-32052380D02*
X34414285Y-31052380D01*
X34033333Y-31052380D01*
X33938095Y-31100000D01*
X33890476Y-31147619D01*
X33842857Y-31242857D01*
X33842857Y-31385714D01*
X33890476Y-31480952D01*
X33938095Y-31528571D01*
X34033333Y-31576190D01*
X34414285Y-31576190D01*
X32890476Y-32052380D02*
X33461904Y-32052380D01*
X33176190Y-32052380D02*
X33176190Y-31052380D01*
X33271428Y-31195238D01*
X33366666Y-31290476D01*
X33461904Y-31338095D01*
X31938095Y-32052380D02*
X32509523Y-32052380D01*
X32223809Y-32052380D02*
X32223809Y-31052380D01*
X32319047Y-31195238D01*
X32414285Y-31290476D01*
X32509523Y-31338095D01*
%TO.C,C2*%
X59916666Y-41607142D02*
X59964285Y-41654761D01*
X60107142Y-41702380D01*
X60202380Y-41702380D01*
X60345238Y-41654761D01*
X60440476Y-41559523D01*
X60488095Y-41464285D01*
X60535714Y-41273809D01*
X60535714Y-41130952D01*
X60488095Y-40940476D01*
X60440476Y-40845238D01*
X60345238Y-40750000D01*
X60202380Y-40702380D01*
X60107142Y-40702380D01*
X59964285Y-40750000D01*
X59916666Y-40797619D01*
X59535714Y-40797619D02*
X59488095Y-40750000D01*
X59392857Y-40702380D01*
X59154761Y-40702380D01*
X59059523Y-40750000D01*
X59011904Y-40797619D01*
X58964285Y-40892857D01*
X58964285Y-40988095D01*
X59011904Y-41130952D01*
X59583333Y-41702380D01*
X58964285Y-41702380D01*
%TO.C,C3*%
X64607142Y-33583333D02*
X64654761Y-33535714D01*
X64702380Y-33392857D01*
X64702380Y-33297619D01*
X64654761Y-33154761D01*
X64559523Y-33059523D01*
X64464285Y-33011904D01*
X64273809Y-32964285D01*
X64130952Y-32964285D01*
X63940476Y-33011904D01*
X63845238Y-33059523D01*
X63750000Y-33154761D01*
X63702380Y-33297619D01*
X63702380Y-33392857D01*
X63750000Y-33535714D01*
X63797619Y-33583333D01*
X63702380Y-33916666D02*
X63702380Y-34535714D01*
X64083333Y-34202380D01*
X64083333Y-34345238D01*
X64130952Y-34440476D01*
X64178571Y-34488095D01*
X64273809Y-34535714D01*
X64511904Y-34535714D01*
X64607142Y-34488095D01*
X64654761Y-34440476D01*
X64702380Y-34345238D01*
X64702380Y-34059523D01*
X64654761Y-33964285D01*
X64607142Y-33916666D01*
%TO.C,C4*%
X75107142Y-33583333D02*
X75154761Y-33535714D01*
X75202380Y-33392857D01*
X75202380Y-33297619D01*
X75154761Y-33154761D01*
X75059523Y-33059523D01*
X74964285Y-33011904D01*
X74773809Y-32964285D01*
X74630952Y-32964285D01*
X74440476Y-33011904D01*
X74345238Y-33059523D01*
X74250000Y-33154761D01*
X74202380Y-33297619D01*
X74202380Y-33392857D01*
X74250000Y-33535714D01*
X74297619Y-33583333D01*
X74535714Y-34440476D02*
X75202380Y-34440476D01*
X74154761Y-34202380D02*
X74869047Y-33964285D01*
X74869047Y-34583333D01*
%TO.C,C5*%
X82666666Y-37607142D02*
X82714285Y-37654761D01*
X82857142Y-37702380D01*
X82952380Y-37702380D01*
X83095238Y-37654761D01*
X83190476Y-37559523D01*
X83238095Y-37464285D01*
X83285714Y-37273809D01*
X83285714Y-37130952D01*
X83238095Y-36940476D01*
X83190476Y-36845238D01*
X83095238Y-36750000D01*
X82952380Y-36702380D01*
X82857142Y-36702380D01*
X82714285Y-36750000D01*
X82666666Y-36797619D01*
X81761904Y-36702380D02*
X82238095Y-36702380D01*
X82285714Y-37178571D01*
X82238095Y-37130952D01*
X82142857Y-37083333D01*
X81904761Y-37083333D01*
X81809523Y-37130952D01*
X81761904Y-37178571D01*
X81714285Y-37273809D01*
X81714285Y-37511904D01*
X81761904Y-37607142D01*
X81809523Y-37654761D01*
X81904761Y-37702380D01*
X82142857Y-37702380D01*
X82238095Y-37654761D01*
X82285714Y-37607142D01*
%TO.C,C8*%
X83166666Y-47357142D02*
X83214285Y-47404761D01*
X83357142Y-47452380D01*
X83452380Y-47452380D01*
X83595238Y-47404761D01*
X83690476Y-47309523D01*
X83738095Y-47214285D01*
X83785714Y-47023809D01*
X83785714Y-46880952D01*
X83738095Y-46690476D01*
X83690476Y-46595238D01*
X83595238Y-46500000D01*
X83452380Y-46452380D01*
X83357142Y-46452380D01*
X83214285Y-46500000D01*
X83166666Y-46547619D01*
X82595238Y-46880952D02*
X82690476Y-46833333D01*
X82738095Y-46785714D01*
X82785714Y-46690476D01*
X82785714Y-46642857D01*
X82738095Y-46547619D01*
X82690476Y-46500000D01*
X82595238Y-46452380D01*
X82404761Y-46452380D01*
X82309523Y-46500000D01*
X82261904Y-46547619D01*
X82214285Y-46642857D01*
X82214285Y-46690476D01*
X82261904Y-46785714D01*
X82309523Y-46833333D01*
X82404761Y-46880952D01*
X82595238Y-46880952D01*
X82690476Y-46928571D01*
X82738095Y-46976190D01*
X82785714Y-47071428D01*
X82785714Y-47261904D01*
X82738095Y-47357142D01*
X82690476Y-47404761D01*
X82595238Y-47452380D01*
X82404761Y-47452380D01*
X82309523Y-47404761D01*
X82261904Y-47357142D01*
X82214285Y-47261904D01*
X82214285Y-47071428D01*
X82261904Y-46976190D01*
X82309523Y-46928571D01*
X82404761Y-46880952D01*
%TO.C,C9*%
X83357142Y-63233333D02*
X83404761Y-63185714D01*
X83452380Y-63042857D01*
X83452380Y-62947619D01*
X83404761Y-62804761D01*
X83309523Y-62709523D01*
X83214285Y-62661904D01*
X83023809Y-62614285D01*
X82880952Y-62614285D01*
X82690476Y-62661904D01*
X82595238Y-62709523D01*
X82500000Y-62804761D01*
X82452380Y-62947619D01*
X82452380Y-63042857D01*
X82500000Y-63185714D01*
X82547619Y-63233333D01*
X83452380Y-63709523D02*
X83452380Y-63900000D01*
X83404761Y-63995238D01*
X83357142Y-64042857D01*
X83214285Y-64138095D01*
X83023809Y-64185714D01*
X82642857Y-64185714D01*
X82547619Y-64138095D01*
X82500000Y-64090476D01*
X82452380Y-63995238D01*
X82452380Y-63804761D01*
X82500000Y-63709523D01*
X82547619Y-63661904D01*
X82642857Y-63614285D01*
X82880952Y-63614285D01*
X82976190Y-63661904D01*
X83023809Y-63709523D01*
X83071428Y-63804761D01*
X83071428Y-63995238D01*
X83023809Y-64090476D01*
X82976190Y-64138095D01*
X82880952Y-64185714D01*
%TO.C,C10*%
X83642857Y-49607142D02*
X83690476Y-49654761D01*
X83833333Y-49702380D01*
X83928571Y-49702380D01*
X84071428Y-49654761D01*
X84166666Y-49559523D01*
X84214285Y-49464285D01*
X84261904Y-49273809D01*
X84261904Y-49130952D01*
X84214285Y-48940476D01*
X84166666Y-48845238D01*
X84071428Y-48750000D01*
X83928571Y-48702380D01*
X83833333Y-48702380D01*
X83690476Y-48750000D01*
X83642857Y-48797619D01*
X82690476Y-49702380D02*
X83261904Y-49702380D01*
X82976190Y-49702380D02*
X82976190Y-48702380D01*
X83071428Y-48845238D01*
X83166666Y-48940476D01*
X83261904Y-48988095D01*
X82071428Y-48702380D02*
X81976190Y-48702380D01*
X81880952Y-48750000D01*
X81833333Y-48797619D01*
X81785714Y-48892857D01*
X81738095Y-49083333D01*
X81738095Y-49321428D01*
X81785714Y-49511904D01*
X81833333Y-49607142D01*
X81880952Y-49654761D01*
X81976190Y-49702380D01*
X82071428Y-49702380D01*
X82166666Y-49654761D01*
X82214285Y-49607142D01*
X82261904Y-49511904D01*
X82309523Y-49321428D01*
X82309523Y-49083333D01*
X82261904Y-48892857D01*
X82214285Y-48797619D01*
X82166666Y-48750000D01*
X82071428Y-48702380D01*
%TO.C,C11*%
X69857142Y-32607142D02*
X69904761Y-32559523D01*
X69952380Y-32416666D01*
X69952380Y-32321428D01*
X69904761Y-32178571D01*
X69809523Y-32083333D01*
X69714285Y-32035714D01*
X69523809Y-31988095D01*
X69380952Y-31988095D01*
X69190476Y-32035714D01*
X69095238Y-32083333D01*
X69000000Y-32178571D01*
X68952380Y-32321428D01*
X68952380Y-32416666D01*
X69000000Y-32559523D01*
X69047619Y-32607142D01*
X69952380Y-33559523D02*
X69952380Y-32988095D01*
X69952380Y-33273809D02*
X68952380Y-33273809D01*
X69095238Y-33178571D01*
X69190476Y-33083333D01*
X69238095Y-32988095D01*
X69952380Y-34511904D02*
X69952380Y-33940476D01*
X69952380Y-34226190D02*
X68952380Y-34226190D01*
X69095238Y-34130952D01*
X69190476Y-34035714D01*
X69238095Y-33940476D01*
%TO.C,C12*%
X57042857Y-54357142D02*
X57090476Y-54404761D01*
X57233333Y-54452380D01*
X57328571Y-54452380D01*
X57471428Y-54404761D01*
X57566666Y-54309523D01*
X57614285Y-54214285D01*
X57661904Y-54023809D01*
X57661904Y-53880952D01*
X57614285Y-53690476D01*
X57566666Y-53595238D01*
X57471428Y-53500000D01*
X57328571Y-53452380D01*
X57233333Y-53452380D01*
X57090476Y-53500000D01*
X57042857Y-53547619D01*
X56090476Y-54452380D02*
X56661904Y-54452380D01*
X56376190Y-54452380D02*
X56376190Y-53452380D01*
X56471428Y-53595238D01*
X56566666Y-53690476D01*
X56661904Y-53738095D01*
X55709523Y-53547619D02*
X55661904Y-53500000D01*
X55566666Y-53452380D01*
X55328571Y-53452380D01*
X55233333Y-53500000D01*
X55185714Y-53547619D01*
X55138095Y-53642857D01*
X55138095Y-53738095D01*
X55185714Y-53880952D01*
X55757142Y-54452380D01*
X55138095Y-54452380D01*
%TO.C,C13*%
X98392857Y-62107142D02*
X98440476Y-62154761D01*
X98583333Y-62202380D01*
X98678571Y-62202380D01*
X98821428Y-62154761D01*
X98916666Y-62059523D01*
X98964285Y-61964285D01*
X99011904Y-61773809D01*
X99011904Y-61630952D01*
X98964285Y-61440476D01*
X98916666Y-61345238D01*
X98821428Y-61250000D01*
X98678571Y-61202380D01*
X98583333Y-61202380D01*
X98440476Y-61250000D01*
X98392857Y-61297619D01*
X97440476Y-62202380D02*
X98011904Y-62202380D01*
X97726190Y-62202380D02*
X97726190Y-61202380D01*
X97821428Y-61345238D01*
X97916666Y-61440476D01*
X98011904Y-61488095D01*
X97107142Y-61202380D02*
X96488095Y-61202380D01*
X96821428Y-61583333D01*
X96678571Y-61583333D01*
X96583333Y-61630952D01*
X96535714Y-61678571D01*
X96488095Y-61773809D01*
X96488095Y-62011904D01*
X96535714Y-62107142D01*
X96583333Y-62154761D01*
X96678571Y-62202380D01*
X96964285Y-62202380D01*
X97059523Y-62154761D01*
X97107142Y-62107142D01*
%TO.C,C14*%
X79142857Y-54607142D02*
X79190476Y-54654761D01*
X79333333Y-54702380D01*
X79428571Y-54702380D01*
X79571428Y-54654761D01*
X79666666Y-54559523D01*
X79714285Y-54464285D01*
X79761904Y-54273809D01*
X79761904Y-54130952D01*
X79714285Y-53940476D01*
X79666666Y-53845238D01*
X79571428Y-53750000D01*
X79428571Y-53702380D01*
X79333333Y-53702380D01*
X79190476Y-53750000D01*
X79142857Y-53797619D01*
X78190476Y-54702380D02*
X78761904Y-54702380D01*
X78476190Y-54702380D02*
X78476190Y-53702380D01*
X78571428Y-53845238D01*
X78666666Y-53940476D01*
X78761904Y-53988095D01*
X77333333Y-54035714D02*
X77333333Y-54702380D01*
X77571428Y-53654761D02*
X77809523Y-54369047D01*
X77190476Y-54369047D01*
%TO.C,C15*%
X42857142Y-65857142D02*
X42904761Y-65809523D01*
X42952380Y-65666666D01*
X42952380Y-65571428D01*
X42904761Y-65428571D01*
X42809523Y-65333333D01*
X42714285Y-65285714D01*
X42523809Y-65238095D01*
X42380952Y-65238095D01*
X42190476Y-65285714D01*
X42095238Y-65333333D01*
X42000000Y-65428571D01*
X41952380Y-65571428D01*
X41952380Y-65666666D01*
X42000000Y-65809523D01*
X42047619Y-65857142D01*
X42952380Y-66809523D02*
X42952380Y-66238095D01*
X42952380Y-66523809D02*
X41952380Y-66523809D01*
X42095238Y-66428571D01*
X42190476Y-66333333D01*
X42238095Y-66238095D01*
X41952380Y-67714285D02*
X41952380Y-67238095D01*
X42428571Y-67190476D01*
X42380952Y-67238095D01*
X42333333Y-67333333D01*
X42333333Y-67571428D01*
X42380952Y-67666666D01*
X42428571Y-67714285D01*
X42523809Y-67761904D01*
X42761904Y-67761904D01*
X42857142Y-67714285D01*
X42904761Y-67666666D01*
X42952380Y-67571428D01*
X42952380Y-67333333D01*
X42904761Y-67238095D01*
X42857142Y-67190476D01*
%TO.C,C16*%
X39142857Y-63357142D02*
X39190476Y-63404761D01*
X39333333Y-63452380D01*
X39428571Y-63452380D01*
X39571428Y-63404761D01*
X39666666Y-63309523D01*
X39714285Y-63214285D01*
X39761904Y-63023809D01*
X39761904Y-62880952D01*
X39714285Y-62690476D01*
X39666666Y-62595238D01*
X39571428Y-62500000D01*
X39428571Y-62452380D01*
X39333333Y-62452380D01*
X39190476Y-62500000D01*
X39142857Y-62547619D01*
X38190476Y-63452380D02*
X38761904Y-63452380D01*
X38476190Y-63452380D02*
X38476190Y-62452380D01*
X38571428Y-62595238D01*
X38666666Y-62690476D01*
X38761904Y-62738095D01*
X37333333Y-62452380D02*
X37523809Y-62452380D01*
X37619047Y-62500000D01*
X37666666Y-62547619D01*
X37761904Y-62690476D01*
X37809523Y-62880952D01*
X37809523Y-63261904D01*
X37761904Y-63357142D01*
X37714285Y-63404761D01*
X37619047Y-63452380D01*
X37428571Y-63452380D01*
X37333333Y-63404761D01*
X37285714Y-63357142D01*
X37238095Y-63261904D01*
X37238095Y-63023809D01*
X37285714Y-62928571D01*
X37333333Y-62880952D01*
X37428571Y-62833333D01*
X37619047Y-62833333D01*
X37714285Y-62880952D01*
X37761904Y-62928571D01*
X37809523Y-63023809D01*
%TO.C,C17*%
X60392857Y-47357142D02*
X60440476Y-47404761D01*
X60583333Y-47452380D01*
X60678571Y-47452380D01*
X60821428Y-47404761D01*
X60916666Y-47309523D01*
X60964285Y-47214285D01*
X61011904Y-47023809D01*
X61011904Y-46880952D01*
X60964285Y-46690476D01*
X60916666Y-46595238D01*
X60821428Y-46500000D01*
X60678571Y-46452380D01*
X60583333Y-46452380D01*
X60440476Y-46500000D01*
X60392857Y-46547619D01*
X59440476Y-47452380D02*
X60011904Y-47452380D01*
X59726190Y-47452380D02*
X59726190Y-46452380D01*
X59821428Y-46595238D01*
X59916666Y-46690476D01*
X60011904Y-46738095D01*
X59107142Y-46452380D02*
X58440476Y-46452380D01*
X58869047Y-47452380D01*
%TO.C,C19*%
X76607142Y-59607142D02*
X76654761Y-59559523D01*
X76702380Y-59416666D01*
X76702380Y-59321428D01*
X76654761Y-59178571D01*
X76559523Y-59083333D01*
X76464285Y-59035714D01*
X76273809Y-58988095D01*
X76130952Y-58988095D01*
X75940476Y-59035714D01*
X75845238Y-59083333D01*
X75750000Y-59178571D01*
X75702380Y-59321428D01*
X75702380Y-59416666D01*
X75750000Y-59559523D01*
X75797619Y-59607142D01*
X76702380Y-60559523D02*
X76702380Y-59988095D01*
X76702380Y-60273809D02*
X75702380Y-60273809D01*
X75845238Y-60178571D01*
X75940476Y-60083333D01*
X75988095Y-59988095D01*
X76702380Y-61035714D02*
X76702380Y-61226190D01*
X76654761Y-61321428D01*
X76607142Y-61369047D01*
X76464285Y-61464285D01*
X76273809Y-61511904D01*
X75892857Y-61511904D01*
X75797619Y-61464285D01*
X75750000Y-61416666D01*
X75702380Y-61321428D01*
X75702380Y-61130952D01*
X75750000Y-61035714D01*
X75797619Y-60988095D01*
X75892857Y-60940476D01*
X76130952Y-60940476D01*
X76226190Y-60988095D01*
X76273809Y-61035714D01*
X76321428Y-61130952D01*
X76321428Y-61321428D01*
X76273809Y-61416666D01*
X76226190Y-61464285D01*
X76130952Y-61511904D01*
%TO.C,C20*%
X110607142Y-68607142D02*
X110654761Y-68559523D01*
X110702380Y-68416666D01*
X110702380Y-68321428D01*
X110654761Y-68178571D01*
X110559523Y-68083333D01*
X110464285Y-68035714D01*
X110273809Y-67988095D01*
X110130952Y-67988095D01*
X109940476Y-68035714D01*
X109845238Y-68083333D01*
X109750000Y-68178571D01*
X109702380Y-68321428D01*
X109702380Y-68416666D01*
X109750000Y-68559523D01*
X109797619Y-68607142D01*
X109797619Y-68988095D02*
X109750000Y-69035714D01*
X109702380Y-69130952D01*
X109702380Y-69369047D01*
X109750000Y-69464285D01*
X109797619Y-69511904D01*
X109892857Y-69559523D01*
X109988095Y-69559523D01*
X110130952Y-69511904D01*
X110702380Y-68940476D01*
X110702380Y-69559523D01*
X109702380Y-70178571D02*
X109702380Y-70273809D01*
X109750000Y-70369047D01*
X109797619Y-70416666D01*
X109892857Y-70464285D01*
X110083333Y-70511904D01*
X110321428Y-70511904D01*
X110511904Y-70464285D01*
X110607142Y-70416666D01*
X110654761Y-70369047D01*
X110702380Y-70273809D01*
X110702380Y-70178571D01*
X110654761Y-70083333D01*
X110607142Y-70035714D01*
X110511904Y-69988095D01*
X110321428Y-69940476D01*
X110083333Y-69940476D01*
X109892857Y-69988095D01*
X109797619Y-70035714D01*
X109750000Y-70083333D01*
X109702380Y-70178571D01*
%TO.C,C21*%
X72042857Y-59007142D02*
X72090476Y-59054761D01*
X72233333Y-59102380D01*
X72328571Y-59102380D01*
X72471428Y-59054761D01*
X72566666Y-58959523D01*
X72614285Y-58864285D01*
X72661904Y-58673809D01*
X72661904Y-58530952D01*
X72614285Y-58340476D01*
X72566666Y-58245238D01*
X72471428Y-58150000D01*
X72328571Y-58102380D01*
X72233333Y-58102380D01*
X72090476Y-58150000D01*
X72042857Y-58197619D01*
X71661904Y-58197619D02*
X71614285Y-58150000D01*
X71519047Y-58102380D01*
X71280952Y-58102380D01*
X71185714Y-58150000D01*
X71138095Y-58197619D01*
X71090476Y-58292857D01*
X71090476Y-58388095D01*
X71138095Y-58530952D01*
X71709523Y-59102380D01*
X71090476Y-59102380D01*
X70138095Y-59102380D02*
X70709523Y-59102380D01*
X70423809Y-59102380D02*
X70423809Y-58102380D01*
X70519047Y-58245238D01*
X70614285Y-58340476D01*
X70709523Y-58388095D01*
%TO.C,C22*%
X108642857Y-37607142D02*
X108690476Y-37654761D01*
X108833333Y-37702380D01*
X108928571Y-37702380D01*
X109071428Y-37654761D01*
X109166666Y-37559523D01*
X109214285Y-37464285D01*
X109261904Y-37273809D01*
X109261904Y-37130952D01*
X109214285Y-36940476D01*
X109166666Y-36845238D01*
X109071428Y-36750000D01*
X108928571Y-36702380D01*
X108833333Y-36702380D01*
X108690476Y-36750000D01*
X108642857Y-36797619D01*
X108261904Y-36797619D02*
X108214285Y-36750000D01*
X108119047Y-36702380D01*
X107880952Y-36702380D01*
X107785714Y-36750000D01*
X107738095Y-36797619D01*
X107690476Y-36892857D01*
X107690476Y-36988095D01*
X107738095Y-37130952D01*
X108309523Y-37702380D01*
X107690476Y-37702380D01*
X107309523Y-36797619D02*
X107261904Y-36750000D01*
X107166666Y-36702380D01*
X106928571Y-36702380D01*
X106833333Y-36750000D01*
X106785714Y-36797619D01*
X106738095Y-36892857D01*
X106738095Y-36988095D01*
X106785714Y-37130952D01*
X107357142Y-37702380D01*
X106738095Y-37702380D01*
%TO.C,C23*%
X107857142Y-54107142D02*
X107904761Y-54059523D01*
X107952380Y-53916666D01*
X107952380Y-53821428D01*
X107904761Y-53678571D01*
X107809523Y-53583333D01*
X107714285Y-53535714D01*
X107523809Y-53488095D01*
X107380952Y-53488095D01*
X107190476Y-53535714D01*
X107095238Y-53583333D01*
X107000000Y-53678571D01*
X106952380Y-53821428D01*
X106952380Y-53916666D01*
X107000000Y-54059523D01*
X107047619Y-54107142D01*
X107047619Y-54488095D02*
X107000000Y-54535714D01*
X106952380Y-54630952D01*
X106952380Y-54869047D01*
X107000000Y-54964285D01*
X107047619Y-55011904D01*
X107142857Y-55059523D01*
X107238095Y-55059523D01*
X107380952Y-55011904D01*
X107952380Y-54440476D01*
X107952380Y-55059523D01*
X106952380Y-55392857D02*
X106952380Y-56011904D01*
X107333333Y-55678571D01*
X107333333Y-55821428D01*
X107380952Y-55916666D01*
X107428571Y-55964285D01*
X107523809Y-56011904D01*
X107761904Y-56011904D01*
X107857142Y-55964285D01*
X107904761Y-55916666D01*
X107952380Y-55821428D01*
X107952380Y-55535714D01*
X107904761Y-55440476D01*
X107857142Y-55392857D01*
%TO.C,C24*%
X104857142Y-47607142D02*
X104904761Y-47559523D01*
X104952380Y-47416666D01*
X104952380Y-47321428D01*
X104904761Y-47178571D01*
X104809523Y-47083333D01*
X104714285Y-47035714D01*
X104523809Y-46988095D01*
X104380952Y-46988095D01*
X104190476Y-47035714D01*
X104095238Y-47083333D01*
X104000000Y-47178571D01*
X103952380Y-47321428D01*
X103952380Y-47416666D01*
X104000000Y-47559523D01*
X104047619Y-47607142D01*
X104047619Y-47988095D02*
X104000000Y-48035714D01*
X103952380Y-48130952D01*
X103952380Y-48369047D01*
X104000000Y-48464285D01*
X104047619Y-48511904D01*
X104142857Y-48559523D01*
X104238095Y-48559523D01*
X104380952Y-48511904D01*
X104952380Y-47940476D01*
X104952380Y-48559523D01*
X104285714Y-49416666D02*
X104952380Y-49416666D01*
X103904761Y-49178571D02*
X104619047Y-48940476D01*
X104619047Y-49559523D01*
%TO.C,C25*%
X45357142Y-65857142D02*
X45404761Y-65809523D01*
X45452380Y-65666666D01*
X45452380Y-65571428D01*
X45404761Y-65428571D01*
X45309523Y-65333333D01*
X45214285Y-65285714D01*
X45023809Y-65238095D01*
X44880952Y-65238095D01*
X44690476Y-65285714D01*
X44595238Y-65333333D01*
X44500000Y-65428571D01*
X44452380Y-65571428D01*
X44452380Y-65666666D01*
X44500000Y-65809523D01*
X44547619Y-65857142D01*
X44547619Y-66238095D02*
X44500000Y-66285714D01*
X44452380Y-66380952D01*
X44452380Y-66619047D01*
X44500000Y-66714285D01*
X44547619Y-66761904D01*
X44642857Y-66809523D01*
X44738095Y-66809523D01*
X44880952Y-66761904D01*
X45452380Y-66190476D01*
X45452380Y-66809523D01*
X44452380Y-67714285D02*
X44452380Y-67238095D01*
X44928571Y-67190476D01*
X44880952Y-67238095D01*
X44833333Y-67333333D01*
X44833333Y-67571428D01*
X44880952Y-67666666D01*
X44928571Y-67714285D01*
X45023809Y-67761904D01*
X45261904Y-67761904D01*
X45357142Y-67714285D01*
X45404761Y-67666666D01*
X45452380Y-67571428D01*
X45452380Y-67333333D01*
X45404761Y-67238095D01*
X45357142Y-67190476D01*
%TO.C,C26*%
X24857142Y-65107142D02*
X24904761Y-65059523D01*
X24952380Y-64916666D01*
X24952380Y-64821428D01*
X24904761Y-64678571D01*
X24809523Y-64583333D01*
X24714285Y-64535714D01*
X24523809Y-64488095D01*
X24380952Y-64488095D01*
X24190476Y-64535714D01*
X24095238Y-64583333D01*
X24000000Y-64678571D01*
X23952380Y-64821428D01*
X23952380Y-64916666D01*
X24000000Y-65059523D01*
X24047619Y-65107142D01*
X24047619Y-65488095D02*
X24000000Y-65535714D01*
X23952380Y-65630952D01*
X23952380Y-65869047D01*
X24000000Y-65964285D01*
X24047619Y-66011904D01*
X24142857Y-66059523D01*
X24238095Y-66059523D01*
X24380952Y-66011904D01*
X24952380Y-65440476D01*
X24952380Y-66059523D01*
X23952380Y-66916666D02*
X23952380Y-66726190D01*
X24000000Y-66630952D01*
X24047619Y-66583333D01*
X24190476Y-66488095D01*
X24380952Y-66440476D01*
X24761904Y-66440476D01*
X24857142Y-66488095D01*
X24904761Y-66535714D01*
X24952380Y-66630952D01*
X24952380Y-66821428D01*
X24904761Y-66916666D01*
X24857142Y-66964285D01*
X24761904Y-67011904D01*
X24523809Y-67011904D01*
X24428571Y-66964285D01*
X24380952Y-66916666D01*
X24333333Y-66821428D01*
X24333333Y-66630952D01*
X24380952Y-66535714D01*
X24428571Y-66488095D01*
X24523809Y-66440476D01*
%TO.C,C27*%
X68107142Y-59607142D02*
X68154761Y-59559523D01*
X68202380Y-59416666D01*
X68202380Y-59321428D01*
X68154761Y-59178571D01*
X68059523Y-59083333D01*
X67964285Y-59035714D01*
X67773809Y-58988095D01*
X67630952Y-58988095D01*
X67440476Y-59035714D01*
X67345238Y-59083333D01*
X67250000Y-59178571D01*
X67202380Y-59321428D01*
X67202380Y-59416666D01*
X67250000Y-59559523D01*
X67297619Y-59607142D01*
X67297619Y-59988095D02*
X67250000Y-60035714D01*
X67202380Y-60130952D01*
X67202380Y-60369047D01*
X67250000Y-60464285D01*
X67297619Y-60511904D01*
X67392857Y-60559523D01*
X67488095Y-60559523D01*
X67630952Y-60511904D01*
X68202380Y-59940476D01*
X68202380Y-60559523D01*
X67202380Y-60892857D02*
X67202380Y-61559523D01*
X68202380Y-61130952D01*
%TO.C,C28*%
X34892857Y-56607142D02*
X34940476Y-56654761D01*
X35083333Y-56702380D01*
X35178571Y-56702380D01*
X35321428Y-56654761D01*
X35416666Y-56559523D01*
X35464285Y-56464285D01*
X35511904Y-56273809D01*
X35511904Y-56130952D01*
X35464285Y-55940476D01*
X35416666Y-55845238D01*
X35321428Y-55750000D01*
X35178571Y-55702380D01*
X35083333Y-55702380D01*
X34940476Y-55750000D01*
X34892857Y-55797619D01*
X34511904Y-55797619D02*
X34464285Y-55750000D01*
X34369047Y-55702380D01*
X34130952Y-55702380D01*
X34035714Y-55750000D01*
X33988095Y-55797619D01*
X33940476Y-55892857D01*
X33940476Y-55988095D01*
X33988095Y-56130952D01*
X34559523Y-56702380D01*
X33940476Y-56702380D01*
X33369047Y-56130952D02*
X33464285Y-56083333D01*
X33511904Y-56035714D01*
X33559523Y-55940476D01*
X33559523Y-55892857D01*
X33511904Y-55797619D01*
X33464285Y-55750000D01*
X33369047Y-55702380D01*
X33178571Y-55702380D01*
X33083333Y-55750000D01*
X33035714Y-55797619D01*
X32988095Y-55892857D01*
X32988095Y-55940476D01*
X33035714Y-56035714D01*
X33083333Y-56083333D01*
X33178571Y-56130952D01*
X33369047Y-56130952D01*
X33464285Y-56178571D01*
X33511904Y-56226190D01*
X33559523Y-56321428D01*
X33559523Y-56511904D01*
X33511904Y-56607142D01*
X33464285Y-56654761D01*
X33369047Y-56702380D01*
X33178571Y-56702380D01*
X33083333Y-56654761D01*
X33035714Y-56607142D01*
X32988095Y-56511904D01*
X32988095Y-56321428D01*
X33035714Y-56226190D01*
X33083333Y-56178571D01*
X33178571Y-56130952D01*
%TO.C,C29*%
X56892857Y-57357142D02*
X56940476Y-57404761D01*
X57083333Y-57452380D01*
X57178571Y-57452380D01*
X57321428Y-57404761D01*
X57416666Y-57309523D01*
X57464285Y-57214285D01*
X57511904Y-57023809D01*
X57511904Y-56880952D01*
X57464285Y-56690476D01*
X57416666Y-56595238D01*
X57321428Y-56500000D01*
X57178571Y-56452380D01*
X57083333Y-56452380D01*
X56940476Y-56500000D01*
X56892857Y-56547619D01*
X56511904Y-56547619D02*
X56464285Y-56500000D01*
X56369047Y-56452380D01*
X56130952Y-56452380D01*
X56035714Y-56500000D01*
X55988095Y-56547619D01*
X55940476Y-56642857D01*
X55940476Y-56738095D01*
X55988095Y-56880952D01*
X56559523Y-57452380D01*
X55940476Y-57452380D01*
X55464285Y-57452380D02*
X55273809Y-57452380D01*
X55178571Y-57404761D01*
X55130952Y-57357142D01*
X55035714Y-57214285D01*
X54988095Y-57023809D01*
X54988095Y-56642857D01*
X55035714Y-56547619D01*
X55083333Y-56500000D01*
X55178571Y-56452380D01*
X55369047Y-56452380D01*
X55464285Y-56500000D01*
X55511904Y-56547619D01*
X55559523Y-56642857D01*
X55559523Y-56880952D01*
X55511904Y-56976190D01*
X55464285Y-57023809D01*
X55369047Y-57071428D01*
X55178571Y-57071428D01*
X55083333Y-57023809D01*
X55035714Y-56976190D01*
X54988095Y-56880952D01*
%TO.C,C30*%
X41642857Y-70607142D02*
X41690476Y-70654761D01*
X41833333Y-70702380D01*
X41928571Y-70702380D01*
X42071428Y-70654761D01*
X42166666Y-70559523D01*
X42214285Y-70464285D01*
X42261904Y-70273809D01*
X42261904Y-70130952D01*
X42214285Y-69940476D01*
X42166666Y-69845238D01*
X42071428Y-69750000D01*
X41928571Y-69702380D01*
X41833333Y-69702380D01*
X41690476Y-69750000D01*
X41642857Y-69797619D01*
X41309523Y-69702380D02*
X40690476Y-69702380D01*
X41023809Y-70083333D01*
X40880952Y-70083333D01*
X40785714Y-70130952D01*
X40738095Y-70178571D01*
X40690476Y-70273809D01*
X40690476Y-70511904D01*
X40738095Y-70607142D01*
X40785714Y-70654761D01*
X40880952Y-70702380D01*
X41166666Y-70702380D01*
X41261904Y-70654761D01*
X41309523Y-70607142D01*
X40071428Y-69702380D02*
X39976190Y-69702380D01*
X39880952Y-69750000D01*
X39833333Y-69797619D01*
X39785714Y-69892857D01*
X39738095Y-70083333D01*
X39738095Y-70321428D01*
X39785714Y-70511904D01*
X39833333Y-70607142D01*
X39880952Y-70654761D01*
X39976190Y-70702380D01*
X40071428Y-70702380D01*
X40166666Y-70654761D01*
X40214285Y-70607142D01*
X40261904Y-70511904D01*
X40309523Y-70321428D01*
X40309523Y-70083333D01*
X40261904Y-69892857D01*
X40214285Y-69797619D01*
X40166666Y-69750000D01*
X40071428Y-69702380D01*
%TO.C,C31*%
X78107142Y-31107142D02*
X78154761Y-31059523D01*
X78202380Y-30916666D01*
X78202380Y-30821428D01*
X78154761Y-30678571D01*
X78059523Y-30583333D01*
X77964285Y-30535714D01*
X77773809Y-30488095D01*
X77630952Y-30488095D01*
X77440476Y-30535714D01*
X77345238Y-30583333D01*
X77250000Y-30678571D01*
X77202380Y-30821428D01*
X77202380Y-30916666D01*
X77250000Y-31059523D01*
X77297619Y-31107142D01*
X77202380Y-31440476D02*
X77202380Y-32059523D01*
X77583333Y-31726190D01*
X77583333Y-31869047D01*
X77630952Y-31964285D01*
X77678571Y-32011904D01*
X77773809Y-32059523D01*
X78011904Y-32059523D01*
X78107142Y-32011904D01*
X78154761Y-31964285D01*
X78202380Y-31869047D01*
X78202380Y-31583333D01*
X78154761Y-31488095D01*
X78107142Y-31440476D01*
X78202380Y-33011904D02*
X78202380Y-32440476D01*
X78202380Y-32726190D02*
X77202380Y-32726190D01*
X77345238Y-32630952D01*
X77440476Y-32535714D01*
X77488095Y-32440476D01*
%TO.C,R2*%
X71416666Y-44452380D02*
X71750000Y-43976190D01*
X71988095Y-44452380D02*
X71988095Y-43452380D01*
X71607142Y-43452380D01*
X71511904Y-43500000D01*
X71464285Y-43547619D01*
X71416666Y-43642857D01*
X71416666Y-43785714D01*
X71464285Y-43880952D01*
X71511904Y-43928571D01*
X71607142Y-43976190D01*
X71988095Y-43976190D01*
X71035714Y-43547619D02*
X70988095Y-43500000D01*
X70892857Y-43452380D01*
X70654761Y-43452380D01*
X70559523Y-43500000D01*
X70511904Y-43547619D01*
X70464285Y-43642857D01*
X70464285Y-43738095D01*
X70511904Y-43880952D01*
X71083333Y-44452380D01*
X70464285Y-44452380D01*
%TO.C,R3*%
X71416666Y-41952380D02*
X71750000Y-41476190D01*
X71988095Y-41952380D02*
X71988095Y-40952380D01*
X71607142Y-40952380D01*
X71511904Y-41000000D01*
X71464285Y-41047619D01*
X71416666Y-41142857D01*
X71416666Y-41285714D01*
X71464285Y-41380952D01*
X71511904Y-41428571D01*
X71607142Y-41476190D01*
X71988095Y-41476190D01*
X71083333Y-40952380D02*
X70464285Y-40952380D01*
X70797619Y-41333333D01*
X70654761Y-41333333D01*
X70559523Y-41380952D01*
X70511904Y-41428571D01*
X70464285Y-41523809D01*
X70464285Y-41761904D01*
X70511904Y-41857142D01*
X70559523Y-41904761D01*
X70654761Y-41952380D01*
X70940476Y-41952380D01*
X71035714Y-41904761D01*
X71083333Y-41857142D01*
%TO.C,R4*%
X69666666Y-54752380D02*
X70000000Y-54276190D01*
X70238095Y-54752380D02*
X70238095Y-53752380D01*
X69857142Y-53752380D01*
X69761904Y-53800000D01*
X69714285Y-53847619D01*
X69666666Y-53942857D01*
X69666666Y-54085714D01*
X69714285Y-54180952D01*
X69761904Y-54228571D01*
X69857142Y-54276190D01*
X70238095Y-54276190D01*
X68809523Y-54085714D02*
X68809523Y-54752380D01*
X69047619Y-53704761D02*
X69285714Y-54419047D01*
X68666666Y-54419047D01*
%TO.C,C32*%
X95357142Y-53357142D02*
X95404761Y-53309523D01*
X95452380Y-53166666D01*
X95452380Y-53071428D01*
X95404761Y-52928571D01*
X95309523Y-52833333D01*
X95214285Y-52785714D01*
X95023809Y-52738095D01*
X94880952Y-52738095D01*
X94690476Y-52785714D01*
X94595238Y-52833333D01*
X94500000Y-52928571D01*
X94452380Y-53071428D01*
X94452380Y-53166666D01*
X94500000Y-53309523D01*
X94547619Y-53357142D01*
X94452380Y-53690476D02*
X94452380Y-54309523D01*
X94833333Y-53976190D01*
X94833333Y-54119047D01*
X94880952Y-54214285D01*
X94928571Y-54261904D01*
X95023809Y-54309523D01*
X95261904Y-54309523D01*
X95357142Y-54261904D01*
X95404761Y-54214285D01*
X95452380Y-54119047D01*
X95452380Y-53833333D01*
X95404761Y-53738095D01*
X95357142Y-53690476D01*
X94547619Y-54690476D02*
X94500000Y-54738095D01*
X94452380Y-54833333D01*
X94452380Y-55071428D01*
X94500000Y-55166666D01*
X94547619Y-55214285D01*
X94642857Y-55261904D01*
X94738095Y-55261904D01*
X94880952Y-55214285D01*
X95452380Y-54642857D01*
X95452380Y-55261904D01*
%TO.C,C33*%
X36642857Y-68107142D02*
X36690476Y-68154761D01*
X36833333Y-68202380D01*
X36928571Y-68202380D01*
X37071428Y-68154761D01*
X37166666Y-68059523D01*
X37214285Y-67964285D01*
X37261904Y-67773809D01*
X37261904Y-67630952D01*
X37214285Y-67440476D01*
X37166666Y-67345238D01*
X37071428Y-67250000D01*
X36928571Y-67202380D01*
X36833333Y-67202380D01*
X36690476Y-67250000D01*
X36642857Y-67297619D01*
X36309523Y-67202380D02*
X35690476Y-67202380D01*
X36023809Y-67583333D01*
X35880952Y-67583333D01*
X35785714Y-67630952D01*
X35738095Y-67678571D01*
X35690476Y-67773809D01*
X35690476Y-68011904D01*
X35738095Y-68107142D01*
X35785714Y-68154761D01*
X35880952Y-68202380D01*
X36166666Y-68202380D01*
X36261904Y-68154761D01*
X36309523Y-68107142D01*
X35357142Y-67202380D02*
X34738095Y-67202380D01*
X35071428Y-67583333D01*
X34928571Y-67583333D01*
X34833333Y-67630952D01*
X34785714Y-67678571D01*
X34738095Y-67773809D01*
X34738095Y-68011904D01*
X34785714Y-68107142D01*
X34833333Y-68154761D01*
X34928571Y-68202380D01*
X35214285Y-68202380D01*
X35309523Y-68154761D01*
X35357142Y-68107142D01*
%TO.C,R12*%
X122642857Y-28452380D02*
X122976190Y-27976190D01*
X123214285Y-28452380D02*
X123214285Y-27452380D01*
X122833333Y-27452380D01*
X122738095Y-27500000D01*
X122690476Y-27547619D01*
X122642857Y-27642857D01*
X122642857Y-27785714D01*
X122690476Y-27880952D01*
X122738095Y-27928571D01*
X122833333Y-27976190D01*
X123214285Y-27976190D01*
X121690476Y-28452380D02*
X122261904Y-28452380D01*
X121976190Y-28452380D02*
X121976190Y-27452380D01*
X122071428Y-27595238D01*
X122166666Y-27690476D01*
X122261904Y-27738095D01*
X121309523Y-27547619D02*
X121261904Y-27500000D01*
X121166666Y-27452380D01*
X120928571Y-27452380D01*
X120833333Y-27500000D01*
X120785714Y-27547619D01*
X120738095Y-27642857D01*
X120738095Y-27738095D01*
X120785714Y-27880952D01*
X121357142Y-28452380D01*
X120738095Y-28452380D01*
%TO.C,R13*%
X122392857Y-26202380D02*
X122726190Y-25726190D01*
X122964285Y-26202380D02*
X122964285Y-25202380D01*
X122583333Y-25202380D01*
X122488095Y-25250000D01*
X122440476Y-25297619D01*
X122392857Y-25392857D01*
X122392857Y-25535714D01*
X122440476Y-25630952D01*
X122488095Y-25678571D01*
X122583333Y-25726190D01*
X122964285Y-25726190D01*
X121440476Y-26202380D02*
X122011904Y-26202380D01*
X121726190Y-26202380D02*
X121726190Y-25202380D01*
X121821428Y-25345238D01*
X121916666Y-25440476D01*
X122011904Y-25488095D01*
X121107142Y-25202380D02*
X120488095Y-25202380D01*
X120821428Y-25583333D01*
X120678571Y-25583333D01*
X120583333Y-25630952D01*
X120535714Y-25678571D01*
X120488095Y-25773809D01*
X120488095Y-26011904D01*
X120535714Y-26107142D01*
X120583333Y-26154761D01*
X120678571Y-26202380D01*
X120964285Y-26202380D01*
X121059523Y-26154761D01*
X121107142Y-26107142D01*
%TO.C,R14*%
X107892857Y-29202380D02*
X108226190Y-28726190D01*
X108464285Y-29202380D02*
X108464285Y-28202380D01*
X108083333Y-28202380D01*
X107988095Y-28250000D01*
X107940476Y-28297619D01*
X107892857Y-28392857D01*
X107892857Y-28535714D01*
X107940476Y-28630952D01*
X107988095Y-28678571D01*
X108083333Y-28726190D01*
X108464285Y-28726190D01*
X106940476Y-29202380D02*
X107511904Y-29202380D01*
X107226190Y-29202380D02*
X107226190Y-28202380D01*
X107321428Y-28345238D01*
X107416666Y-28440476D01*
X107511904Y-28488095D01*
X106083333Y-28535714D02*
X106083333Y-29202380D01*
X106321428Y-28154761D02*
X106559523Y-28869047D01*
X105940476Y-28869047D01*
%TO.C,R15*%
X102892857Y-29202380D02*
X103226190Y-28726190D01*
X103464285Y-29202380D02*
X103464285Y-28202380D01*
X103083333Y-28202380D01*
X102988095Y-28250000D01*
X102940476Y-28297619D01*
X102892857Y-28392857D01*
X102892857Y-28535714D01*
X102940476Y-28630952D01*
X102988095Y-28678571D01*
X103083333Y-28726190D01*
X103464285Y-28726190D01*
X101940476Y-29202380D02*
X102511904Y-29202380D01*
X102226190Y-29202380D02*
X102226190Y-28202380D01*
X102321428Y-28345238D01*
X102416666Y-28440476D01*
X102511904Y-28488095D01*
X101035714Y-28202380D02*
X101511904Y-28202380D01*
X101559523Y-28678571D01*
X101511904Y-28630952D01*
X101416666Y-28583333D01*
X101178571Y-28583333D01*
X101083333Y-28630952D01*
X101035714Y-28678571D01*
X100988095Y-28773809D01*
X100988095Y-29011904D01*
X101035714Y-29107142D01*
X101083333Y-29154761D01*
X101178571Y-29202380D01*
X101416666Y-29202380D01*
X101511904Y-29154761D01*
X101559523Y-29107142D01*
%TO.C,R20*%
X112202380Y-54357142D02*
X111726190Y-54023809D01*
X112202380Y-53785714D02*
X111202380Y-53785714D01*
X111202380Y-54166666D01*
X111250000Y-54261904D01*
X111297619Y-54309523D01*
X111392857Y-54357142D01*
X111535714Y-54357142D01*
X111630952Y-54309523D01*
X111678571Y-54261904D01*
X111726190Y-54166666D01*
X111726190Y-53785714D01*
X111297619Y-54738095D02*
X111250000Y-54785714D01*
X111202380Y-54880952D01*
X111202380Y-55119047D01*
X111250000Y-55214285D01*
X111297619Y-55261904D01*
X111392857Y-55309523D01*
X111488095Y-55309523D01*
X111630952Y-55261904D01*
X112202380Y-54690476D01*
X112202380Y-55309523D01*
X111202380Y-55928571D02*
X111202380Y-56023809D01*
X111250000Y-56119047D01*
X111297619Y-56166666D01*
X111392857Y-56214285D01*
X111583333Y-56261904D01*
X111821428Y-56261904D01*
X112011904Y-56214285D01*
X112107142Y-56166666D01*
X112154761Y-56119047D01*
X112202380Y-56023809D01*
X112202380Y-55928571D01*
X112154761Y-55833333D01*
X112107142Y-55785714D01*
X112011904Y-55738095D01*
X111821428Y-55690476D01*
X111583333Y-55690476D01*
X111392857Y-55738095D01*
X111297619Y-55785714D01*
X111250000Y-55833333D01*
X111202380Y-55928571D01*
%TO.C,R21*%
X109702380Y-54357142D02*
X109226190Y-54023809D01*
X109702380Y-53785714D02*
X108702380Y-53785714D01*
X108702380Y-54166666D01*
X108750000Y-54261904D01*
X108797619Y-54309523D01*
X108892857Y-54357142D01*
X109035714Y-54357142D01*
X109130952Y-54309523D01*
X109178571Y-54261904D01*
X109226190Y-54166666D01*
X109226190Y-53785714D01*
X108797619Y-54738095D02*
X108750000Y-54785714D01*
X108702380Y-54880952D01*
X108702380Y-55119047D01*
X108750000Y-55214285D01*
X108797619Y-55261904D01*
X108892857Y-55309523D01*
X108988095Y-55309523D01*
X109130952Y-55261904D01*
X109702380Y-54690476D01*
X109702380Y-55309523D01*
X109702380Y-56261904D02*
X109702380Y-55690476D01*
X109702380Y-55976190D02*
X108702380Y-55976190D01*
X108845238Y-55880952D01*
X108940476Y-55785714D01*
X108988095Y-55690476D01*
%TO.C,R22*%
X105952380Y-64757142D02*
X105476190Y-64423809D01*
X105952380Y-64185714D02*
X104952380Y-64185714D01*
X104952380Y-64566666D01*
X105000000Y-64661904D01*
X105047619Y-64709523D01*
X105142857Y-64757142D01*
X105285714Y-64757142D01*
X105380952Y-64709523D01*
X105428571Y-64661904D01*
X105476190Y-64566666D01*
X105476190Y-64185714D01*
X105047619Y-65138095D02*
X105000000Y-65185714D01*
X104952380Y-65280952D01*
X104952380Y-65519047D01*
X105000000Y-65614285D01*
X105047619Y-65661904D01*
X105142857Y-65709523D01*
X105238095Y-65709523D01*
X105380952Y-65661904D01*
X105952380Y-65090476D01*
X105952380Y-65709523D01*
X105047619Y-66090476D02*
X105000000Y-66138095D01*
X104952380Y-66233333D01*
X104952380Y-66471428D01*
X105000000Y-66566666D01*
X105047619Y-66614285D01*
X105142857Y-66661904D01*
X105238095Y-66661904D01*
X105380952Y-66614285D01*
X105952380Y-66042857D01*
X105952380Y-66661904D01*
%TO.C,R23*%
X33842857Y-37252380D02*
X34176190Y-36776190D01*
X34414285Y-37252380D02*
X34414285Y-36252380D01*
X34033333Y-36252380D01*
X33938095Y-36300000D01*
X33890476Y-36347619D01*
X33842857Y-36442857D01*
X33842857Y-36585714D01*
X33890476Y-36680952D01*
X33938095Y-36728571D01*
X34033333Y-36776190D01*
X34414285Y-36776190D01*
X33461904Y-36347619D02*
X33414285Y-36300000D01*
X33319047Y-36252380D01*
X33080952Y-36252380D01*
X32985714Y-36300000D01*
X32938095Y-36347619D01*
X32890476Y-36442857D01*
X32890476Y-36538095D01*
X32938095Y-36680952D01*
X33509523Y-37252380D01*
X32890476Y-37252380D01*
X32557142Y-36252380D02*
X31938095Y-36252380D01*
X32271428Y-36633333D01*
X32128571Y-36633333D01*
X32033333Y-36680952D01*
X31985714Y-36728571D01*
X31938095Y-36823809D01*
X31938095Y-37061904D01*
X31985714Y-37157142D01*
X32033333Y-37204761D01*
X32128571Y-37252380D01*
X32414285Y-37252380D01*
X32509523Y-37204761D01*
X32557142Y-37157142D01*
%TO.C,R24*%
X35042857Y-34652380D02*
X35376190Y-34176190D01*
X35614285Y-34652380D02*
X35614285Y-33652380D01*
X35233333Y-33652380D01*
X35138095Y-33700000D01*
X35090476Y-33747619D01*
X35042857Y-33842857D01*
X35042857Y-33985714D01*
X35090476Y-34080952D01*
X35138095Y-34128571D01*
X35233333Y-34176190D01*
X35614285Y-34176190D01*
X34661904Y-33747619D02*
X34614285Y-33700000D01*
X34519047Y-33652380D01*
X34280952Y-33652380D01*
X34185714Y-33700000D01*
X34138095Y-33747619D01*
X34090476Y-33842857D01*
X34090476Y-33938095D01*
X34138095Y-34080952D01*
X34709523Y-34652380D01*
X34090476Y-34652380D01*
X33233333Y-33985714D02*
X33233333Y-34652380D01*
X33471428Y-33604761D02*
X33709523Y-34319047D01*
X33090476Y-34319047D01*
%TO.C,R25*%
X33642857Y-40052380D02*
X33976190Y-39576190D01*
X34214285Y-40052380D02*
X34214285Y-39052380D01*
X33833333Y-39052380D01*
X33738095Y-39100000D01*
X33690476Y-39147619D01*
X33642857Y-39242857D01*
X33642857Y-39385714D01*
X33690476Y-39480952D01*
X33738095Y-39528571D01*
X33833333Y-39576190D01*
X34214285Y-39576190D01*
X33261904Y-39147619D02*
X33214285Y-39100000D01*
X33119047Y-39052380D01*
X32880952Y-39052380D01*
X32785714Y-39100000D01*
X32738095Y-39147619D01*
X32690476Y-39242857D01*
X32690476Y-39338095D01*
X32738095Y-39480952D01*
X33309523Y-40052380D01*
X32690476Y-40052380D01*
X31785714Y-39052380D02*
X32261904Y-39052380D01*
X32309523Y-39528571D01*
X32261904Y-39480952D01*
X32166666Y-39433333D01*
X31928571Y-39433333D01*
X31833333Y-39480952D01*
X31785714Y-39528571D01*
X31738095Y-39623809D01*
X31738095Y-39861904D01*
X31785714Y-39957142D01*
X31833333Y-40004761D01*
X31928571Y-40052380D01*
X32166666Y-40052380D01*
X32261904Y-40004761D01*
X32309523Y-39957142D01*
%TO.C,R26*%
X96852380Y-34757142D02*
X96376190Y-34423809D01*
X96852380Y-34185714D02*
X95852380Y-34185714D01*
X95852380Y-34566666D01*
X95900000Y-34661904D01*
X95947619Y-34709523D01*
X96042857Y-34757142D01*
X96185714Y-34757142D01*
X96280952Y-34709523D01*
X96328571Y-34661904D01*
X96376190Y-34566666D01*
X96376190Y-34185714D01*
X95947619Y-35138095D02*
X95900000Y-35185714D01*
X95852380Y-35280952D01*
X95852380Y-35519047D01*
X95900000Y-35614285D01*
X95947619Y-35661904D01*
X96042857Y-35709523D01*
X96138095Y-35709523D01*
X96280952Y-35661904D01*
X96852380Y-35090476D01*
X96852380Y-35709523D01*
X95852380Y-36566666D02*
X95852380Y-36376190D01*
X95900000Y-36280952D01*
X95947619Y-36233333D01*
X96090476Y-36138095D01*
X96280952Y-36090476D01*
X96661904Y-36090476D01*
X96757142Y-36138095D01*
X96804761Y-36185714D01*
X96852380Y-36280952D01*
X96852380Y-36471428D01*
X96804761Y-36566666D01*
X96757142Y-36614285D01*
X96661904Y-36661904D01*
X96423809Y-36661904D01*
X96328571Y-36614285D01*
X96280952Y-36566666D01*
X96233333Y-36471428D01*
X96233333Y-36280952D01*
X96280952Y-36185714D01*
X96328571Y-36138095D01*
X96423809Y-36090476D01*
%TO.C,R27*%
X93652380Y-34757142D02*
X93176190Y-34423809D01*
X93652380Y-34185714D02*
X92652380Y-34185714D01*
X92652380Y-34566666D01*
X92700000Y-34661904D01*
X92747619Y-34709523D01*
X92842857Y-34757142D01*
X92985714Y-34757142D01*
X93080952Y-34709523D01*
X93128571Y-34661904D01*
X93176190Y-34566666D01*
X93176190Y-34185714D01*
X92747619Y-35138095D02*
X92700000Y-35185714D01*
X92652380Y-35280952D01*
X92652380Y-35519047D01*
X92700000Y-35614285D01*
X92747619Y-35661904D01*
X92842857Y-35709523D01*
X92938095Y-35709523D01*
X93080952Y-35661904D01*
X93652380Y-35090476D01*
X93652380Y-35709523D01*
X92652380Y-36042857D02*
X92652380Y-36709523D01*
X93652380Y-36280952D01*
%TD*%
M02*
