%TF.GenerationSoftware,KiCad,Pcbnew,(5.0.0-rc2-dev-433-g81843c37a)*%
%TF.CreationDate,2018-08-17T12:44:53+02:00*%
%TF.ProjectId,phloppy_0,70686C6F7070795F302E6B696361645F,rev?*%
%TF.SameCoordinates,Original*%
%TF.FileFunction,Legend,Top*%
%TF.FilePolarity,Positive*%
%FSLAX46Y46*%
G04 Gerber Fmt 4.6, Leading zero omitted, Abs format (unit mm)*
G04 Created by KiCad (PCBNEW (5.0.0-rc2-dev-433-g81843c37a)) date Fri Aug 17 12:44:53 2018*
%MOMM*%
%LPD*%
G01*
G04 APERTURE LIST*
%ADD10C,0.150000*%
%ADD11C,0.200000*%
%ADD12C,0.120000*%
%ADD13C,0.010000*%
G04 APERTURE END LIST*
D10*
X123395238Y-21180952D02*
X123347619Y-21323809D01*
X123347619Y-21561904D01*
X123395238Y-21657142D01*
X123442857Y-21704761D01*
X123538095Y-21752380D01*
X123633333Y-21752380D01*
X123728571Y-21704761D01*
X123776190Y-21657142D01*
X123823809Y-21561904D01*
X123871428Y-21371428D01*
X123919047Y-21276190D01*
X123966666Y-21228571D01*
X124061904Y-21180952D01*
X124157142Y-21180952D01*
X124252380Y-21228571D01*
X124300000Y-21276190D01*
X124347619Y-21371428D01*
X124347619Y-21609523D01*
X124300000Y-21752380D01*
X123871428Y-22180952D02*
X123871428Y-22514285D01*
X123347619Y-22657142D02*
X123347619Y-22180952D01*
X124347619Y-22180952D01*
X124347619Y-22657142D01*
X123347619Y-23561904D02*
X123347619Y-23085714D01*
X124347619Y-23085714D01*
X124347619Y-23800000D02*
X124347619Y-24419047D01*
X123966666Y-24085714D01*
X123966666Y-24228571D01*
X123919047Y-24323809D01*
X123871428Y-24371428D01*
X123776190Y-24419047D01*
X123538095Y-24419047D01*
X123442857Y-24371428D01*
X123395238Y-24323809D01*
X123347619Y-24228571D01*
X123347619Y-23942857D01*
X123395238Y-23847619D01*
X123442857Y-23800000D01*
X124795238Y-21180952D02*
X124747619Y-21323809D01*
X124747619Y-21561904D01*
X124795238Y-21657142D01*
X124842857Y-21704761D01*
X124938095Y-21752380D01*
X125033333Y-21752380D01*
X125128571Y-21704761D01*
X125176190Y-21657142D01*
X125223809Y-21561904D01*
X125271428Y-21371428D01*
X125319047Y-21276190D01*
X125366666Y-21228571D01*
X125461904Y-21180952D01*
X125557142Y-21180952D01*
X125652380Y-21228571D01*
X125700000Y-21276190D01*
X125747619Y-21371428D01*
X125747619Y-21609523D01*
X125700000Y-21752380D01*
X125271428Y-22180952D02*
X125271428Y-22514285D01*
X124747619Y-22657142D02*
X124747619Y-22180952D01*
X125747619Y-22180952D01*
X125747619Y-22657142D01*
X124747619Y-23561904D02*
X124747619Y-23085714D01*
X125747619Y-23085714D01*
X125652380Y-23847619D02*
X125700000Y-23895238D01*
X125747619Y-23990476D01*
X125747619Y-24228571D01*
X125700000Y-24323809D01*
X125652380Y-24371428D01*
X125557142Y-24419047D01*
X125461904Y-24419047D01*
X125319047Y-24371428D01*
X124747619Y-23800000D01*
X124747619Y-24419047D01*
D11*
X24600000Y-41800000D02*
X24600000Y-41000000D01*
X24600000Y-41000000D02*
X25000000Y-41400000D01*
X25000000Y-41400000D02*
X24600000Y-41800000D01*
X24600000Y-36000000D02*
X25000000Y-36400000D01*
X25000000Y-36400000D02*
X24600000Y-36800000D01*
X24600000Y-36800000D02*
X24600000Y-36000000D01*
X25000000Y-34200000D02*
X24600000Y-33800000D01*
X25000000Y-33400000D02*
X25000000Y-34200000D01*
X24600000Y-33800000D02*
X25000000Y-33400000D01*
X24600000Y-31800000D02*
X24600000Y-31000000D01*
X25000000Y-31400000D02*
X24600000Y-31800000D01*
X24600000Y-31000000D02*
X25000000Y-31400000D01*
D10*
X46535595Y-70160714D02*
X46535595Y-71160714D01*
X46535595Y-70208333D02*
X46630833Y-70160714D01*
X46821309Y-70160714D01*
X46916547Y-70208333D01*
X46964166Y-70255952D01*
X47011785Y-70351190D01*
X47011785Y-70636904D01*
X46964166Y-70732142D01*
X46916547Y-70779761D01*
X46821309Y-70827380D01*
X46630833Y-70827380D01*
X46535595Y-70779761D01*
X47440357Y-70827380D02*
X47440357Y-69827380D01*
X47868928Y-70827380D02*
X47868928Y-70303571D01*
X47821309Y-70208333D01*
X47726071Y-70160714D01*
X47583214Y-70160714D01*
X47487976Y-70208333D01*
X47440357Y-70255952D01*
X48487976Y-70827380D02*
X48392738Y-70779761D01*
X48345119Y-70684523D01*
X48345119Y-69827380D01*
X49011785Y-70827380D02*
X48916547Y-70779761D01*
X48868928Y-70732142D01*
X48821309Y-70636904D01*
X48821309Y-70351190D01*
X48868928Y-70255952D01*
X48916547Y-70208333D01*
X49011785Y-70160714D01*
X49154642Y-70160714D01*
X49249880Y-70208333D01*
X49297500Y-70255952D01*
X49345119Y-70351190D01*
X49345119Y-70636904D01*
X49297500Y-70732142D01*
X49249880Y-70779761D01*
X49154642Y-70827380D01*
X49011785Y-70827380D01*
X49773690Y-70160714D02*
X49773690Y-71160714D01*
X49773690Y-70208333D02*
X49868928Y-70160714D01*
X50059404Y-70160714D01*
X50154642Y-70208333D01*
X50202261Y-70255952D01*
X50249880Y-70351190D01*
X50249880Y-70636904D01*
X50202261Y-70732142D01*
X50154642Y-70779761D01*
X50059404Y-70827380D01*
X49868928Y-70827380D01*
X49773690Y-70779761D01*
X50678452Y-70160714D02*
X50678452Y-71160714D01*
X50678452Y-70208333D02*
X50773690Y-70160714D01*
X50964166Y-70160714D01*
X51059404Y-70208333D01*
X51107023Y-70255952D01*
X51154642Y-70351190D01*
X51154642Y-70636904D01*
X51107023Y-70732142D01*
X51059404Y-70779761D01*
X50964166Y-70827380D01*
X50773690Y-70827380D01*
X50678452Y-70779761D01*
X51487976Y-70160714D02*
X51726071Y-70827380D01*
X51964166Y-70160714D02*
X51726071Y-70827380D01*
X51630833Y-71065476D01*
X51583214Y-71113095D01*
X51487976Y-71160714D01*
X52535595Y-69827380D02*
X52630833Y-69827380D01*
X52726071Y-69875000D01*
X52773690Y-69922619D01*
X52821309Y-70017857D01*
X52868928Y-70208333D01*
X52868928Y-70446428D01*
X52821309Y-70636904D01*
X52773690Y-70732142D01*
X52726071Y-70779761D01*
X52630833Y-70827380D01*
X52535595Y-70827380D01*
X52440357Y-70779761D01*
X52392738Y-70732142D01*
X52345119Y-70636904D01*
X52297500Y-70446428D01*
X52297500Y-70208333D01*
X52345119Y-70017857D01*
X52392738Y-69922619D01*
X52440357Y-69875000D01*
X52535595Y-69827380D01*
X53059404Y-70922619D02*
X53821309Y-70922619D01*
X53964166Y-70160714D02*
X54202261Y-70827380D01*
X54440357Y-70160714D01*
X54773690Y-69922619D02*
X54821309Y-69875000D01*
X54916547Y-69827380D01*
X55154642Y-69827380D01*
X55249880Y-69875000D01*
X55297500Y-69922619D01*
X55345119Y-70017857D01*
X55345119Y-70113095D01*
X55297500Y-70255952D01*
X54726071Y-70827380D01*
X55345119Y-70827380D01*
X46821309Y-72858333D02*
X46773690Y-72810714D01*
X46678452Y-72667857D01*
X46630833Y-72572619D01*
X46583214Y-72429761D01*
X46535595Y-72191666D01*
X46535595Y-72001190D01*
X46583214Y-71763095D01*
X46630833Y-71620238D01*
X46678452Y-71525000D01*
X46773690Y-71382142D01*
X46821309Y-71334523D01*
X47773690Y-72382142D02*
X47726071Y-72429761D01*
X47583214Y-72477380D01*
X47487976Y-72477380D01*
X47345119Y-72429761D01*
X47249880Y-72334523D01*
X47202261Y-72239285D01*
X47154642Y-72048809D01*
X47154642Y-71905952D01*
X47202261Y-71715476D01*
X47249880Y-71620238D01*
X47345119Y-71525000D01*
X47487976Y-71477380D01*
X47583214Y-71477380D01*
X47726071Y-71525000D01*
X47773690Y-71572619D01*
X48107023Y-72858333D02*
X48154642Y-72810714D01*
X48249880Y-72667857D01*
X48297500Y-72572619D01*
X48345119Y-72429761D01*
X48392738Y-72191666D01*
X48392738Y-72001190D01*
X48345119Y-71763095D01*
X48297500Y-71620238D01*
X48249880Y-71525000D01*
X48154642Y-71382142D01*
X48107023Y-71334523D01*
X49583214Y-71572619D02*
X49630833Y-71525000D01*
X49726071Y-71477380D01*
X49964166Y-71477380D01*
X50059404Y-71525000D01*
X50107023Y-71572619D01*
X50154642Y-71667857D01*
X50154642Y-71763095D01*
X50107023Y-71905952D01*
X49535595Y-72477380D01*
X50154642Y-72477380D01*
X50773690Y-71477380D02*
X50868928Y-71477380D01*
X50964166Y-71525000D01*
X51011785Y-71572619D01*
X51059404Y-71667857D01*
X51107023Y-71858333D01*
X51107023Y-72096428D01*
X51059404Y-72286904D01*
X51011785Y-72382142D01*
X50964166Y-72429761D01*
X50868928Y-72477380D01*
X50773690Y-72477380D01*
X50678452Y-72429761D01*
X50630833Y-72382142D01*
X50583214Y-72286904D01*
X50535595Y-72096428D01*
X50535595Y-71858333D01*
X50583214Y-71667857D01*
X50630833Y-71572619D01*
X50678452Y-71525000D01*
X50773690Y-71477380D01*
X52059404Y-72477380D02*
X51487976Y-72477380D01*
X51773690Y-72477380D02*
X51773690Y-71477380D01*
X51678452Y-71620238D01*
X51583214Y-71715476D01*
X51487976Y-71763095D01*
X52392738Y-71477380D02*
X53059404Y-71477380D01*
X52630833Y-72477380D01*
X53487976Y-72429761D02*
X53487976Y-72477380D01*
X53440357Y-72572619D01*
X53392738Y-72620238D01*
X53868928Y-71572619D02*
X53916547Y-71525000D01*
X54011785Y-71477380D01*
X54249880Y-71477380D01*
X54345119Y-71525000D01*
X54392738Y-71572619D01*
X54440357Y-71667857D01*
X54440357Y-71763095D01*
X54392738Y-71905952D01*
X53821309Y-72477380D01*
X54440357Y-72477380D01*
X55059404Y-71477380D02*
X55154642Y-71477380D01*
X55249880Y-71525000D01*
X55297500Y-71572619D01*
X55345119Y-71667857D01*
X55392738Y-71858333D01*
X55392738Y-72096428D01*
X55345119Y-72286904D01*
X55297500Y-72382142D01*
X55249880Y-72429761D01*
X55154642Y-72477380D01*
X55059404Y-72477380D01*
X54964166Y-72429761D01*
X54916547Y-72382142D01*
X54868928Y-72286904D01*
X54821309Y-72096428D01*
X54821309Y-71858333D01*
X54868928Y-71667857D01*
X54916547Y-71572619D01*
X54964166Y-71525000D01*
X55059404Y-71477380D01*
X56345119Y-72477380D02*
X55773690Y-72477380D01*
X56059404Y-72477380D02*
X56059404Y-71477380D01*
X55964166Y-71620238D01*
X55868928Y-71715476D01*
X55773690Y-71763095D01*
X56916547Y-71905952D02*
X56821309Y-71858333D01*
X56773690Y-71810714D01*
X56726071Y-71715476D01*
X56726071Y-71667857D01*
X56773690Y-71572619D01*
X56821309Y-71525000D01*
X56916547Y-71477380D01*
X57107023Y-71477380D01*
X57202261Y-71525000D01*
X57249880Y-71572619D01*
X57297500Y-71667857D01*
X57297500Y-71715476D01*
X57249880Y-71810714D01*
X57202261Y-71858333D01*
X57107023Y-71905952D01*
X56916547Y-71905952D01*
X56821309Y-71953571D01*
X56773690Y-72001190D01*
X56726071Y-72096428D01*
X56726071Y-72286904D01*
X56773690Y-72382142D01*
X56821309Y-72429761D01*
X56916547Y-72477380D01*
X57107023Y-72477380D01*
X57202261Y-72429761D01*
X57249880Y-72382142D01*
X57297500Y-72286904D01*
X57297500Y-72096428D01*
X57249880Y-72001190D01*
X57202261Y-71953571D01*
X57107023Y-71905952D01*
X58487976Y-72477380D02*
X58487976Y-71477380D01*
X58868928Y-71477380D01*
X58964166Y-71525000D01*
X59011785Y-71572619D01*
X59059404Y-71667857D01*
X59059404Y-71810714D01*
X59011785Y-71905952D01*
X58964166Y-71953571D01*
X58868928Y-72001190D01*
X58487976Y-72001190D01*
X59487976Y-72477380D02*
X59487976Y-71810714D01*
X59487976Y-71477380D02*
X59440357Y-71525000D01*
X59487976Y-71572619D01*
X59535595Y-71525000D01*
X59487976Y-71477380D01*
X59487976Y-71572619D01*
X60107023Y-72477380D02*
X60011785Y-72429761D01*
X59964166Y-72382142D01*
X59916547Y-72286904D01*
X59916547Y-72001190D01*
X59964166Y-71905952D01*
X60011785Y-71858333D01*
X60107023Y-71810714D01*
X60249880Y-71810714D01*
X60345119Y-71858333D01*
X60392738Y-71905952D01*
X60440357Y-72001190D01*
X60440357Y-72286904D01*
X60392738Y-72382142D01*
X60345119Y-72429761D01*
X60249880Y-72477380D01*
X60107023Y-72477380D01*
X60726071Y-71810714D02*
X61107023Y-71810714D01*
X60868928Y-71477380D02*
X60868928Y-72334523D01*
X60916547Y-72429761D01*
X61011785Y-72477380D01*
X61107023Y-72477380D01*
X61440357Y-72477380D02*
X61440357Y-71810714D01*
X61440357Y-72001190D02*
X61487976Y-71905952D01*
X61535595Y-71858333D01*
X61630833Y-71810714D01*
X61726071Y-71810714D01*
X62726071Y-71477380D02*
X62964166Y-72477380D01*
X63154642Y-71763095D01*
X63345119Y-72477380D01*
X63583214Y-71477380D01*
X63964166Y-72477380D02*
X63964166Y-71810714D01*
X63964166Y-71477380D02*
X63916547Y-71525000D01*
X63964166Y-71572619D01*
X64011785Y-71525000D01*
X63964166Y-71477380D01*
X63964166Y-71572619D01*
X64392738Y-72429761D02*
X64487976Y-72477380D01*
X64678452Y-72477380D01*
X64773690Y-72429761D01*
X64821309Y-72334523D01*
X64821309Y-72286904D01*
X64773690Y-72191666D01*
X64678452Y-72144047D01*
X64535595Y-72144047D01*
X64440357Y-72096428D01*
X64392738Y-72001190D01*
X64392738Y-71953571D01*
X64440357Y-71858333D01*
X64535595Y-71810714D01*
X64678452Y-71810714D01*
X64773690Y-71858333D01*
X65154642Y-71810714D02*
X65678452Y-71810714D01*
X65154642Y-72477380D01*
X65678452Y-72477380D01*
X66202261Y-72477380D02*
X66107023Y-72429761D01*
X66059404Y-72382142D01*
X66011785Y-72286904D01*
X66011785Y-72001190D01*
X66059404Y-71905952D01*
X66107023Y-71858333D01*
X66202261Y-71810714D01*
X66345119Y-71810714D01*
X66440357Y-71858333D01*
X66487976Y-71905952D01*
X66535595Y-72001190D01*
X66535595Y-72286904D01*
X66487976Y-72382142D01*
X66440357Y-72429761D01*
X66345119Y-72477380D01*
X66202261Y-72477380D01*
X66868928Y-71810714D02*
X67059404Y-72477380D01*
X67249880Y-72001190D01*
X67440357Y-72477380D01*
X67630833Y-71810714D01*
X68440357Y-72477380D02*
X68440357Y-71953571D01*
X68392738Y-71858333D01*
X68297500Y-71810714D01*
X68107023Y-71810714D01*
X68011785Y-71858333D01*
X68440357Y-72429761D02*
X68345119Y-72477380D01*
X68107023Y-72477380D01*
X68011785Y-72429761D01*
X67964166Y-72334523D01*
X67964166Y-72239285D01*
X68011785Y-72144047D01*
X68107023Y-72096428D01*
X68345119Y-72096428D01*
X68440357Y-72048809D01*
X68773690Y-71810714D02*
X69154642Y-71810714D01*
X68916547Y-71477380D02*
X68916547Y-72334523D01*
X68964166Y-72429761D01*
X69059404Y-72477380D01*
X69154642Y-72477380D01*
X69392738Y-71810714D02*
X69630833Y-72477380D01*
X69868928Y-71810714D02*
X69630833Y-72477380D01*
X69535595Y-72715476D01*
X69487976Y-72763095D01*
X69392738Y-72810714D01*
X25059404Y-43500000D02*
X24964166Y-43452380D01*
X24821309Y-43452380D01*
X24678452Y-43500000D01*
X24583214Y-43595238D01*
X24535595Y-43690476D01*
X24487976Y-43880952D01*
X24487976Y-44023809D01*
X24535595Y-44214285D01*
X24583214Y-44309523D01*
X24678452Y-44404761D01*
X24821309Y-44452380D01*
X24916547Y-44452380D01*
X25059404Y-44404761D01*
X25107023Y-44357142D01*
X25107023Y-44023809D01*
X24916547Y-44023809D01*
X25535595Y-44452380D02*
X25535595Y-43452380D01*
X26107023Y-44452380D01*
X26107023Y-43452380D01*
X26583214Y-44452380D02*
X26583214Y-43452380D01*
X26821309Y-43452380D01*
X26964166Y-43500000D01*
X27059404Y-43595238D01*
X27107023Y-43690476D01*
X27154642Y-43880952D01*
X27154642Y-44023809D01*
X27107023Y-44214285D01*
X27059404Y-44309523D01*
X26964166Y-44404761D01*
X26821309Y-44452380D01*
X26583214Y-44452380D01*
X25735595Y-41852380D02*
X25735595Y-40852380D01*
X25973690Y-40852380D01*
X26116547Y-40900000D01*
X26211785Y-40995238D01*
X26259404Y-41090476D01*
X26307023Y-41280952D01*
X26307023Y-41423809D01*
X26259404Y-41614285D01*
X26211785Y-41709523D01*
X26116547Y-41804761D01*
X25973690Y-41852380D01*
X25735595Y-41852380D01*
X26592738Y-40852380D02*
X27164166Y-40852380D01*
X26878452Y-41852380D02*
X26878452Y-40852380D01*
X28068928Y-41852380D02*
X27735595Y-41376190D01*
X27497500Y-41852380D02*
X27497500Y-40852380D01*
X27878452Y-40852380D01*
X27973690Y-40900000D01*
X28021309Y-40947619D01*
X28068928Y-41042857D01*
X28068928Y-41185714D01*
X28021309Y-41280952D01*
X27973690Y-41328571D01*
X27878452Y-41376190D01*
X27497500Y-41376190D01*
X25392738Y-33252380D02*
X25964166Y-33252380D01*
X25678452Y-34252380D02*
X25678452Y-33252380D01*
X26202261Y-33252380D02*
X26868928Y-34252380D01*
X26868928Y-33252380D02*
X26202261Y-34252380D01*
X27249880Y-34252380D02*
X27249880Y-33252380D01*
X27487976Y-33252380D01*
X27630833Y-33300000D01*
X27726071Y-33395238D01*
X27773690Y-33490476D01*
X27821309Y-33680952D01*
X27821309Y-33823809D01*
X27773690Y-34014285D01*
X27726071Y-34109523D01*
X27630833Y-34204761D01*
X27487976Y-34252380D01*
X27249880Y-34252380D01*
X25907023Y-36852380D02*
X25573690Y-36376190D01*
X25335595Y-36852380D02*
X25335595Y-35852380D01*
X25716547Y-35852380D01*
X25811785Y-35900000D01*
X25859404Y-35947619D01*
X25907023Y-36042857D01*
X25907023Y-36185714D01*
X25859404Y-36280952D01*
X25811785Y-36328571D01*
X25716547Y-36376190D01*
X25335595Y-36376190D01*
X26240357Y-35852380D02*
X26907023Y-36852380D01*
X26907023Y-35852380D02*
X26240357Y-36852380D01*
X27287976Y-36852380D02*
X27287976Y-35852380D01*
X27526071Y-35852380D01*
X27668928Y-35900000D01*
X27764166Y-35995238D01*
X27811785Y-36090476D01*
X27859404Y-36280952D01*
X27859404Y-36423809D01*
X27811785Y-36614285D01*
X27764166Y-36709523D01*
X27668928Y-36804761D01*
X27526071Y-36852380D01*
X27287976Y-36852380D01*
X26107023Y-31852380D02*
X25773690Y-31376190D01*
X25535595Y-31852380D02*
X25535595Y-30852380D01*
X25916547Y-30852380D01*
X26011785Y-30900000D01*
X26059404Y-30947619D01*
X26107023Y-31042857D01*
X26107023Y-31185714D01*
X26059404Y-31280952D01*
X26011785Y-31328571D01*
X25916547Y-31376190D01*
X25535595Y-31376190D01*
X26392738Y-30852380D02*
X26964166Y-30852380D01*
X26678452Y-31852380D02*
X26678452Y-30852380D01*
X27249880Y-31804761D02*
X27392738Y-31852380D01*
X27630833Y-31852380D01*
X27726071Y-31804761D01*
X27773690Y-31757142D01*
X27821309Y-31661904D01*
X27821309Y-31566666D01*
X27773690Y-31471428D01*
X27726071Y-31423809D01*
X27630833Y-31376190D01*
X27440357Y-31328571D01*
X27345119Y-31280952D01*
X27297500Y-31233333D01*
X27249880Y-31138095D01*
X27249880Y-31042857D01*
X27297500Y-30947619D01*
X27345119Y-30900000D01*
X27440357Y-30852380D01*
X27678452Y-30852380D01*
X27821309Y-30900000D01*
X103252380Y-70559642D02*
X103252380Y-69940595D01*
X103633333Y-70273928D01*
X103633333Y-70131071D01*
X103680952Y-70035833D01*
X103728571Y-69988214D01*
X103823809Y-69940595D01*
X104061904Y-69940595D01*
X104157142Y-69988214D01*
X104204761Y-70035833D01*
X104252380Y-70131071D01*
X104252380Y-70416785D01*
X104204761Y-70512023D01*
X104157142Y-70559642D01*
X103252380Y-69654880D02*
X104252380Y-69321547D01*
X103252380Y-68988214D01*
X103252380Y-68750119D02*
X103252380Y-68131071D01*
X103633333Y-68464404D01*
X103633333Y-68321547D01*
X103680952Y-68226309D01*
X103728571Y-68178690D01*
X103823809Y-68131071D01*
X104061904Y-68131071D01*
X104157142Y-68178690D01*
X104204761Y-68226309D01*
X104252380Y-68321547D01*
X104252380Y-68607261D01*
X104204761Y-68702500D01*
X104157142Y-68750119D01*
X100900000Y-69940595D02*
X100852380Y-70035833D01*
X100852380Y-70178690D01*
X100900000Y-70321547D01*
X100995238Y-70416785D01*
X101090476Y-70464404D01*
X101280952Y-70512023D01*
X101423809Y-70512023D01*
X101614285Y-70464404D01*
X101709523Y-70416785D01*
X101804761Y-70321547D01*
X101852380Y-70178690D01*
X101852380Y-70083452D01*
X101804761Y-69940595D01*
X101757142Y-69892976D01*
X101423809Y-69892976D01*
X101423809Y-70083452D01*
X101852380Y-69464404D02*
X100852380Y-69464404D01*
X101852380Y-68892976D01*
X100852380Y-68892976D01*
X101852380Y-68416785D02*
X100852380Y-68416785D01*
X100852380Y-68178690D01*
X100900000Y-68035833D01*
X100995238Y-67940595D01*
X101090476Y-67892976D01*
X101280952Y-67845357D01*
X101423809Y-67845357D01*
X101614285Y-67892976D01*
X101709523Y-67940595D01*
X101804761Y-68035833D01*
X101852380Y-68178690D01*
X101852380Y-68416785D01*
X98052380Y-70607261D02*
X98052380Y-70035833D01*
X99052380Y-70321547D02*
X98052380Y-70321547D01*
X98957142Y-69131071D02*
X99004761Y-69178690D01*
X99052380Y-69321547D01*
X99052380Y-69416785D01*
X99004761Y-69559642D01*
X98909523Y-69654880D01*
X98814285Y-69702500D01*
X98623809Y-69750119D01*
X98480952Y-69750119D01*
X98290476Y-69702500D01*
X98195238Y-69654880D01*
X98100000Y-69559642D01*
X98052380Y-69416785D01*
X98052380Y-69321547D01*
X98100000Y-69178690D01*
X98147619Y-69131071D01*
X99052380Y-68702500D02*
X98052380Y-68702500D01*
X99052380Y-68131071D02*
X98480952Y-68559642D01*
X98052380Y-68131071D02*
X98623809Y-68702500D01*
X95452380Y-70607261D02*
X95452380Y-70035833D01*
X96452380Y-70321547D02*
X95452380Y-70321547D01*
X96452380Y-69702500D02*
X95452380Y-69702500D01*
X95452380Y-69464404D01*
X95500000Y-69321547D01*
X95595238Y-69226309D01*
X95690476Y-69178690D01*
X95880952Y-69131071D01*
X96023809Y-69131071D01*
X96214285Y-69178690D01*
X96309523Y-69226309D01*
X96404761Y-69321547D01*
X96452380Y-69464404D01*
X96452380Y-69702500D01*
X95452380Y-68512023D02*
X95452380Y-68321547D01*
X95500000Y-68226309D01*
X95595238Y-68131071D01*
X95785714Y-68083452D01*
X96119047Y-68083452D01*
X96309523Y-68131071D01*
X96404761Y-68226309D01*
X96452380Y-68321547D01*
X96452380Y-68512023D01*
X96404761Y-68607261D01*
X96309523Y-68702500D01*
X96119047Y-68750119D01*
X95785714Y-68750119D01*
X95595238Y-68702500D01*
X95500000Y-68607261D01*
X95452380Y-68512023D01*
X93052380Y-70607261D02*
X93052380Y-70035833D01*
X94052380Y-70321547D02*
X93052380Y-70321547D01*
X94052380Y-69702500D02*
X93052380Y-69702500D01*
X93052380Y-69464404D01*
X93100000Y-69321547D01*
X93195238Y-69226309D01*
X93290476Y-69178690D01*
X93480952Y-69131071D01*
X93623809Y-69131071D01*
X93814285Y-69178690D01*
X93909523Y-69226309D01*
X94004761Y-69321547D01*
X94052380Y-69464404D01*
X94052380Y-69702500D01*
X94052380Y-68702500D02*
X93052380Y-68702500D01*
X90452380Y-70607261D02*
X90452380Y-70035833D01*
X91452380Y-70321547D02*
X90452380Y-70321547D01*
X91452380Y-69702500D02*
X90452380Y-69702500D01*
X91166666Y-69369166D01*
X90452380Y-69035833D01*
X91452380Y-69035833D01*
X91404761Y-68607261D02*
X91452380Y-68464404D01*
X91452380Y-68226309D01*
X91404761Y-68131071D01*
X91357142Y-68083452D01*
X91261904Y-68035833D01*
X91166666Y-68035833D01*
X91071428Y-68083452D01*
X91023809Y-68131071D01*
X90976190Y-68226309D01*
X90928571Y-68416785D01*
X90880952Y-68512023D01*
X90833333Y-68559642D01*
X90738095Y-68607261D01*
X90642857Y-68607261D01*
X90547619Y-68559642D01*
X90500000Y-68512023D01*
X90452380Y-68416785D01*
X90452380Y-68178690D01*
X90500000Y-68035833D01*
X85052380Y-70664404D02*
X84052380Y-70664404D01*
X85052380Y-70092976D01*
X84052380Y-70092976D01*
X85052380Y-69045357D02*
X84576190Y-69378690D01*
X85052380Y-69616785D02*
X84052380Y-69616785D01*
X84052380Y-69235833D01*
X84100000Y-69140595D01*
X84147619Y-69092976D01*
X84242857Y-69045357D01*
X84385714Y-69045357D01*
X84480952Y-69092976D01*
X84528571Y-69140595D01*
X84576190Y-69235833D01*
X84576190Y-69616785D01*
X85004761Y-68664404D02*
X85052380Y-68521547D01*
X85052380Y-68283452D01*
X85004761Y-68188214D01*
X84957142Y-68140595D01*
X84861904Y-68092976D01*
X84766666Y-68092976D01*
X84671428Y-68140595D01*
X84623809Y-68188214D01*
X84576190Y-68283452D01*
X84528571Y-68473928D01*
X84480952Y-68569166D01*
X84433333Y-68616785D01*
X84338095Y-68664404D01*
X84242857Y-68664404D01*
X84147619Y-68616785D01*
X84100000Y-68569166D01*
X84052380Y-68473928D01*
X84052380Y-68235833D01*
X84100000Y-68092976D01*
X84052380Y-67807261D02*
X84052380Y-67235833D01*
X85052380Y-67521547D02*
X84052380Y-67521547D01*
X82404761Y-70712023D02*
X82452380Y-70569166D01*
X82452380Y-70331071D01*
X82404761Y-70235833D01*
X82357142Y-70188214D01*
X82261904Y-70140595D01*
X82166666Y-70140595D01*
X82071428Y-70188214D01*
X82023809Y-70235833D01*
X81976190Y-70331071D01*
X81928571Y-70521547D01*
X81880952Y-70616785D01*
X81833333Y-70664404D01*
X81738095Y-70712023D01*
X81642857Y-70712023D01*
X81547619Y-70664404D01*
X81500000Y-70616785D01*
X81452380Y-70521547D01*
X81452380Y-70283452D01*
X81500000Y-70140595D01*
X81452380Y-69807261D02*
X82452380Y-69569166D01*
X81738095Y-69378690D01*
X82452380Y-69188214D01*
X81452380Y-68950119D01*
X82452380Y-68569166D02*
X81452380Y-68569166D01*
X81452380Y-68331071D01*
X81500000Y-68188214D01*
X81595238Y-68092976D01*
X81690476Y-68045357D01*
X81880952Y-67997738D01*
X82023809Y-67997738D01*
X82214285Y-68045357D01*
X82309523Y-68092976D01*
X82404761Y-68188214D01*
X82452380Y-68331071D01*
X82452380Y-68569166D01*
X82452380Y-67569166D02*
X81452380Y-67569166D01*
X81452380Y-66902500D02*
X81452380Y-66712023D01*
X81500000Y-66616785D01*
X81595238Y-66521547D01*
X81785714Y-66473928D01*
X82119047Y-66473928D01*
X82309523Y-66521547D01*
X82404761Y-66616785D01*
X82452380Y-66712023D01*
X82452380Y-66902500D01*
X82404761Y-66997738D01*
X82309523Y-67092976D01*
X82119047Y-67140595D01*
X81785714Y-67140595D01*
X81595238Y-67092976D01*
X81500000Y-66997738D01*
X81452380Y-66902500D01*
X78300000Y-70140595D02*
X78252380Y-70235833D01*
X78252380Y-70378690D01*
X78300000Y-70521547D01*
X78395238Y-70616785D01*
X78490476Y-70664404D01*
X78680952Y-70712023D01*
X78823809Y-70712023D01*
X79014285Y-70664404D01*
X79109523Y-70616785D01*
X79204761Y-70521547D01*
X79252380Y-70378690D01*
X79252380Y-70283452D01*
X79204761Y-70140595D01*
X79157142Y-70092976D01*
X78823809Y-70092976D01*
X78823809Y-70283452D01*
X79252380Y-69664404D02*
X78252380Y-69664404D01*
X79252380Y-69092976D01*
X78252380Y-69092976D01*
X79252380Y-68616785D02*
X78252380Y-68616785D01*
X78252380Y-68378690D01*
X78300000Y-68235833D01*
X78395238Y-68140595D01*
X78490476Y-68092976D01*
X78680952Y-68045357D01*
X78823809Y-68045357D01*
X79014285Y-68092976D01*
X79109523Y-68140595D01*
X79204761Y-68235833D01*
X79252380Y-68378690D01*
X79252380Y-68616785D01*
X77004761Y-70712023D02*
X77052380Y-70569166D01*
X77052380Y-70331071D01*
X77004761Y-70235833D01*
X76957142Y-70188214D01*
X76861904Y-70140595D01*
X76766666Y-70140595D01*
X76671428Y-70188214D01*
X76623809Y-70235833D01*
X76576190Y-70331071D01*
X76528571Y-70521547D01*
X76480952Y-70616785D01*
X76433333Y-70664404D01*
X76338095Y-70712023D01*
X76242857Y-70712023D01*
X76147619Y-70664404D01*
X76100000Y-70616785D01*
X76052380Y-70521547D01*
X76052380Y-70283452D01*
X76100000Y-70140595D01*
X76052380Y-69807261D02*
X77052380Y-69569166D01*
X76338095Y-69378690D01*
X77052380Y-69188214D01*
X76052380Y-68950119D01*
X76957142Y-67997738D02*
X77004761Y-68045357D01*
X77052380Y-68188214D01*
X77052380Y-68283452D01*
X77004761Y-68426309D01*
X76909523Y-68521547D01*
X76814285Y-68569166D01*
X76623809Y-68616785D01*
X76480952Y-68616785D01*
X76290476Y-68569166D01*
X76195238Y-68521547D01*
X76100000Y-68426309D01*
X76052380Y-68283452D01*
X76052380Y-68188214D01*
X76100000Y-68045357D01*
X76147619Y-67997738D01*
X77052380Y-67092976D02*
X77052380Y-67569166D01*
X76052380Y-67569166D01*
X77052380Y-66759642D02*
X76052380Y-66759642D01*
X77052380Y-66188214D02*
X76480952Y-66616785D01*
X76052380Y-66188214D02*
X76623809Y-66759642D01*
X73852380Y-70759642D02*
X73852380Y-70140595D01*
X74233333Y-70473928D01*
X74233333Y-70331071D01*
X74280952Y-70235833D01*
X74328571Y-70188214D01*
X74423809Y-70140595D01*
X74661904Y-70140595D01*
X74757142Y-70188214D01*
X74804761Y-70235833D01*
X74852380Y-70331071D01*
X74852380Y-70616785D01*
X74804761Y-70712023D01*
X74757142Y-70759642D01*
X73852380Y-69854880D02*
X74852380Y-69521547D01*
X73852380Y-69188214D01*
X73852380Y-68950119D02*
X73852380Y-68331071D01*
X74233333Y-68664404D01*
X74233333Y-68521547D01*
X74280952Y-68426309D01*
X74328571Y-68378690D01*
X74423809Y-68331071D01*
X74661904Y-68331071D01*
X74757142Y-68378690D01*
X74804761Y-68426309D01*
X74852380Y-68521547D01*
X74852380Y-68807261D01*
X74804761Y-68902500D01*
X74757142Y-68950119D01*
X109038095Y-26500000D02*
X108942857Y-26452380D01*
X108800000Y-26452380D01*
X108657142Y-26500000D01*
X108561904Y-26595238D01*
X108514285Y-26690476D01*
X108466666Y-26880952D01*
X108466666Y-27023809D01*
X108514285Y-27214285D01*
X108561904Y-27309523D01*
X108657142Y-27404761D01*
X108800000Y-27452380D01*
X108895238Y-27452380D01*
X109038095Y-27404761D01*
X109085714Y-27357142D01*
X109085714Y-27023809D01*
X108895238Y-27023809D01*
X109514285Y-27452380D02*
X109514285Y-26452380D01*
X110085714Y-27452380D01*
X110085714Y-26452380D01*
X110561904Y-27452380D02*
X110561904Y-26452380D01*
X110800000Y-26452380D01*
X110942857Y-26500000D01*
X111038095Y-26595238D01*
X111085714Y-26690476D01*
X111133333Y-26880952D01*
X111133333Y-27023809D01*
X111085714Y-27214285D01*
X111038095Y-27309523D01*
X110942857Y-27404761D01*
X110800000Y-27452380D01*
X110561904Y-27452380D01*
X96638095Y-26500000D02*
X96542857Y-26452380D01*
X96400000Y-26452380D01*
X96257142Y-26500000D01*
X96161904Y-26595238D01*
X96114285Y-26690476D01*
X96066666Y-26880952D01*
X96066666Y-27023809D01*
X96114285Y-27214285D01*
X96161904Y-27309523D01*
X96257142Y-27404761D01*
X96400000Y-27452380D01*
X96495238Y-27452380D01*
X96638095Y-27404761D01*
X96685714Y-27357142D01*
X96685714Y-27023809D01*
X96495238Y-27023809D01*
X97114285Y-27452380D02*
X97114285Y-26452380D01*
X97685714Y-27452380D01*
X97685714Y-26452380D01*
X98161904Y-27452380D02*
X98161904Y-26452380D01*
X98400000Y-26452380D01*
X98542857Y-26500000D01*
X98638095Y-26595238D01*
X98685714Y-26690476D01*
X98733333Y-26880952D01*
X98733333Y-27023809D01*
X98685714Y-27214285D01*
X98638095Y-27309523D01*
X98542857Y-27404761D01*
X98400000Y-27452380D01*
X98161904Y-27452380D01*
X105409523Y-26452380D02*
X104933333Y-26452380D01*
X104885714Y-26928571D01*
X104933333Y-26880952D01*
X105028571Y-26833333D01*
X105266666Y-26833333D01*
X105361904Y-26880952D01*
X105409523Y-26928571D01*
X105457142Y-27023809D01*
X105457142Y-27261904D01*
X105409523Y-27357142D01*
X105361904Y-27404761D01*
X105266666Y-27452380D01*
X105028571Y-27452380D01*
X104933333Y-27404761D01*
X104885714Y-27357142D01*
X105742857Y-26452380D02*
X106076190Y-27452380D01*
X106409523Y-26452380D01*
X93409523Y-26452380D02*
X92933333Y-26452380D01*
X92885714Y-26928571D01*
X92933333Y-26880952D01*
X93028571Y-26833333D01*
X93266666Y-26833333D01*
X93361904Y-26880952D01*
X93409523Y-26928571D01*
X93457142Y-27023809D01*
X93457142Y-27261904D01*
X93409523Y-27357142D01*
X93361904Y-27404761D01*
X93266666Y-27452380D01*
X93028571Y-27452380D01*
X92933333Y-27404761D01*
X92885714Y-27357142D01*
X93742857Y-26452380D02*
X94076190Y-27452380D01*
X94409523Y-26452380D01*
D12*
%TO.C,P6*%
X119920000Y-28530000D02*
X121250000Y-28530000D01*
X119920000Y-29860000D02*
X119920000Y-28530000D01*
X119920000Y-31130000D02*
X122580000Y-31130000D01*
X122580000Y-31130000D02*
X122580000Y-74370000D01*
X119920000Y-31130000D02*
X119920000Y-74370000D01*
X119920000Y-74370000D02*
X122580000Y-74370000D01*
D10*
%TO.C,U2*%
X62075000Y-39075000D02*
X62075000Y-40050000D01*
X82425000Y-39075000D02*
X82425000Y-40125000D01*
X82425000Y-59425000D02*
X82425000Y-58375000D01*
X62075000Y-59425000D02*
X62075000Y-58375000D01*
X62075000Y-39075000D02*
X63125000Y-39075000D01*
X62075000Y-59425000D02*
X63125000Y-59425000D01*
X82425000Y-59425000D02*
X81375000Y-59425000D01*
X82425000Y-39075000D02*
X81375000Y-39075000D01*
X62075000Y-40050000D02*
X60775000Y-40050000D01*
D12*
%TO.C,C1*%
X52050000Y-52300000D02*
X52050000Y-51300000D01*
X50350000Y-51300000D02*
X50350000Y-52300000D01*
%TO.C,C6*%
X72650000Y-20950000D02*
X72650000Y-26750000D01*
X69350000Y-20950000D02*
X69350000Y-26750000D01*
X72650000Y-20950000D02*
X69350000Y-20950000D01*
%TO.C,C7*%
X54750000Y-57850000D02*
X55750000Y-57850000D01*
X55750000Y-56150000D02*
X54750000Y-56150000D01*
%TO.C,R1*%
X73430000Y-26000000D02*
X73430000Y-24000000D01*
X75570000Y-24000000D02*
X75570000Y-26000000D01*
%TO.C,R5*%
X82130000Y-29850000D02*
X82130000Y-31050000D01*
X80370000Y-31050000D02*
X80370000Y-29850000D01*
%TO.C,R6*%
X82870000Y-31050000D02*
X82870000Y-29850000D01*
X84630000Y-29850000D02*
X84630000Y-31050000D01*
%TO.C,R7*%
X85370000Y-31050000D02*
X85370000Y-29850000D01*
X87130000Y-29850000D02*
X87130000Y-31050000D01*
%TO.C,R8*%
X87870000Y-31050000D02*
X87870000Y-29850000D01*
X89630000Y-29850000D02*
X89630000Y-31050000D01*
%TO.C,R9*%
X26400000Y-49120000D02*
X27600000Y-49120000D01*
X27600000Y-50880000D02*
X26400000Y-50880000D01*
%TO.C,R10*%
X26400000Y-46520000D02*
X27600000Y-46520000D01*
X27600000Y-48280000D02*
X26400000Y-48280000D01*
D10*
%TO.C,U1*%
X65476000Y-23603000D02*
X68651000Y-23603000D01*
X68651000Y-23603000D02*
X68651000Y-21825000D01*
X68651000Y-21825000D02*
X65476000Y-21825000D01*
X65476000Y-28175000D02*
X68651000Y-28175000D01*
X68651000Y-28175000D02*
X68651000Y-26397000D01*
X68651000Y-26397000D02*
X65476000Y-26397000D01*
X59380000Y-21571000D02*
X65476000Y-21571000D01*
X65476000Y-21571000D02*
X65476000Y-28429000D01*
X65476000Y-28429000D02*
X57602000Y-28429000D01*
X57475000Y-28429000D02*
X57475000Y-21571000D01*
X57602000Y-21571000D02*
X59380000Y-21571000D01*
D12*
%TO.C,U3*%
X29130000Y-18130000D02*
X45370000Y-18130000D01*
X45370000Y-18130000D02*
X45370000Y-25750000D01*
X45370000Y-41750000D02*
X45370000Y-42370000D01*
X45370000Y-42370000D02*
X43250000Y-42370000D01*
X31250000Y-42370000D02*
X29130000Y-42370000D01*
X29130000Y-42370000D02*
X29130000Y-41750000D01*
X29130000Y-25750000D02*
X29130000Y-18130000D01*
X29130000Y-25750000D02*
X28520000Y-25750000D01*
D10*
%TO.C,U5*%
X94575000Y-49775000D02*
X93300000Y-49775000D01*
X104925000Y-48825000D02*
X103875000Y-48825000D01*
X104925000Y-59175000D02*
X103875000Y-59175000D01*
X94575000Y-59175000D02*
X95625000Y-59175000D01*
X94575000Y-48825000D02*
X95625000Y-48825000D01*
X94575000Y-59175000D02*
X94575000Y-58125000D01*
X104925000Y-59175000D02*
X104925000Y-58125000D01*
X104925000Y-48825000D02*
X104925000Y-49875000D01*
X94575000Y-48825000D02*
X94575000Y-49775000D01*
D12*
%TO.C,U4*%
X44550000Y-61850000D02*
X44350000Y-61850000D01*
X44550000Y-61850000D02*
X44550000Y-73550000D01*
X22050000Y-59950000D02*
X22050000Y-73550000D01*
X44350000Y-61850000D02*
X44350000Y-59950000D01*
D10*
%TO.C,U6*%
X104925000Y-33075000D02*
X103550000Y-33075000D01*
X104925000Y-41950000D02*
X109075000Y-41950000D01*
X104925000Y-33050000D02*
X109075000Y-33050000D01*
X104925000Y-41950000D02*
X104925000Y-41835000D01*
X109075000Y-41950000D02*
X109075000Y-41835000D01*
X109075000Y-33050000D02*
X109075000Y-33165000D01*
X104925000Y-33050000D02*
X104925000Y-33075000D01*
D12*
%TO.C,LED1*%
X100200000Y-31150000D02*
X97000000Y-31150000D01*
X97000000Y-29650000D02*
X100200000Y-29650000D01*
X97000000Y-29650000D02*
X97000000Y-31150000D01*
%TO.C,LED2*%
X100200000Y-33750000D02*
X97000000Y-33750000D01*
X97000000Y-32250000D02*
X100200000Y-32250000D01*
X97000000Y-32250000D02*
X97000000Y-33750000D01*
%TO.C,LED3*%
X100200000Y-36350000D02*
X97000000Y-36350000D01*
X97000000Y-34850000D02*
X100200000Y-34850000D01*
X97000000Y-34850000D02*
X97000000Y-36350000D01*
%TO.C,LED4*%
X100200000Y-38950000D02*
X97000000Y-38950000D01*
X97000000Y-37450000D02*
X100200000Y-37450000D01*
X97000000Y-37450000D02*
X97000000Y-38950000D01*
%TO.C,R16*%
X92200000Y-29520000D02*
X93400000Y-29520000D01*
X93400000Y-31280000D02*
X92200000Y-31280000D01*
%TO.C,R17*%
X92200000Y-32120000D02*
X93400000Y-32120000D01*
X93400000Y-33880000D02*
X92200000Y-33880000D01*
%TO.C,R18*%
X92200000Y-34720000D02*
X93400000Y-34720000D01*
X93400000Y-36480000D02*
X92200000Y-36480000D01*
%TO.C,R19*%
X92200000Y-37320000D02*
X93400000Y-37320000D01*
X93400000Y-39080000D02*
X92200000Y-39080000D01*
%TO.C,P1*%
X92300000Y-22810000D02*
X102580000Y-22810000D01*
X102580000Y-22810000D02*
X102580000Y-20150000D01*
X102580000Y-20150000D02*
X92300000Y-20150000D01*
X92300000Y-20150000D02*
X92300000Y-22810000D01*
X93250000Y-20150000D02*
X93250000Y-14150000D01*
X93250000Y-14150000D02*
X94010000Y-14150000D01*
X94010000Y-14150000D02*
X94010000Y-20150000D01*
X93310000Y-20150000D02*
X93310000Y-14150000D01*
X93430000Y-20150000D02*
X93430000Y-14150000D01*
X93550000Y-20150000D02*
X93550000Y-14150000D01*
X93670000Y-20150000D02*
X93670000Y-14150000D01*
X93790000Y-20150000D02*
X93790000Y-14150000D01*
X93910000Y-20150000D02*
X93910000Y-14150000D01*
X93250000Y-23140000D02*
X93250000Y-22810000D01*
X94010000Y-23140000D02*
X94010000Y-22810000D01*
X94900000Y-22810000D02*
X94900000Y-20150000D01*
X95790000Y-20150000D02*
X95790000Y-14150000D01*
X95790000Y-14150000D02*
X96550000Y-14150000D01*
X96550000Y-14150000D02*
X96550000Y-20150000D01*
X95790000Y-23207071D02*
X95790000Y-22810000D01*
X96550000Y-23207071D02*
X96550000Y-22810000D01*
X97440000Y-22810000D02*
X97440000Y-20150000D01*
X98330000Y-20150000D02*
X98330000Y-14150000D01*
X98330000Y-14150000D02*
X99090000Y-14150000D01*
X99090000Y-14150000D02*
X99090000Y-20150000D01*
X98330000Y-23207071D02*
X98330000Y-22810000D01*
X99090000Y-23207071D02*
X99090000Y-22810000D01*
X99980000Y-22810000D02*
X99980000Y-20150000D01*
X100870000Y-20150000D02*
X100870000Y-14150000D01*
X100870000Y-14150000D02*
X101630000Y-14150000D01*
X101630000Y-14150000D02*
X101630000Y-20150000D01*
X100870000Y-23207071D02*
X100870000Y-22810000D01*
X101630000Y-23207071D02*
X101630000Y-22810000D01*
X93630000Y-25520000D02*
X92360000Y-25520000D01*
X92360000Y-25520000D02*
X92360000Y-24250000D01*
%TO.C,P2*%
X104550000Y-22810000D02*
X114830000Y-22810000D01*
X114830000Y-22810000D02*
X114830000Y-20150000D01*
X114830000Y-20150000D02*
X104550000Y-20150000D01*
X104550000Y-20150000D02*
X104550000Y-22810000D01*
X105500000Y-20150000D02*
X105500000Y-14150000D01*
X105500000Y-14150000D02*
X106260000Y-14150000D01*
X106260000Y-14150000D02*
X106260000Y-20150000D01*
X105560000Y-20150000D02*
X105560000Y-14150000D01*
X105680000Y-20150000D02*
X105680000Y-14150000D01*
X105800000Y-20150000D02*
X105800000Y-14150000D01*
X105920000Y-20150000D02*
X105920000Y-14150000D01*
X106040000Y-20150000D02*
X106040000Y-14150000D01*
X106160000Y-20150000D02*
X106160000Y-14150000D01*
X105500000Y-23140000D02*
X105500000Y-22810000D01*
X106260000Y-23140000D02*
X106260000Y-22810000D01*
X107150000Y-22810000D02*
X107150000Y-20150000D01*
X108040000Y-20150000D02*
X108040000Y-14150000D01*
X108040000Y-14150000D02*
X108800000Y-14150000D01*
X108800000Y-14150000D02*
X108800000Y-20150000D01*
X108040000Y-23207071D02*
X108040000Y-22810000D01*
X108800000Y-23207071D02*
X108800000Y-22810000D01*
X109690000Y-22810000D02*
X109690000Y-20150000D01*
X110580000Y-20150000D02*
X110580000Y-14150000D01*
X110580000Y-14150000D02*
X111340000Y-14150000D01*
X111340000Y-14150000D02*
X111340000Y-20150000D01*
X110580000Y-23207071D02*
X110580000Y-22810000D01*
X111340000Y-23207071D02*
X111340000Y-22810000D01*
X112230000Y-22810000D02*
X112230000Y-20150000D01*
X113120000Y-20150000D02*
X113120000Y-14150000D01*
X113120000Y-14150000D02*
X113880000Y-14150000D01*
X113880000Y-14150000D02*
X113880000Y-20150000D01*
X113120000Y-23207071D02*
X113120000Y-22810000D01*
X113880000Y-23207071D02*
X113880000Y-22810000D01*
X105880000Y-25520000D02*
X104610000Y-25520000D01*
X104610000Y-25520000D02*
X104610000Y-24250000D01*
%TO.C,P3*%
X23830000Y-29920000D02*
X21170000Y-29920000D01*
X23830000Y-42680000D02*
X23830000Y-29920000D01*
X21170000Y-42680000D02*
X21170000Y-29920000D01*
X23830000Y-42680000D02*
X21170000Y-42680000D01*
X23830000Y-43950000D02*
X23830000Y-45280000D01*
X23830000Y-45280000D02*
X22500000Y-45280000D01*
%TO.C,P4*%
X88330000Y-74080000D02*
X88330000Y-71420000D01*
X75570000Y-74080000D02*
X88330000Y-74080000D01*
X75570000Y-71420000D02*
X88330000Y-71420000D01*
X75570000Y-74080000D02*
X75570000Y-71420000D01*
X74300000Y-74080000D02*
X72970000Y-74080000D01*
X72970000Y-74080000D02*
X72970000Y-72750000D01*
%TO.C,P5*%
X89720000Y-71420000D02*
X89720000Y-74080000D01*
X102480000Y-71420000D02*
X89720000Y-71420000D01*
X102480000Y-74080000D02*
X89720000Y-74080000D01*
X102480000Y-71420000D02*
X102480000Y-74080000D01*
X103750000Y-71420000D02*
X105080000Y-71420000D01*
X105080000Y-71420000D02*
X105080000Y-72750000D01*
%TO.C,P7*%
X123630000Y-31070000D02*
X124960000Y-31070000D01*
X123630000Y-32400000D02*
X123630000Y-31070000D01*
X126230000Y-31070000D02*
X128830000Y-31070000D01*
X126230000Y-33670000D02*
X126230000Y-31070000D01*
X123630000Y-33670000D02*
X126230000Y-33670000D01*
X128830000Y-31070000D02*
X128830000Y-74370000D01*
X123630000Y-33670000D02*
X123630000Y-74370000D01*
X123630000Y-74370000D02*
X128830000Y-74370000D01*
%TO.C,Y1*%
X54850000Y-48650000D02*
X54850000Y-49050000D01*
X54850000Y-49050000D02*
X55650000Y-49050000D01*
X55650000Y-54450000D02*
X54850000Y-54450000D01*
X57050000Y-50850000D02*
X57050000Y-52650000D01*
X53450000Y-52650000D02*
X53450000Y-50850000D01*
X53450000Y-50850000D02*
X53210000Y-50850000D01*
D10*
%TO.C,U7*%
X106725000Y-61585000D02*
X105350000Y-61585000D01*
X106725000Y-70460000D02*
X110875000Y-70460000D01*
X106725000Y-61560000D02*
X110875000Y-61560000D01*
X106725000Y-70460000D02*
X106725000Y-70345000D01*
X110875000Y-70460000D02*
X110875000Y-70345000D01*
X110875000Y-61560000D02*
X110875000Y-61675000D01*
X106725000Y-61560000D02*
X106725000Y-61585000D01*
D12*
%TO.C,D1*%
X77200000Y-27850000D02*
X79200000Y-27850000D01*
X79200000Y-27850000D02*
X79200000Y-23950000D01*
X77200000Y-27850000D02*
X77200000Y-23950000D01*
D10*
%TO.C,C18*%
X58500000Y-30150000D02*
X64000000Y-30150000D01*
X58500000Y-32250000D02*
X64000000Y-32250000D01*
X58500000Y-30150000D02*
X58500000Y-32250000D01*
D12*
%TO.C,J1*%
X80830000Y-24660000D02*
X81210000Y-24660000D01*
X80830000Y-20610000D02*
X80830000Y-20350000D01*
X80830000Y-24660000D02*
X80830000Y-22890000D01*
X89850000Y-24660000D02*
X89470000Y-24660000D01*
X89850000Y-22890000D02*
X89850000Y-24660000D01*
X89850000Y-20350000D02*
X89850000Y-20610000D01*
%TO.C,J2*%
X117370000Y-22810000D02*
X122570000Y-22810000D01*
X122570000Y-22810000D02*
X122570000Y-20150000D01*
X122570000Y-20150000D02*
X117370000Y-20150000D01*
X117370000Y-20150000D02*
X117370000Y-22810000D01*
X118320000Y-20150000D02*
X118320000Y-14150000D01*
X118320000Y-14150000D02*
X119080000Y-14150000D01*
X119080000Y-14150000D02*
X119080000Y-20150000D01*
X118380000Y-20150000D02*
X118380000Y-14150000D01*
X118500000Y-20150000D02*
X118500000Y-14150000D01*
X118620000Y-20150000D02*
X118620000Y-14150000D01*
X118740000Y-20150000D02*
X118740000Y-14150000D01*
X118860000Y-20150000D02*
X118860000Y-14150000D01*
X118980000Y-20150000D02*
X118980000Y-14150000D01*
X118320000Y-23140000D02*
X118320000Y-22810000D01*
X119080000Y-23140000D02*
X119080000Y-22810000D01*
X119970000Y-22810000D02*
X119970000Y-20150000D01*
X120860000Y-20150000D02*
X120860000Y-14150000D01*
X120860000Y-14150000D02*
X121620000Y-14150000D01*
X121620000Y-14150000D02*
X121620000Y-20150000D01*
X120860000Y-23207071D02*
X120860000Y-22810000D01*
X121620000Y-23207071D02*
X121620000Y-22810000D01*
X118700000Y-25520000D02*
X117430000Y-25520000D01*
X117430000Y-25520000D02*
X117430000Y-24250000D01*
D13*
%TO.C,REF\002A\002A*%
G36*
X63755814Y-63468931D02*
X63839635Y-63913555D01*
X64148920Y-64041053D01*
X64458206Y-64168551D01*
X64829246Y-63916246D01*
X64933157Y-63845996D01*
X65027087Y-63783272D01*
X65106652Y-63730938D01*
X65167470Y-63691857D01*
X65205157Y-63668893D01*
X65215421Y-63663942D01*
X65233910Y-63676676D01*
X65273420Y-63711882D01*
X65329522Y-63765062D01*
X65397787Y-63831718D01*
X65473786Y-63907354D01*
X65553092Y-63987472D01*
X65631275Y-64067574D01*
X65703907Y-64143164D01*
X65766559Y-64209745D01*
X65814803Y-64262818D01*
X65844210Y-64297887D01*
X65851241Y-64309623D01*
X65841123Y-64331260D01*
X65812759Y-64378662D01*
X65769129Y-64447193D01*
X65713218Y-64532215D01*
X65648006Y-64629093D01*
X65610219Y-64684350D01*
X65541343Y-64785248D01*
X65480140Y-64876299D01*
X65429578Y-64952970D01*
X65392628Y-65010728D01*
X65372258Y-65045043D01*
X65369197Y-65052254D01*
X65376136Y-65072748D01*
X65395051Y-65120513D01*
X65423087Y-65188832D01*
X65457391Y-65270989D01*
X65495109Y-65360270D01*
X65533387Y-65449958D01*
X65569370Y-65533338D01*
X65600206Y-65603694D01*
X65623039Y-65654310D01*
X65635017Y-65678471D01*
X65635724Y-65679422D01*
X65654531Y-65684036D01*
X65704618Y-65694328D01*
X65780793Y-65709287D01*
X65877865Y-65727901D01*
X65990643Y-65749159D01*
X66056442Y-65761418D01*
X66176950Y-65784362D01*
X66285797Y-65806195D01*
X66377476Y-65825722D01*
X66446481Y-65841748D01*
X66487304Y-65853079D01*
X66495511Y-65856674D01*
X66503548Y-65881006D01*
X66510033Y-65935959D01*
X66514970Y-66015108D01*
X66518364Y-66112026D01*
X66520218Y-66220287D01*
X66520538Y-66333465D01*
X66519327Y-66445135D01*
X66516590Y-66548868D01*
X66512331Y-66638241D01*
X66506555Y-66706826D01*
X66499267Y-66748197D01*
X66494895Y-66756810D01*
X66468764Y-66767133D01*
X66413393Y-66781892D01*
X66336107Y-66799352D01*
X66244230Y-66817780D01*
X66212158Y-66823741D01*
X66057524Y-66852066D01*
X65935375Y-66874876D01*
X65841673Y-66893080D01*
X65772384Y-66907583D01*
X65723471Y-66919292D01*
X65690897Y-66929115D01*
X65670628Y-66937956D01*
X65658626Y-66946724D01*
X65656947Y-66948457D01*
X65640184Y-66976371D01*
X65614614Y-67030695D01*
X65582788Y-67104777D01*
X65547260Y-67191965D01*
X65510583Y-67285608D01*
X65475311Y-67379052D01*
X65443996Y-67465647D01*
X65419193Y-67538740D01*
X65403454Y-67591678D01*
X65399332Y-67617811D01*
X65399676Y-67618726D01*
X65413641Y-67640086D01*
X65445322Y-67687084D01*
X65491391Y-67754827D01*
X65548518Y-67838423D01*
X65613373Y-67932982D01*
X65631843Y-67959854D01*
X65697699Y-68057275D01*
X65755650Y-68146163D01*
X65802538Y-68221412D01*
X65835207Y-68277920D01*
X65850500Y-68310581D01*
X65851241Y-68314593D01*
X65838392Y-68335684D01*
X65802888Y-68377464D01*
X65749293Y-68435445D01*
X65682171Y-68505135D01*
X65606087Y-68582045D01*
X65525604Y-68661683D01*
X65445287Y-68739561D01*
X65369699Y-68811186D01*
X65303405Y-68872070D01*
X65250969Y-68917721D01*
X65216955Y-68943650D01*
X65207545Y-68947883D01*
X65185643Y-68937912D01*
X65140800Y-68911020D01*
X65080321Y-68871736D01*
X65033789Y-68840117D01*
X64949475Y-68782098D01*
X64849626Y-68713784D01*
X64749473Y-68645579D01*
X64695627Y-68609075D01*
X64513371Y-68485800D01*
X64360381Y-68568520D01*
X64290682Y-68604759D01*
X64231414Y-68632926D01*
X64191311Y-68648991D01*
X64181103Y-68651226D01*
X64168829Y-68634722D01*
X64144613Y-68588082D01*
X64110263Y-68515609D01*
X64067588Y-68421606D01*
X64018394Y-68310374D01*
X63964490Y-68186215D01*
X63907684Y-68053432D01*
X63849782Y-67916327D01*
X63792593Y-67779202D01*
X63737924Y-67646358D01*
X63687584Y-67522098D01*
X63643380Y-67410725D01*
X63607119Y-67316539D01*
X63580609Y-67243844D01*
X63565658Y-67196941D01*
X63563254Y-67180833D01*
X63582311Y-67160286D01*
X63624036Y-67126933D01*
X63679706Y-67087702D01*
X63684378Y-67084599D01*
X63828264Y-66969423D01*
X63944283Y-66835053D01*
X64031430Y-66685784D01*
X64088699Y-66525913D01*
X64115086Y-66359737D01*
X64109585Y-66191552D01*
X64071190Y-66025655D01*
X63998895Y-65866342D01*
X63977626Y-65831487D01*
X63866996Y-65690737D01*
X63736302Y-65577714D01*
X63590064Y-65493003D01*
X63432808Y-65437194D01*
X63269057Y-65410874D01*
X63103333Y-65414630D01*
X62940162Y-65449050D01*
X62784065Y-65514723D01*
X62639567Y-65612235D01*
X62594869Y-65651813D01*
X62481112Y-65775703D01*
X62398218Y-65906124D01*
X62341356Y-66052315D01*
X62309687Y-66197088D01*
X62301869Y-66359860D01*
X62327938Y-66523440D01*
X62385245Y-66682298D01*
X62471144Y-66830906D01*
X62582986Y-66963735D01*
X62718123Y-67075256D01*
X62735883Y-67087011D01*
X62792150Y-67125508D01*
X62834923Y-67158863D01*
X62855372Y-67180160D01*
X62855669Y-67180833D01*
X62851279Y-67203871D01*
X62833876Y-67256157D01*
X62805268Y-67333390D01*
X62767265Y-67431268D01*
X62721674Y-67545491D01*
X62670303Y-67671758D01*
X62614962Y-67805767D01*
X62557458Y-67943218D01*
X62499601Y-68079808D01*
X62443198Y-68211237D01*
X62390058Y-68333205D01*
X62341990Y-68441409D01*
X62300801Y-68531549D01*
X62268301Y-68599323D01*
X62246297Y-68640430D01*
X62237436Y-68651226D01*
X62210360Y-68642819D01*
X62159697Y-68620272D01*
X62094183Y-68587613D01*
X62058159Y-68568520D01*
X61905168Y-68485800D01*
X61722912Y-68609075D01*
X61629875Y-68672228D01*
X61528015Y-68741727D01*
X61432562Y-68807165D01*
X61384750Y-68840117D01*
X61317505Y-68885273D01*
X61260564Y-68921057D01*
X61221354Y-68942938D01*
X61208619Y-68947563D01*
X61190083Y-68935085D01*
X61149059Y-68900252D01*
X61089525Y-68846678D01*
X61015458Y-68777983D01*
X60930835Y-68697781D01*
X60877315Y-68646286D01*
X60783681Y-68554286D01*
X60702759Y-68471999D01*
X60637823Y-68402945D01*
X60592142Y-68350644D01*
X60568989Y-68318616D01*
X60566768Y-68312116D01*
X60577076Y-68287394D01*
X60605561Y-68237405D01*
X60649063Y-68167212D01*
X60704423Y-68081875D01*
X60768480Y-67986456D01*
X60786697Y-67959854D01*
X60853073Y-67863167D01*
X60912622Y-67776117D01*
X60962016Y-67703595D01*
X60997925Y-67650493D01*
X61017019Y-67621703D01*
X61018864Y-67618726D01*
X61016105Y-67595782D01*
X61001462Y-67545336D01*
X60977487Y-67474041D01*
X60946734Y-67388547D01*
X60911756Y-67295507D01*
X60875107Y-67201574D01*
X60839339Y-67113399D01*
X60807006Y-67037634D01*
X60780662Y-66980931D01*
X60762858Y-66949943D01*
X60761593Y-66948457D01*
X60750706Y-66939601D01*
X60732318Y-66930843D01*
X60702394Y-66921277D01*
X60656897Y-66909996D01*
X60591791Y-66896093D01*
X60503039Y-66878663D01*
X60386607Y-66856798D01*
X60238458Y-66829591D01*
X60206382Y-66823741D01*
X60111314Y-66805374D01*
X60028435Y-66787405D01*
X59965070Y-66771569D01*
X59928542Y-66759600D01*
X59923644Y-66756810D01*
X59915573Y-66732072D01*
X59909013Y-66676790D01*
X59903967Y-66597389D01*
X59900441Y-66500296D01*
X59898439Y-66391938D01*
X59897964Y-66278740D01*
X59899023Y-66167128D01*
X59901618Y-66063529D01*
X59905754Y-65974368D01*
X59911437Y-65906072D01*
X59918669Y-65865066D01*
X59923029Y-65856674D01*
X59947302Y-65848208D01*
X60002574Y-65834435D01*
X60083338Y-65816550D01*
X60184088Y-65795748D01*
X60299317Y-65773223D01*
X60362098Y-65761418D01*
X60481213Y-65739151D01*
X60587435Y-65718979D01*
X60675573Y-65701915D01*
X60740434Y-65688969D01*
X60776826Y-65681155D01*
X60782816Y-65679422D01*
X60792939Y-65659890D01*
X60814338Y-65612843D01*
X60844161Y-65545003D01*
X60879555Y-65463091D01*
X60917668Y-65373828D01*
X60955647Y-65283935D01*
X60990640Y-65200135D01*
X61019794Y-65129147D01*
X61040257Y-65077694D01*
X61049177Y-65052497D01*
X61049343Y-65051396D01*
X61039231Y-65031519D01*
X61010883Y-64985777D01*
X60967277Y-64918717D01*
X60911394Y-64834884D01*
X60846213Y-64738826D01*
X60808321Y-64683650D01*
X60739275Y-64582481D01*
X60677950Y-64490630D01*
X60627337Y-64412744D01*
X60590429Y-64353469D01*
X60570218Y-64317451D01*
X60567299Y-64309377D01*
X60579847Y-64290584D01*
X60614537Y-64250457D01*
X60666937Y-64193493D01*
X60732616Y-64124185D01*
X60807144Y-64047031D01*
X60886087Y-63966525D01*
X60965017Y-63887163D01*
X61039500Y-63813440D01*
X61105106Y-63749852D01*
X61157404Y-63700894D01*
X61191961Y-63671061D01*
X61203522Y-63663942D01*
X61222346Y-63673953D01*
X61267369Y-63702078D01*
X61334213Y-63745454D01*
X61418501Y-63801218D01*
X61515856Y-63866506D01*
X61589293Y-63916246D01*
X61960333Y-64168551D01*
X62578905Y-63913555D01*
X62662725Y-63468931D01*
X62746546Y-63024307D01*
X63671994Y-63024307D01*
X63755814Y-63468931D01*
X63755814Y-63468931D01*
G37*
X63755814Y-63468931D02*
X63839635Y-63913555D01*
X64148920Y-64041053D01*
X64458206Y-64168551D01*
X64829246Y-63916246D01*
X64933157Y-63845996D01*
X65027087Y-63783272D01*
X65106652Y-63730938D01*
X65167470Y-63691857D01*
X65205157Y-63668893D01*
X65215421Y-63663942D01*
X65233910Y-63676676D01*
X65273420Y-63711882D01*
X65329522Y-63765062D01*
X65397787Y-63831718D01*
X65473786Y-63907354D01*
X65553092Y-63987472D01*
X65631275Y-64067574D01*
X65703907Y-64143164D01*
X65766559Y-64209745D01*
X65814803Y-64262818D01*
X65844210Y-64297887D01*
X65851241Y-64309623D01*
X65841123Y-64331260D01*
X65812759Y-64378662D01*
X65769129Y-64447193D01*
X65713218Y-64532215D01*
X65648006Y-64629093D01*
X65610219Y-64684350D01*
X65541343Y-64785248D01*
X65480140Y-64876299D01*
X65429578Y-64952970D01*
X65392628Y-65010728D01*
X65372258Y-65045043D01*
X65369197Y-65052254D01*
X65376136Y-65072748D01*
X65395051Y-65120513D01*
X65423087Y-65188832D01*
X65457391Y-65270989D01*
X65495109Y-65360270D01*
X65533387Y-65449958D01*
X65569370Y-65533338D01*
X65600206Y-65603694D01*
X65623039Y-65654310D01*
X65635017Y-65678471D01*
X65635724Y-65679422D01*
X65654531Y-65684036D01*
X65704618Y-65694328D01*
X65780793Y-65709287D01*
X65877865Y-65727901D01*
X65990643Y-65749159D01*
X66056442Y-65761418D01*
X66176950Y-65784362D01*
X66285797Y-65806195D01*
X66377476Y-65825722D01*
X66446481Y-65841748D01*
X66487304Y-65853079D01*
X66495511Y-65856674D01*
X66503548Y-65881006D01*
X66510033Y-65935959D01*
X66514970Y-66015108D01*
X66518364Y-66112026D01*
X66520218Y-66220287D01*
X66520538Y-66333465D01*
X66519327Y-66445135D01*
X66516590Y-66548868D01*
X66512331Y-66638241D01*
X66506555Y-66706826D01*
X66499267Y-66748197D01*
X66494895Y-66756810D01*
X66468764Y-66767133D01*
X66413393Y-66781892D01*
X66336107Y-66799352D01*
X66244230Y-66817780D01*
X66212158Y-66823741D01*
X66057524Y-66852066D01*
X65935375Y-66874876D01*
X65841673Y-66893080D01*
X65772384Y-66907583D01*
X65723471Y-66919292D01*
X65690897Y-66929115D01*
X65670628Y-66937956D01*
X65658626Y-66946724D01*
X65656947Y-66948457D01*
X65640184Y-66976371D01*
X65614614Y-67030695D01*
X65582788Y-67104777D01*
X65547260Y-67191965D01*
X65510583Y-67285608D01*
X65475311Y-67379052D01*
X65443996Y-67465647D01*
X65419193Y-67538740D01*
X65403454Y-67591678D01*
X65399332Y-67617811D01*
X65399676Y-67618726D01*
X65413641Y-67640086D01*
X65445322Y-67687084D01*
X65491391Y-67754827D01*
X65548518Y-67838423D01*
X65613373Y-67932982D01*
X65631843Y-67959854D01*
X65697699Y-68057275D01*
X65755650Y-68146163D01*
X65802538Y-68221412D01*
X65835207Y-68277920D01*
X65850500Y-68310581D01*
X65851241Y-68314593D01*
X65838392Y-68335684D01*
X65802888Y-68377464D01*
X65749293Y-68435445D01*
X65682171Y-68505135D01*
X65606087Y-68582045D01*
X65525604Y-68661683D01*
X65445287Y-68739561D01*
X65369699Y-68811186D01*
X65303405Y-68872070D01*
X65250969Y-68917721D01*
X65216955Y-68943650D01*
X65207545Y-68947883D01*
X65185643Y-68937912D01*
X65140800Y-68911020D01*
X65080321Y-68871736D01*
X65033789Y-68840117D01*
X64949475Y-68782098D01*
X64849626Y-68713784D01*
X64749473Y-68645579D01*
X64695627Y-68609075D01*
X64513371Y-68485800D01*
X64360381Y-68568520D01*
X64290682Y-68604759D01*
X64231414Y-68632926D01*
X64191311Y-68648991D01*
X64181103Y-68651226D01*
X64168829Y-68634722D01*
X64144613Y-68588082D01*
X64110263Y-68515609D01*
X64067588Y-68421606D01*
X64018394Y-68310374D01*
X63964490Y-68186215D01*
X63907684Y-68053432D01*
X63849782Y-67916327D01*
X63792593Y-67779202D01*
X63737924Y-67646358D01*
X63687584Y-67522098D01*
X63643380Y-67410725D01*
X63607119Y-67316539D01*
X63580609Y-67243844D01*
X63565658Y-67196941D01*
X63563254Y-67180833D01*
X63582311Y-67160286D01*
X63624036Y-67126933D01*
X63679706Y-67087702D01*
X63684378Y-67084599D01*
X63828264Y-66969423D01*
X63944283Y-66835053D01*
X64031430Y-66685784D01*
X64088699Y-66525913D01*
X64115086Y-66359737D01*
X64109585Y-66191552D01*
X64071190Y-66025655D01*
X63998895Y-65866342D01*
X63977626Y-65831487D01*
X63866996Y-65690737D01*
X63736302Y-65577714D01*
X63590064Y-65493003D01*
X63432808Y-65437194D01*
X63269057Y-65410874D01*
X63103333Y-65414630D01*
X62940162Y-65449050D01*
X62784065Y-65514723D01*
X62639567Y-65612235D01*
X62594869Y-65651813D01*
X62481112Y-65775703D01*
X62398218Y-65906124D01*
X62341356Y-66052315D01*
X62309687Y-66197088D01*
X62301869Y-66359860D01*
X62327938Y-66523440D01*
X62385245Y-66682298D01*
X62471144Y-66830906D01*
X62582986Y-66963735D01*
X62718123Y-67075256D01*
X62735883Y-67087011D01*
X62792150Y-67125508D01*
X62834923Y-67158863D01*
X62855372Y-67180160D01*
X62855669Y-67180833D01*
X62851279Y-67203871D01*
X62833876Y-67256157D01*
X62805268Y-67333390D01*
X62767265Y-67431268D01*
X62721674Y-67545491D01*
X62670303Y-67671758D01*
X62614962Y-67805767D01*
X62557458Y-67943218D01*
X62499601Y-68079808D01*
X62443198Y-68211237D01*
X62390058Y-68333205D01*
X62341990Y-68441409D01*
X62300801Y-68531549D01*
X62268301Y-68599323D01*
X62246297Y-68640430D01*
X62237436Y-68651226D01*
X62210360Y-68642819D01*
X62159697Y-68620272D01*
X62094183Y-68587613D01*
X62058159Y-68568520D01*
X61905168Y-68485800D01*
X61722912Y-68609075D01*
X61629875Y-68672228D01*
X61528015Y-68741727D01*
X61432562Y-68807165D01*
X61384750Y-68840117D01*
X61317505Y-68885273D01*
X61260564Y-68921057D01*
X61221354Y-68942938D01*
X61208619Y-68947563D01*
X61190083Y-68935085D01*
X61149059Y-68900252D01*
X61089525Y-68846678D01*
X61015458Y-68777983D01*
X60930835Y-68697781D01*
X60877315Y-68646286D01*
X60783681Y-68554286D01*
X60702759Y-68471999D01*
X60637823Y-68402945D01*
X60592142Y-68350644D01*
X60568989Y-68318616D01*
X60566768Y-68312116D01*
X60577076Y-68287394D01*
X60605561Y-68237405D01*
X60649063Y-68167212D01*
X60704423Y-68081875D01*
X60768480Y-67986456D01*
X60786697Y-67959854D01*
X60853073Y-67863167D01*
X60912622Y-67776117D01*
X60962016Y-67703595D01*
X60997925Y-67650493D01*
X61017019Y-67621703D01*
X61018864Y-67618726D01*
X61016105Y-67595782D01*
X61001462Y-67545336D01*
X60977487Y-67474041D01*
X60946734Y-67388547D01*
X60911756Y-67295507D01*
X60875107Y-67201574D01*
X60839339Y-67113399D01*
X60807006Y-67037634D01*
X60780662Y-66980931D01*
X60762858Y-66949943D01*
X60761593Y-66948457D01*
X60750706Y-66939601D01*
X60732318Y-66930843D01*
X60702394Y-66921277D01*
X60656897Y-66909996D01*
X60591791Y-66896093D01*
X60503039Y-66878663D01*
X60386607Y-66856798D01*
X60238458Y-66829591D01*
X60206382Y-66823741D01*
X60111314Y-66805374D01*
X60028435Y-66787405D01*
X59965070Y-66771569D01*
X59928542Y-66759600D01*
X59923644Y-66756810D01*
X59915573Y-66732072D01*
X59909013Y-66676790D01*
X59903967Y-66597389D01*
X59900441Y-66500296D01*
X59898439Y-66391938D01*
X59897964Y-66278740D01*
X59899023Y-66167128D01*
X59901618Y-66063529D01*
X59905754Y-65974368D01*
X59911437Y-65906072D01*
X59918669Y-65865066D01*
X59923029Y-65856674D01*
X59947302Y-65848208D01*
X60002574Y-65834435D01*
X60083338Y-65816550D01*
X60184088Y-65795748D01*
X60299317Y-65773223D01*
X60362098Y-65761418D01*
X60481213Y-65739151D01*
X60587435Y-65718979D01*
X60675573Y-65701915D01*
X60740434Y-65688969D01*
X60776826Y-65681155D01*
X60782816Y-65679422D01*
X60792939Y-65659890D01*
X60814338Y-65612843D01*
X60844161Y-65545003D01*
X60879555Y-65463091D01*
X60917668Y-65373828D01*
X60955647Y-65283935D01*
X60990640Y-65200135D01*
X61019794Y-65129147D01*
X61040257Y-65077694D01*
X61049177Y-65052497D01*
X61049343Y-65051396D01*
X61039231Y-65031519D01*
X61010883Y-64985777D01*
X60967277Y-64918717D01*
X60911394Y-64834884D01*
X60846213Y-64738826D01*
X60808321Y-64683650D01*
X60739275Y-64582481D01*
X60677950Y-64490630D01*
X60627337Y-64412744D01*
X60590429Y-64353469D01*
X60570218Y-64317451D01*
X60567299Y-64309377D01*
X60579847Y-64290584D01*
X60614537Y-64250457D01*
X60666937Y-64193493D01*
X60732616Y-64124185D01*
X60807144Y-64047031D01*
X60886087Y-63966525D01*
X60965017Y-63887163D01*
X61039500Y-63813440D01*
X61105106Y-63749852D01*
X61157404Y-63700894D01*
X61191961Y-63671061D01*
X61203522Y-63663942D01*
X61222346Y-63673953D01*
X61267369Y-63702078D01*
X61334213Y-63745454D01*
X61418501Y-63801218D01*
X61515856Y-63866506D01*
X61589293Y-63916246D01*
X61960333Y-64168551D01*
X62578905Y-63913555D01*
X62662725Y-63468931D01*
X62746546Y-63024307D01*
X63671994Y-63024307D01*
X63755814Y-63468931D01*
%TO.C,P6*%
D10*
X120511904Y-27982380D02*
X120511904Y-26982380D01*
X120892857Y-26982380D01*
X120988095Y-27030000D01*
X121035714Y-27077619D01*
X121083333Y-27172857D01*
X121083333Y-27315714D01*
X121035714Y-27410952D01*
X120988095Y-27458571D01*
X120892857Y-27506190D01*
X120511904Y-27506190D01*
X121940476Y-26982380D02*
X121750000Y-26982380D01*
X121654761Y-27030000D01*
X121607142Y-27077619D01*
X121511904Y-27220476D01*
X121464285Y-27410952D01*
X121464285Y-27791904D01*
X121511904Y-27887142D01*
X121559523Y-27934761D01*
X121654761Y-27982380D01*
X121845238Y-27982380D01*
X121940476Y-27934761D01*
X121988095Y-27887142D01*
X122035714Y-27791904D01*
X122035714Y-27553809D01*
X121988095Y-27458571D01*
X121940476Y-27410952D01*
X121845238Y-27363333D01*
X121654761Y-27363333D01*
X121559523Y-27410952D01*
X121511904Y-27458571D01*
X121464285Y-27553809D01*
%TO.C,U2*%
X60438095Y-37452380D02*
X60438095Y-38261904D01*
X60485714Y-38357142D01*
X60533333Y-38404761D01*
X60628571Y-38452380D01*
X60819047Y-38452380D01*
X60914285Y-38404761D01*
X60961904Y-38357142D01*
X61009523Y-38261904D01*
X61009523Y-37452380D01*
X61438095Y-37547619D02*
X61485714Y-37500000D01*
X61580952Y-37452380D01*
X61819047Y-37452380D01*
X61914285Y-37500000D01*
X61961904Y-37547619D01*
X62009523Y-37642857D01*
X62009523Y-37738095D01*
X61961904Y-37880952D01*
X61390476Y-38452380D01*
X62009523Y-38452380D01*
%TO.C,C1*%
X49233333Y-52157142D02*
X49185714Y-52204761D01*
X49042857Y-52252380D01*
X48947619Y-52252380D01*
X48804761Y-52204761D01*
X48709523Y-52109523D01*
X48661904Y-52014285D01*
X48614285Y-51823809D01*
X48614285Y-51680952D01*
X48661904Y-51490476D01*
X48709523Y-51395238D01*
X48804761Y-51300000D01*
X48947619Y-51252380D01*
X49042857Y-51252380D01*
X49185714Y-51300000D01*
X49233333Y-51347619D01*
X50185714Y-52252380D02*
X49614285Y-52252380D01*
X49900000Y-52252380D02*
X49900000Y-51252380D01*
X49804761Y-51395238D01*
X49709523Y-51490476D01*
X49614285Y-51538095D01*
%TO.C,C6*%
X70833333Y-30357142D02*
X70785714Y-30404761D01*
X70642857Y-30452380D01*
X70547619Y-30452380D01*
X70404761Y-30404761D01*
X70309523Y-30309523D01*
X70261904Y-30214285D01*
X70214285Y-30023809D01*
X70214285Y-29880952D01*
X70261904Y-29690476D01*
X70309523Y-29595238D01*
X70404761Y-29500000D01*
X70547619Y-29452380D01*
X70642857Y-29452380D01*
X70785714Y-29500000D01*
X70833333Y-29547619D01*
X71690476Y-29452380D02*
X71500000Y-29452380D01*
X71404761Y-29500000D01*
X71357142Y-29547619D01*
X71261904Y-29690476D01*
X71214285Y-29880952D01*
X71214285Y-30261904D01*
X71261904Y-30357142D01*
X71309523Y-30404761D01*
X71404761Y-30452380D01*
X71595238Y-30452380D01*
X71690476Y-30404761D01*
X71738095Y-30357142D01*
X71785714Y-30261904D01*
X71785714Y-30023809D01*
X71738095Y-29928571D01*
X71690476Y-29880952D01*
X71595238Y-29833333D01*
X71404761Y-29833333D01*
X71309523Y-29880952D01*
X71261904Y-29928571D01*
X71214285Y-30023809D01*
%TO.C,C7*%
X55083333Y-59107142D02*
X55035714Y-59154761D01*
X54892857Y-59202380D01*
X54797619Y-59202380D01*
X54654761Y-59154761D01*
X54559523Y-59059523D01*
X54511904Y-58964285D01*
X54464285Y-58773809D01*
X54464285Y-58630952D01*
X54511904Y-58440476D01*
X54559523Y-58345238D01*
X54654761Y-58250000D01*
X54797619Y-58202380D01*
X54892857Y-58202380D01*
X55035714Y-58250000D01*
X55083333Y-58297619D01*
X55416666Y-58202380D02*
X56083333Y-58202380D01*
X55654761Y-59202380D01*
%TO.C,R1*%
X74333333Y-31452380D02*
X74000000Y-30976190D01*
X73761904Y-31452380D02*
X73761904Y-30452380D01*
X74142857Y-30452380D01*
X74238095Y-30500000D01*
X74285714Y-30547619D01*
X74333333Y-30642857D01*
X74333333Y-30785714D01*
X74285714Y-30880952D01*
X74238095Y-30928571D01*
X74142857Y-30976190D01*
X73761904Y-30976190D01*
X75285714Y-31452380D02*
X74714285Y-31452380D01*
X75000000Y-31452380D02*
X75000000Y-30452380D01*
X74904761Y-30595238D01*
X74809523Y-30690476D01*
X74714285Y-30738095D01*
%TO.C,R5*%
X81033333Y-34052380D02*
X80700000Y-33576190D01*
X80461904Y-34052380D02*
X80461904Y-33052380D01*
X80842857Y-33052380D01*
X80938095Y-33100000D01*
X80985714Y-33147619D01*
X81033333Y-33242857D01*
X81033333Y-33385714D01*
X80985714Y-33480952D01*
X80938095Y-33528571D01*
X80842857Y-33576190D01*
X80461904Y-33576190D01*
X81938095Y-33052380D02*
X81461904Y-33052380D01*
X81414285Y-33528571D01*
X81461904Y-33480952D01*
X81557142Y-33433333D01*
X81795238Y-33433333D01*
X81890476Y-33480952D01*
X81938095Y-33528571D01*
X81985714Y-33623809D01*
X81985714Y-33861904D01*
X81938095Y-33957142D01*
X81890476Y-34004761D01*
X81795238Y-34052380D01*
X81557142Y-34052380D01*
X81461904Y-34004761D01*
X81414285Y-33957142D01*
%TO.C,R6*%
X83333333Y-34752380D02*
X83000000Y-34276190D01*
X82761904Y-34752380D02*
X82761904Y-33752380D01*
X83142857Y-33752380D01*
X83238095Y-33800000D01*
X83285714Y-33847619D01*
X83333333Y-33942857D01*
X83333333Y-34085714D01*
X83285714Y-34180952D01*
X83238095Y-34228571D01*
X83142857Y-34276190D01*
X82761904Y-34276190D01*
X84190476Y-33752380D02*
X84000000Y-33752380D01*
X83904761Y-33800000D01*
X83857142Y-33847619D01*
X83761904Y-33990476D01*
X83714285Y-34180952D01*
X83714285Y-34561904D01*
X83761904Y-34657142D01*
X83809523Y-34704761D01*
X83904761Y-34752380D01*
X84095238Y-34752380D01*
X84190476Y-34704761D01*
X84238095Y-34657142D01*
X84285714Y-34561904D01*
X84285714Y-34323809D01*
X84238095Y-34228571D01*
X84190476Y-34180952D01*
X84095238Y-34133333D01*
X83904761Y-34133333D01*
X83809523Y-34180952D01*
X83761904Y-34228571D01*
X83714285Y-34323809D01*
%TO.C,R7*%
X86033333Y-34252380D02*
X85700000Y-33776190D01*
X85461904Y-34252380D02*
X85461904Y-33252380D01*
X85842857Y-33252380D01*
X85938095Y-33300000D01*
X85985714Y-33347619D01*
X86033333Y-33442857D01*
X86033333Y-33585714D01*
X85985714Y-33680952D01*
X85938095Y-33728571D01*
X85842857Y-33776190D01*
X85461904Y-33776190D01*
X86366666Y-33252380D02*
X87033333Y-33252380D01*
X86604761Y-34252380D01*
%TO.C,R8*%
X88533333Y-34252380D02*
X88200000Y-33776190D01*
X87961904Y-34252380D02*
X87961904Y-33252380D01*
X88342857Y-33252380D01*
X88438095Y-33300000D01*
X88485714Y-33347619D01*
X88533333Y-33442857D01*
X88533333Y-33585714D01*
X88485714Y-33680952D01*
X88438095Y-33728571D01*
X88342857Y-33776190D01*
X87961904Y-33776190D01*
X89104761Y-33680952D02*
X89009523Y-33633333D01*
X88961904Y-33585714D01*
X88914285Y-33490476D01*
X88914285Y-33442857D01*
X88961904Y-33347619D01*
X89009523Y-33300000D01*
X89104761Y-33252380D01*
X89295238Y-33252380D01*
X89390476Y-33300000D01*
X89438095Y-33347619D01*
X89485714Y-33442857D01*
X89485714Y-33490476D01*
X89438095Y-33585714D01*
X89390476Y-33633333D01*
X89295238Y-33680952D01*
X89104761Y-33680952D01*
X89009523Y-33728571D01*
X88961904Y-33776190D01*
X88914285Y-33871428D01*
X88914285Y-34061904D01*
X88961904Y-34157142D01*
X89009523Y-34204761D01*
X89104761Y-34252380D01*
X89295238Y-34252380D01*
X89390476Y-34204761D01*
X89438095Y-34157142D01*
X89485714Y-34061904D01*
X89485714Y-33871428D01*
X89438095Y-33776190D01*
X89390476Y-33728571D01*
X89295238Y-33680952D01*
%TO.C,R9*%
X30183333Y-50452380D02*
X29850000Y-49976190D01*
X29611904Y-50452380D02*
X29611904Y-49452380D01*
X29992857Y-49452380D01*
X30088095Y-49500000D01*
X30135714Y-49547619D01*
X30183333Y-49642857D01*
X30183333Y-49785714D01*
X30135714Y-49880952D01*
X30088095Y-49928571D01*
X29992857Y-49976190D01*
X29611904Y-49976190D01*
X30659523Y-50452380D02*
X30850000Y-50452380D01*
X30945238Y-50404761D01*
X30992857Y-50357142D01*
X31088095Y-50214285D01*
X31135714Y-50023809D01*
X31135714Y-49642857D01*
X31088095Y-49547619D01*
X31040476Y-49500000D01*
X30945238Y-49452380D01*
X30754761Y-49452380D01*
X30659523Y-49500000D01*
X30611904Y-49547619D01*
X30564285Y-49642857D01*
X30564285Y-49880952D01*
X30611904Y-49976190D01*
X30659523Y-50023809D01*
X30754761Y-50071428D01*
X30945238Y-50071428D01*
X31040476Y-50023809D01*
X31088095Y-49976190D01*
X31135714Y-49880952D01*
%TO.C,R10*%
X30457142Y-47852380D02*
X30123809Y-47376190D01*
X29885714Y-47852380D02*
X29885714Y-46852380D01*
X30266666Y-46852380D01*
X30361904Y-46900000D01*
X30409523Y-46947619D01*
X30457142Y-47042857D01*
X30457142Y-47185714D01*
X30409523Y-47280952D01*
X30361904Y-47328571D01*
X30266666Y-47376190D01*
X29885714Y-47376190D01*
X31409523Y-47852380D02*
X30838095Y-47852380D01*
X31123809Y-47852380D02*
X31123809Y-46852380D01*
X31028571Y-46995238D01*
X30933333Y-47090476D01*
X30838095Y-47138095D01*
X32028571Y-46852380D02*
X32123809Y-46852380D01*
X32219047Y-46900000D01*
X32266666Y-46947619D01*
X32314285Y-47042857D01*
X32361904Y-47233333D01*
X32361904Y-47471428D01*
X32314285Y-47661904D01*
X32266666Y-47757142D01*
X32219047Y-47804761D01*
X32123809Y-47852380D01*
X32028571Y-47852380D01*
X31933333Y-47804761D01*
X31885714Y-47757142D01*
X31838095Y-47661904D01*
X31790476Y-47471428D01*
X31790476Y-47233333D01*
X31838095Y-47042857D01*
X31885714Y-46947619D01*
X31933333Y-46900000D01*
X32028571Y-46852380D01*
%TO.C,U1*%
X55638095Y-24452380D02*
X55638095Y-25261904D01*
X55685714Y-25357142D01*
X55733333Y-25404761D01*
X55828571Y-25452380D01*
X56019047Y-25452380D01*
X56114285Y-25404761D01*
X56161904Y-25357142D01*
X56209523Y-25261904D01*
X56209523Y-24452380D01*
X57209523Y-25452380D02*
X56638095Y-25452380D01*
X56923809Y-25452380D02*
X56923809Y-24452380D01*
X56828571Y-24595238D01*
X56733333Y-24690476D01*
X56638095Y-24738095D01*
%TO.C,U3*%
X46638095Y-26252380D02*
X46638095Y-27061904D01*
X46685714Y-27157142D01*
X46733333Y-27204761D01*
X46828571Y-27252380D01*
X47019047Y-27252380D01*
X47114285Y-27204761D01*
X47161904Y-27157142D01*
X47209523Y-27061904D01*
X47209523Y-26252380D01*
X47590476Y-26252380D02*
X48209523Y-26252380D01*
X47876190Y-26633333D01*
X48019047Y-26633333D01*
X48114285Y-26680952D01*
X48161904Y-26728571D01*
X48209523Y-26823809D01*
X48209523Y-27061904D01*
X48161904Y-27157142D01*
X48114285Y-27204761D01*
X48019047Y-27252380D01*
X47733333Y-27252380D01*
X47638095Y-27204761D01*
X47590476Y-27157142D01*
%TO.C,U5*%
X92638095Y-47252380D02*
X92638095Y-48061904D01*
X92685714Y-48157142D01*
X92733333Y-48204761D01*
X92828571Y-48252380D01*
X93019047Y-48252380D01*
X93114285Y-48204761D01*
X93161904Y-48157142D01*
X93209523Y-48061904D01*
X93209523Y-47252380D01*
X94161904Y-47252380D02*
X93685714Y-47252380D01*
X93638095Y-47728571D01*
X93685714Y-47680952D01*
X93780952Y-47633333D01*
X94019047Y-47633333D01*
X94114285Y-47680952D01*
X94161904Y-47728571D01*
X94209523Y-47823809D01*
X94209523Y-48061904D01*
X94161904Y-48157142D01*
X94114285Y-48204761D01*
X94019047Y-48252380D01*
X93780952Y-48252380D01*
X93685714Y-48204761D01*
X93638095Y-48157142D01*
%TO.C,U4*%
X44852380Y-62961904D02*
X45661904Y-62961904D01*
X45757142Y-62914285D01*
X45804761Y-62866666D01*
X45852380Y-62771428D01*
X45852380Y-62580952D01*
X45804761Y-62485714D01*
X45757142Y-62438095D01*
X45661904Y-62390476D01*
X44852380Y-62390476D01*
X45185714Y-61485714D02*
X45852380Y-61485714D01*
X44804761Y-61723809D02*
X45519047Y-61961904D01*
X45519047Y-61342857D01*
%TO.C,U6*%
X106238095Y-31577380D02*
X106238095Y-32386904D01*
X106285714Y-32482142D01*
X106333333Y-32529761D01*
X106428571Y-32577380D01*
X106619047Y-32577380D01*
X106714285Y-32529761D01*
X106761904Y-32482142D01*
X106809523Y-32386904D01*
X106809523Y-31577380D01*
X107714285Y-31577380D02*
X107523809Y-31577380D01*
X107428571Y-31625000D01*
X107380952Y-31672619D01*
X107285714Y-31815476D01*
X107238095Y-32005952D01*
X107238095Y-32386904D01*
X107285714Y-32482142D01*
X107333333Y-32529761D01*
X107428571Y-32577380D01*
X107619047Y-32577380D01*
X107714285Y-32529761D01*
X107761904Y-32482142D01*
X107809523Y-32386904D01*
X107809523Y-32148809D01*
X107761904Y-32053571D01*
X107714285Y-32005952D01*
X107619047Y-31958333D01*
X107428571Y-31958333D01*
X107333333Y-32005952D01*
X107285714Y-32053571D01*
X107238095Y-32148809D01*
%TO.C,R16*%
X91357142Y-40252380D02*
X91023809Y-39776190D01*
X90785714Y-40252380D02*
X90785714Y-39252380D01*
X91166666Y-39252380D01*
X91261904Y-39300000D01*
X91309523Y-39347619D01*
X91357142Y-39442857D01*
X91357142Y-39585714D01*
X91309523Y-39680952D01*
X91261904Y-39728571D01*
X91166666Y-39776190D01*
X90785714Y-39776190D01*
X92309523Y-40252380D02*
X91738095Y-40252380D01*
X92023809Y-40252380D02*
X92023809Y-39252380D01*
X91928571Y-39395238D01*
X91833333Y-39490476D01*
X91738095Y-39538095D01*
X93166666Y-39252380D02*
X92976190Y-39252380D01*
X92880952Y-39300000D01*
X92833333Y-39347619D01*
X92738095Y-39490476D01*
X92690476Y-39680952D01*
X92690476Y-40061904D01*
X92738095Y-40157142D01*
X92785714Y-40204761D01*
X92880952Y-40252380D01*
X93071428Y-40252380D01*
X93166666Y-40204761D01*
X93214285Y-40157142D01*
X93261904Y-40061904D01*
X93261904Y-39823809D01*
X93214285Y-39728571D01*
X93166666Y-39680952D01*
X93071428Y-39633333D01*
X92880952Y-39633333D01*
X92785714Y-39680952D01*
X92738095Y-39728571D01*
X92690476Y-39823809D01*
%TO.C,R17*%
X91357142Y-41652380D02*
X91023809Y-41176190D01*
X90785714Y-41652380D02*
X90785714Y-40652380D01*
X91166666Y-40652380D01*
X91261904Y-40700000D01*
X91309523Y-40747619D01*
X91357142Y-40842857D01*
X91357142Y-40985714D01*
X91309523Y-41080952D01*
X91261904Y-41128571D01*
X91166666Y-41176190D01*
X90785714Y-41176190D01*
X92309523Y-41652380D02*
X91738095Y-41652380D01*
X92023809Y-41652380D02*
X92023809Y-40652380D01*
X91928571Y-40795238D01*
X91833333Y-40890476D01*
X91738095Y-40938095D01*
X92642857Y-40652380D02*
X93309523Y-40652380D01*
X92880952Y-41652380D01*
%TO.C,R18*%
X91357142Y-42852380D02*
X91023809Y-42376190D01*
X90785714Y-42852380D02*
X90785714Y-41852380D01*
X91166666Y-41852380D01*
X91261904Y-41900000D01*
X91309523Y-41947619D01*
X91357142Y-42042857D01*
X91357142Y-42185714D01*
X91309523Y-42280952D01*
X91261904Y-42328571D01*
X91166666Y-42376190D01*
X90785714Y-42376190D01*
X92309523Y-42852380D02*
X91738095Y-42852380D01*
X92023809Y-42852380D02*
X92023809Y-41852380D01*
X91928571Y-41995238D01*
X91833333Y-42090476D01*
X91738095Y-42138095D01*
X92880952Y-42280952D02*
X92785714Y-42233333D01*
X92738095Y-42185714D01*
X92690476Y-42090476D01*
X92690476Y-42042857D01*
X92738095Y-41947619D01*
X92785714Y-41900000D01*
X92880952Y-41852380D01*
X93071428Y-41852380D01*
X93166666Y-41900000D01*
X93214285Y-41947619D01*
X93261904Y-42042857D01*
X93261904Y-42090476D01*
X93214285Y-42185714D01*
X93166666Y-42233333D01*
X93071428Y-42280952D01*
X92880952Y-42280952D01*
X92785714Y-42328571D01*
X92738095Y-42376190D01*
X92690476Y-42471428D01*
X92690476Y-42661904D01*
X92738095Y-42757142D01*
X92785714Y-42804761D01*
X92880952Y-42852380D01*
X93071428Y-42852380D01*
X93166666Y-42804761D01*
X93214285Y-42757142D01*
X93261904Y-42661904D01*
X93261904Y-42471428D01*
X93214285Y-42376190D01*
X93166666Y-42328571D01*
X93071428Y-42280952D01*
%TO.C,R19*%
X91357142Y-44252380D02*
X91023809Y-43776190D01*
X90785714Y-44252380D02*
X90785714Y-43252380D01*
X91166666Y-43252380D01*
X91261904Y-43300000D01*
X91309523Y-43347619D01*
X91357142Y-43442857D01*
X91357142Y-43585714D01*
X91309523Y-43680952D01*
X91261904Y-43728571D01*
X91166666Y-43776190D01*
X90785714Y-43776190D01*
X92309523Y-44252380D02*
X91738095Y-44252380D01*
X92023809Y-44252380D02*
X92023809Y-43252380D01*
X91928571Y-43395238D01*
X91833333Y-43490476D01*
X91738095Y-43538095D01*
X92785714Y-44252380D02*
X92976190Y-44252380D01*
X93071428Y-44204761D01*
X93119047Y-44157142D01*
X93214285Y-44014285D01*
X93261904Y-43823809D01*
X93261904Y-43442857D01*
X93214285Y-43347619D01*
X93166666Y-43300000D01*
X93071428Y-43252380D01*
X92880952Y-43252380D01*
X92785714Y-43300000D01*
X92738095Y-43347619D01*
X92690476Y-43442857D01*
X92690476Y-43680952D01*
X92738095Y-43776190D01*
X92785714Y-43823809D01*
X92880952Y-43871428D01*
X93071428Y-43871428D01*
X93166666Y-43823809D01*
X93214285Y-43776190D01*
X93261904Y-43680952D01*
%TO.C,P1*%
X91852380Y-22338095D02*
X90852380Y-22338095D01*
X90852380Y-21957142D01*
X90900000Y-21861904D01*
X90947619Y-21814285D01*
X91042857Y-21766666D01*
X91185714Y-21766666D01*
X91280952Y-21814285D01*
X91328571Y-21861904D01*
X91376190Y-21957142D01*
X91376190Y-22338095D01*
X91852380Y-20814285D02*
X91852380Y-21385714D01*
X91852380Y-21100000D02*
X90852380Y-21100000D01*
X90995238Y-21195238D01*
X91090476Y-21290476D01*
X91138095Y-21385714D01*
%TO.C,P2*%
X104252380Y-22538095D02*
X103252380Y-22538095D01*
X103252380Y-22157142D01*
X103300000Y-22061904D01*
X103347619Y-22014285D01*
X103442857Y-21966666D01*
X103585714Y-21966666D01*
X103680952Y-22014285D01*
X103728571Y-22061904D01*
X103776190Y-22157142D01*
X103776190Y-22538095D01*
X103347619Y-21585714D02*
X103300000Y-21538095D01*
X103252380Y-21442857D01*
X103252380Y-21204761D01*
X103300000Y-21109523D01*
X103347619Y-21061904D01*
X103442857Y-21014285D01*
X103538095Y-21014285D01*
X103680952Y-21061904D01*
X104252380Y-21633333D01*
X104252380Y-21014285D01*
%TO.C,P3*%
X21761904Y-47202380D02*
X21761904Y-46202380D01*
X22142857Y-46202380D01*
X22238095Y-46250000D01*
X22285714Y-46297619D01*
X22333333Y-46392857D01*
X22333333Y-46535714D01*
X22285714Y-46630952D01*
X22238095Y-46678571D01*
X22142857Y-46726190D01*
X21761904Y-46726190D01*
X22666666Y-46202380D02*
X23285714Y-46202380D01*
X22952380Y-46583333D01*
X23095238Y-46583333D01*
X23190476Y-46630952D01*
X23238095Y-46678571D01*
X23285714Y-46773809D01*
X23285714Y-47011904D01*
X23238095Y-47107142D01*
X23190476Y-47154761D01*
X23095238Y-47202380D01*
X22809523Y-47202380D01*
X22714285Y-47154761D01*
X22666666Y-47107142D01*
%TO.C,P7*%
X125491904Y-30522380D02*
X125491904Y-29522380D01*
X125872857Y-29522380D01*
X125968095Y-29570000D01*
X126015714Y-29617619D01*
X126063333Y-29712857D01*
X126063333Y-29855714D01*
X126015714Y-29950952D01*
X125968095Y-29998571D01*
X125872857Y-30046190D01*
X125491904Y-30046190D01*
X126396666Y-29522380D02*
X127063333Y-29522380D01*
X126634761Y-30522380D01*
%TO.C,Y1*%
X57923809Y-51776190D02*
X57923809Y-52252380D01*
X57590476Y-51252380D02*
X57923809Y-51776190D01*
X58257142Y-51252380D01*
X59114285Y-52252380D02*
X58542857Y-52252380D01*
X58828571Y-52252380D02*
X58828571Y-51252380D01*
X58733333Y-51395238D01*
X58638095Y-51490476D01*
X58542857Y-51538095D01*
%TO.C,U7*%
X108038095Y-60087380D02*
X108038095Y-60896904D01*
X108085714Y-60992142D01*
X108133333Y-61039761D01*
X108228571Y-61087380D01*
X108419047Y-61087380D01*
X108514285Y-61039761D01*
X108561904Y-60992142D01*
X108609523Y-60896904D01*
X108609523Y-60087380D01*
X108990476Y-60087380D02*
X109657142Y-60087380D01*
X109228571Y-61087380D01*
%TO.C,D1*%
X77661904Y-29252380D02*
X77661904Y-28252380D01*
X77900000Y-28252380D01*
X78042857Y-28300000D01*
X78138095Y-28395238D01*
X78185714Y-28490476D01*
X78233333Y-28680952D01*
X78233333Y-28823809D01*
X78185714Y-29014285D01*
X78138095Y-29109523D01*
X78042857Y-29204761D01*
X77900000Y-29252380D01*
X77661904Y-29252380D01*
X79185714Y-29252380D02*
X78614285Y-29252380D01*
X78900000Y-29252380D02*
X78900000Y-28252380D01*
X78804761Y-28395238D01*
X78709523Y-28490476D01*
X78614285Y-28538095D01*
%TO.C,C18*%
X61757142Y-33557142D02*
X61709523Y-33604761D01*
X61566666Y-33652380D01*
X61471428Y-33652380D01*
X61328571Y-33604761D01*
X61233333Y-33509523D01*
X61185714Y-33414285D01*
X61138095Y-33223809D01*
X61138095Y-33080952D01*
X61185714Y-32890476D01*
X61233333Y-32795238D01*
X61328571Y-32700000D01*
X61471428Y-32652380D01*
X61566666Y-32652380D01*
X61709523Y-32700000D01*
X61757142Y-32747619D01*
X62709523Y-33652380D02*
X62138095Y-33652380D01*
X62423809Y-33652380D02*
X62423809Y-32652380D01*
X62328571Y-32795238D01*
X62233333Y-32890476D01*
X62138095Y-32938095D01*
X63280952Y-33080952D02*
X63185714Y-33033333D01*
X63138095Y-32985714D01*
X63090476Y-32890476D01*
X63090476Y-32842857D01*
X63138095Y-32747619D01*
X63185714Y-32700000D01*
X63280952Y-32652380D01*
X63471428Y-32652380D01*
X63566666Y-32700000D01*
X63614285Y-32747619D01*
X63661904Y-32842857D01*
X63661904Y-32890476D01*
X63614285Y-32985714D01*
X63566666Y-33033333D01*
X63471428Y-33080952D01*
X63280952Y-33080952D01*
X63185714Y-33128571D01*
X63138095Y-33176190D01*
X63090476Y-33271428D01*
X63090476Y-33461904D01*
X63138095Y-33557142D01*
X63185714Y-33604761D01*
X63280952Y-33652380D01*
X63471428Y-33652380D01*
X63566666Y-33604761D01*
X63614285Y-33557142D01*
X63661904Y-33461904D01*
X63661904Y-33271428D01*
X63614285Y-33176190D01*
X63566666Y-33128571D01*
X63471428Y-33080952D01*
%TO.C,J1*%
X85006666Y-26202380D02*
X85006666Y-26916666D01*
X84959047Y-27059523D01*
X84863809Y-27154761D01*
X84720952Y-27202380D01*
X84625714Y-27202380D01*
X86006666Y-27202380D02*
X85435238Y-27202380D01*
X85720952Y-27202380D02*
X85720952Y-26202380D01*
X85625714Y-26345238D01*
X85530476Y-26440476D01*
X85435238Y-26488095D01*
%TO.C,J2*%
X119066666Y-25852380D02*
X119066666Y-26566666D01*
X119019047Y-26709523D01*
X118923809Y-26804761D01*
X118780952Y-26852380D01*
X118685714Y-26852380D01*
X119495238Y-25947619D02*
X119542857Y-25900000D01*
X119638095Y-25852380D01*
X119876190Y-25852380D01*
X119971428Y-25900000D01*
X120019047Y-25947619D01*
X120066666Y-26042857D01*
X120066666Y-26138095D01*
X120019047Y-26280952D01*
X119447619Y-26852380D01*
X120066666Y-26852380D01*
%TD*%
M02*
