%TF.GenerationSoftware,KiCad,Pcbnew,(5.0.0-rc2-dev-433-g81843c37a)*%
%TF.CreationDate,2018-08-17T12:44:53+02:00*%
%TF.ProjectId,phloppy_0,70686C6F7070795F302E6B696361645F,rev?*%
%TF.SameCoordinates,Original*%
%TF.FileFunction,Soldermask,Bot*%
%TF.FilePolarity,Negative*%
%FSLAX46Y46*%
G04 Gerber Fmt 4.6, Leading zero omitted, Abs format (unit mm)*
G04 Created by KiCad (PCBNEW (5.0.0-rc2-dev-433-g81843c37a)) date Fri Aug 17 12:44:53 2018*
%MOMM*%
%LPD*%
G01*
G04 APERTURE LIST*
%ADD10O,2.100000X2.100000*%
%ADD11C,2.100000*%
%ADD12R,1.900000X1.700000*%
%ADD13R,1.900000X1.650000*%
%ADD14R,1.650000X1.900000*%
%ADD15R,2.400000X2.000000*%
%ADD16R,2.000000X2.400000*%
%ADD17C,3.600000*%
%ADD18R,1.700000X1.900000*%
%ADD19R,1.900000X1.545000*%
G04 APERTURE END LIST*
D10*
%TO.C,P6*%
X121250000Y-73040000D03*
X121250000Y-70500000D03*
X121250000Y-67960000D03*
X121250000Y-65420000D03*
X121250000Y-62880000D03*
X121250000Y-60340000D03*
X121250000Y-57800000D03*
X121250000Y-55260000D03*
X121250000Y-52720000D03*
X121250000Y-50180000D03*
X121250000Y-47640000D03*
X121250000Y-45100000D03*
X121250000Y-42560000D03*
X121250000Y-40020000D03*
X121250000Y-37480000D03*
X121250000Y-34940000D03*
X121250000Y-32400000D03*
D11*
X121250000Y-29860000D03*
%TD*%
D10*
%TO.C,P8*%
X114960000Y-69390000D03*
X117500000Y-69390000D03*
X114960000Y-66850000D03*
X117500000Y-66850000D03*
X114960000Y-64310000D03*
X117500000Y-64310000D03*
X114960000Y-61770000D03*
X117500000Y-61770000D03*
X114960000Y-59230000D03*
X117500000Y-59230000D03*
X114960000Y-56690000D03*
X117500000Y-56690000D03*
X114960000Y-54150000D03*
X117500000Y-54150000D03*
X114960000Y-51610000D03*
X117500000Y-51610000D03*
X114960000Y-49070000D03*
X117500000Y-49070000D03*
X114960000Y-46530000D03*
X117500000Y-46530000D03*
X114960000Y-43990000D03*
X117500000Y-43990000D03*
X114960000Y-41450000D03*
X117500000Y-41450000D03*
X114960000Y-38910000D03*
X117500000Y-38910000D03*
X114960000Y-36370000D03*
X117500000Y-36370000D03*
X114960000Y-33830000D03*
X117500000Y-33830000D03*
X114960000Y-31290000D03*
X117500000Y-31290000D03*
X114960000Y-28750000D03*
D11*
X117500000Y-28750000D03*
%TD*%
D12*
%TO.C,R11*%
X39550000Y-31600000D03*
X36850000Y-31600000D03*
%TD*%
D13*
%TO.C,C2*%
X61000000Y-43000000D03*
X58500000Y-43000000D03*
%TD*%
D14*
%TO.C,C3*%
X64000000Y-38250000D03*
X64000000Y-35750000D03*
%TD*%
%TO.C,C4*%
X74750000Y-38250000D03*
X74750000Y-35750000D03*
%TD*%
D13*
%TO.C,C5*%
X84250000Y-39000000D03*
X81750000Y-39000000D03*
%TD*%
%TO.C,C8*%
X81750000Y-45250000D03*
X84250000Y-45250000D03*
%TD*%
D14*
%TO.C,C9*%
X83000000Y-61500000D03*
X83000000Y-59000000D03*
%TD*%
D13*
%TO.C,C10*%
X84250000Y-51000000D03*
X81750000Y-51000000D03*
%TD*%
D14*
%TO.C,C11*%
X69500000Y-38250000D03*
X69500000Y-35750000D03*
%TD*%
D13*
%TO.C,C12*%
X61250000Y-54000000D03*
X58750000Y-54000000D03*
%TD*%
%TO.C,C13*%
X100500000Y-60000000D03*
X98000000Y-60000000D03*
%TD*%
D15*
%TO.C,C14*%
X80500000Y-56000000D03*
X76500000Y-56000000D03*
%TD*%
D14*
%TO.C,C15*%
X42500000Y-61500000D03*
X42500000Y-64000000D03*
%TD*%
D13*
%TO.C,C16*%
X37250000Y-61250000D03*
X39750000Y-61250000D03*
%TD*%
%TO.C,C17*%
X61000000Y-48750000D03*
X58500000Y-48750000D03*
%TD*%
D14*
%TO.C,C19*%
X78000000Y-59000000D03*
X78000000Y-61500000D03*
%TD*%
%TO.C,C20*%
X110200000Y-64150000D03*
X110200000Y-66650000D03*
%TD*%
D13*
%TO.C,C21*%
X72650000Y-60400000D03*
X70150000Y-60400000D03*
%TD*%
%TO.C,C22*%
X108500000Y-35500000D03*
X106000000Y-35500000D03*
%TD*%
D14*
%TO.C,C23*%
X105750000Y-56000000D03*
X105750000Y-53500000D03*
%TD*%
%TO.C,C24*%
X102750000Y-49500000D03*
X102750000Y-47000000D03*
%TD*%
%TO.C,C25*%
X45000000Y-61500000D03*
X45000000Y-64000000D03*
%TD*%
%TO.C,C26*%
X22850000Y-64350000D03*
X22850000Y-66850000D03*
%TD*%
%TO.C,C27*%
X66000000Y-61500000D03*
X66000000Y-59000000D03*
%TD*%
D13*
%TO.C,C28*%
X33000000Y-57750000D03*
X35500000Y-57750000D03*
%TD*%
%TO.C,C29*%
X61250000Y-57000000D03*
X58750000Y-57000000D03*
%TD*%
%TO.C,C30*%
X39500000Y-72750000D03*
X42000000Y-72750000D03*
%TD*%
D16*
%TO.C,C31*%
X77750000Y-38500000D03*
X77750000Y-34500000D03*
%TD*%
D12*
%TO.C,R2*%
X66500000Y-44000000D03*
X69200000Y-44000000D03*
%TD*%
%TO.C,R3*%
X69200000Y-41500000D03*
X66500000Y-41500000D03*
%TD*%
%TO.C,R4*%
X70850000Y-56000000D03*
X68150000Y-56000000D03*
%TD*%
D11*
%TO.C,P1*%
X93630000Y-24250000D03*
D10*
X96170000Y-24250000D03*
X98710000Y-24250000D03*
X101250000Y-24250000D03*
%TD*%
D11*
%TO.C,P2*%
X105880000Y-24250000D03*
D10*
X108420000Y-24250000D03*
X110960000Y-24250000D03*
X113500000Y-24250000D03*
%TD*%
D11*
%TO.C,P3*%
X22500000Y-43950000D03*
D10*
X22500000Y-41410000D03*
X22500000Y-38870000D03*
X22500000Y-36330000D03*
X22500000Y-33790000D03*
X22500000Y-31250000D03*
%TD*%
D11*
%TO.C,P4*%
X74300000Y-72750000D03*
D10*
X76840000Y-72750000D03*
X79380000Y-72750000D03*
X81920000Y-72750000D03*
X84460000Y-72750000D03*
X87000000Y-72750000D03*
%TD*%
D11*
%TO.C,P5*%
X103750000Y-72750000D03*
D10*
X101210000Y-72750000D03*
X98670000Y-72750000D03*
X96130000Y-72750000D03*
X93590000Y-72750000D03*
X91050000Y-72750000D03*
%TD*%
%TO.C,P7*%
X127500000Y-73040000D03*
X124960000Y-73040000D03*
X127500000Y-70500000D03*
X124960000Y-70500000D03*
X127500000Y-67960000D03*
X124960000Y-67960000D03*
X127500000Y-65420000D03*
X124960000Y-65420000D03*
X127500000Y-62880000D03*
X124960000Y-62880000D03*
X127500000Y-60340000D03*
X124960000Y-60340000D03*
X127500000Y-57800000D03*
X124960000Y-57800000D03*
X127500000Y-55260000D03*
X124960000Y-55260000D03*
X127500000Y-52720000D03*
X124960000Y-52720000D03*
X127500000Y-50180000D03*
X124960000Y-50180000D03*
X127500000Y-47640000D03*
X124960000Y-47640000D03*
X127500000Y-45100000D03*
X124960000Y-45100000D03*
X127500000Y-42560000D03*
X124960000Y-42560000D03*
X127500000Y-40020000D03*
X124960000Y-40020000D03*
X127500000Y-37480000D03*
X124960000Y-37480000D03*
X127500000Y-34940000D03*
X124960000Y-34940000D03*
X127500000Y-32400000D03*
D11*
X124960000Y-32400000D03*
%TD*%
D17*
%TO.C,REF\002A\002A*%
X23750000Y-23750000D03*
%TD*%
D14*
%TO.C,C32*%
X96750000Y-52750000D03*
X96750000Y-55250000D03*
%TD*%
D13*
%TO.C,C33*%
X34750000Y-69400000D03*
X37250000Y-69400000D03*
%TD*%
D12*
%TO.C,R12*%
X124450000Y-28400000D03*
X127150000Y-28400000D03*
%TD*%
%TO.C,R13*%
X127150000Y-25600000D03*
X124450000Y-25600000D03*
%TD*%
%TO.C,R14*%
X105850000Y-30400000D03*
X108550000Y-30400000D03*
%TD*%
D18*
%TO.C,R15*%
X102200000Y-33150000D03*
X102200000Y-30450000D03*
%TD*%
%TO.C,R20*%
X111600000Y-57450000D03*
X111600000Y-60150000D03*
%TD*%
%TO.C,R21*%
X108800000Y-60150000D03*
X108800000Y-57450000D03*
%TD*%
%TO.C,R22*%
X107200000Y-64050000D03*
X107200000Y-66750000D03*
%TD*%
D12*
%TO.C,R23*%
X39550000Y-36800000D03*
X36850000Y-36800000D03*
%TD*%
%TO.C,R24*%
X39550000Y-34200000D03*
X36850000Y-34200000D03*
%TD*%
%TO.C,R25*%
X39550000Y-39400000D03*
X36850000Y-39400000D03*
%TD*%
D11*
%TO.C,J2*%
X118700000Y-24250000D03*
D10*
X121240000Y-24250000D03*
%TD*%
D19*
%TO.C,R26*%
X96400000Y-31000000D03*
X96400000Y-33085000D03*
%TD*%
%TO.C,R27*%
X93200000Y-33085000D03*
X93200000Y-31000000D03*
%TD*%
M02*
