%TF.GenerationSoftware,KiCad,Pcbnew,(5.0.0-rc2-dev-433-g81843c37a)*%
%TF.CreationDate,2018-08-17T12:44:53+02:00*%
%TF.ProjectId,phloppy_0,70686C6F7070795F302E6B696361645F,rev?*%
%TF.SameCoordinates,Original*%
%TF.FileFunction,Soldermask,Top*%
%TF.FilePolarity,Negative*%
%FSLAX46Y46*%
G04 Gerber Fmt 4.6, Leading zero omitted, Abs format (unit mm)*
G04 Created by KiCad (PCBNEW (5.0.0-rc2-dev-433-g81843c37a)) date Fri Aug 17 12:44:53 2018*
%MOMM*%
%LPD*%
G01*
G04 APERTURE LIST*
%ADD10O,2.100000X2.100000*%
%ADD11C,2.100000*%
%ADD12R,1.950000X0.700000*%
%ADD13R,0.700000X1.950000*%
%ADD14R,1.650000X1.900000*%
%ADD15R,2.900000X3.600000*%
%ADD16R,1.900000X1.650000*%
%ADD17R,2.100000X2.400000*%
%ADD18R,1.700000X1.900000*%
%ADD19R,1.900000X1.700000*%
%ADD20R,3.448000X2.051000*%
%ADD21R,6.496000X6.496000*%
%ADD22R,2.900000X1.400000*%
%ADD23R,1.400000X2.200000*%
%ADD24R,0.700000X1.900000*%
%ADD25R,1.900000X0.700000*%
%ADD26R,0.948000X1.920000*%
%ADD27R,1.900000X1.000000*%
%ADD28C,3.600000*%
%ADD29R,1.600000X2.200000*%
%ADD30R,1.600000X1.300000*%
%ADD31R,3.600000X1.900000*%
%ADD32R,0.850000X1.780000*%
%ADD33R,2.375000X3.000000*%
%ADD34R,3.400000X2.300000*%
%ADD35R,1.575000X2.300000*%
%ADD36C,0.254000*%
G04 APERTURE END LIST*
D10*
%TO.C,P6*%
X121250000Y-73040000D03*
X121250000Y-70500000D03*
X121250000Y-67960000D03*
X121250000Y-65420000D03*
X121250000Y-62880000D03*
X121250000Y-60340000D03*
X121250000Y-57800000D03*
X121250000Y-55260000D03*
X121250000Y-52720000D03*
X121250000Y-50180000D03*
X121250000Y-47640000D03*
X121250000Y-45100000D03*
X121250000Y-42560000D03*
X121250000Y-40020000D03*
X121250000Y-37480000D03*
X121250000Y-34940000D03*
X121250000Y-32400000D03*
D11*
X121250000Y-29860000D03*
%TD*%
D12*
%TO.C,U2*%
X61550000Y-40500000D03*
X61550000Y-41000000D03*
X61550000Y-41500000D03*
X61550000Y-42000000D03*
X61550000Y-42500000D03*
X61550000Y-43000000D03*
X61550000Y-43500000D03*
X61550000Y-44000000D03*
X61550000Y-44500000D03*
X61550000Y-45000000D03*
X61550000Y-45500000D03*
X61550000Y-46000000D03*
X61550000Y-46500000D03*
X61550000Y-47000000D03*
X61550000Y-47500000D03*
X61550000Y-48000000D03*
X61550000Y-48500000D03*
X61550000Y-49000000D03*
X61550000Y-49500000D03*
X61550000Y-50000000D03*
X61550000Y-50500000D03*
X61550000Y-51000000D03*
X61550000Y-51500000D03*
X61550000Y-52000000D03*
X61550000Y-52500000D03*
X61550000Y-53000000D03*
X61550000Y-53500000D03*
X61550000Y-54000000D03*
X61550000Y-54500000D03*
X61550000Y-55000000D03*
X61550000Y-55500000D03*
X61550000Y-56000000D03*
X61550000Y-56500000D03*
X61550000Y-57000000D03*
X61550000Y-57500000D03*
X61550000Y-58000000D03*
D13*
X63500000Y-59950000D03*
X64000000Y-59950000D03*
X64500000Y-59950000D03*
X65000000Y-59950000D03*
X65500000Y-59950000D03*
X66000000Y-59950000D03*
X66500000Y-59950000D03*
X67000000Y-59950000D03*
X67500000Y-59950000D03*
X68000000Y-59950000D03*
X68500000Y-59950000D03*
X69000000Y-59950000D03*
X69500000Y-59950000D03*
X70000000Y-59950000D03*
X70500000Y-59950000D03*
X71000000Y-59950000D03*
X71500000Y-59950000D03*
X72000000Y-59950000D03*
X72500000Y-59950000D03*
X73000000Y-59950000D03*
X73500000Y-59950000D03*
X74000000Y-59950000D03*
X74500000Y-59950000D03*
X75000000Y-59950000D03*
X75500000Y-59950000D03*
X76000000Y-59950000D03*
X76500000Y-59950000D03*
X77000000Y-59950000D03*
X77500000Y-59950000D03*
X78000000Y-59950000D03*
X78500000Y-59950000D03*
X79000000Y-59950000D03*
X79500000Y-59950000D03*
X80000000Y-59950000D03*
X80500000Y-59950000D03*
X81000000Y-59950000D03*
D12*
X82950000Y-58000000D03*
X82950000Y-57500000D03*
X82950000Y-57000000D03*
X82950000Y-56500000D03*
X82950000Y-56000000D03*
X82950000Y-55500000D03*
X82950000Y-55000000D03*
X82950000Y-54500000D03*
X82950000Y-54000000D03*
X82950000Y-53500000D03*
X82950000Y-53000000D03*
X82950000Y-52500000D03*
X82950000Y-52000000D03*
X82950000Y-51500000D03*
X82950000Y-51000000D03*
X82950000Y-50500000D03*
X82950000Y-50000000D03*
X82950000Y-49500000D03*
X82950000Y-49000000D03*
X82950000Y-48500000D03*
X82950000Y-48000000D03*
X82950000Y-47500000D03*
X82950000Y-47000000D03*
X82950000Y-46500000D03*
X82950000Y-46000000D03*
X82950000Y-45500000D03*
X82950000Y-45000000D03*
X82950000Y-44500000D03*
X82950000Y-44000000D03*
X82950000Y-43500000D03*
X82950000Y-43000000D03*
X82950000Y-42500000D03*
X82950000Y-42000000D03*
X82950000Y-41500000D03*
X82950000Y-41000000D03*
X82950000Y-40500000D03*
D13*
X81000000Y-38550000D03*
X80500000Y-38550000D03*
X80000000Y-38550000D03*
X79500000Y-38550000D03*
X79000000Y-38550000D03*
X78500000Y-38550000D03*
X78000000Y-38550000D03*
X77500000Y-38550000D03*
X77000000Y-38550000D03*
X76500000Y-38550000D03*
X76000000Y-38550000D03*
X75500000Y-38550000D03*
X75000000Y-38550000D03*
X74500000Y-38550000D03*
X74000000Y-38550000D03*
X73500000Y-38550000D03*
X73000000Y-38550000D03*
X72500000Y-38550000D03*
X72000000Y-38550000D03*
X71500000Y-38550000D03*
X71000000Y-38550000D03*
X70500000Y-38550000D03*
X70000000Y-38550000D03*
X69500000Y-38550000D03*
X69000000Y-38550000D03*
X68500000Y-38550000D03*
X68000000Y-38550000D03*
X67500000Y-38550000D03*
X67000000Y-38550000D03*
X66500000Y-38550000D03*
X66000000Y-38550000D03*
X65500000Y-38550000D03*
X65000000Y-38550000D03*
X64500000Y-38550000D03*
X64000000Y-38550000D03*
X63500000Y-38550000D03*
%TD*%
D10*
%TO.C,P8*%
X114960000Y-69390000D03*
X117500000Y-69390000D03*
X114960000Y-66850000D03*
X117500000Y-66850000D03*
X114960000Y-64310000D03*
X117500000Y-64310000D03*
X114960000Y-61770000D03*
X117500000Y-61770000D03*
X114960000Y-59230000D03*
X117500000Y-59230000D03*
X114960000Y-56690000D03*
X117500000Y-56690000D03*
X114960000Y-54150000D03*
X117500000Y-54150000D03*
X114960000Y-51610000D03*
X117500000Y-51610000D03*
X114960000Y-49070000D03*
X117500000Y-49070000D03*
X114960000Y-46530000D03*
X117500000Y-46530000D03*
X114960000Y-43990000D03*
X117500000Y-43990000D03*
X114960000Y-41450000D03*
X117500000Y-41450000D03*
X114960000Y-38910000D03*
X117500000Y-38910000D03*
X114960000Y-36370000D03*
X117500000Y-36370000D03*
X114960000Y-33830000D03*
X117500000Y-33830000D03*
X114960000Y-31290000D03*
X117500000Y-31290000D03*
X114960000Y-28750000D03*
D11*
X117500000Y-28750000D03*
%TD*%
D14*
%TO.C,C1*%
X51200000Y-50550000D03*
X51200000Y-53050000D03*
%TD*%
D15*
%TO.C,C6*%
X71000000Y-22850000D03*
X71000000Y-27150000D03*
%TD*%
D16*
%TO.C,C7*%
X56500000Y-57000000D03*
X54000000Y-57000000D03*
%TD*%
D17*
%TO.C,R1*%
X74500000Y-23000000D03*
X74500000Y-27000000D03*
%TD*%
D18*
%TO.C,R5*%
X81250000Y-31800000D03*
X81250000Y-29100000D03*
%TD*%
%TO.C,R6*%
X83750000Y-29100000D03*
X83750000Y-31800000D03*
%TD*%
%TO.C,R7*%
X86250000Y-29100000D03*
X86250000Y-31800000D03*
%TD*%
%TO.C,R8*%
X88750000Y-29100000D03*
X88750000Y-31800000D03*
%TD*%
D19*
%TO.C,R9*%
X28350000Y-50000000D03*
X25650000Y-50000000D03*
%TD*%
%TO.C,R10*%
X28350000Y-47400000D03*
X25650000Y-47400000D03*
%TD*%
D20*
%TO.C,U1*%
X67000000Y-27286000D03*
D21*
X60650000Y-25000000D03*
D20*
X67000000Y-22714000D03*
%TD*%
D22*
%TO.C,U3*%
X29650000Y-26750000D03*
X29650000Y-28750000D03*
X29650000Y-30750000D03*
X29650000Y-32750000D03*
X29650000Y-34750000D03*
X29650000Y-36750000D03*
X29650000Y-38750000D03*
X29650000Y-40750000D03*
D23*
X32250000Y-42250000D03*
X34250000Y-42250000D03*
X36250000Y-42250000D03*
X38250000Y-42250000D03*
X40250000Y-42250000D03*
X42250000Y-42250000D03*
D22*
X44850000Y-40750000D03*
X44850000Y-38750000D03*
X44850000Y-36750000D03*
X44850000Y-34750000D03*
X44850000Y-32750000D03*
X44850000Y-30750000D03*
X44850000Y-28750000D03*
X44850000Y-26750000D03*
%TD*%
D24*
%TO.C,U5*%
X96000000Y-48300000D03*
X96500000Y-48300000D03*
X97000000Y-48300000D03*
X97500000Y-48300000D03*
X98000000Y-48300000D03*
X98500000Y-48300000D03*
X99000000Y-48300000D03*
X99500000Y-48300000D03*
X100000000Y-48300000D03*
X100500000Y-48300000D03*
X101000000Y-48300000D03*
X101500000Y-48300000D03*
X102000000Y-48300000D03*
X102500000Y-48300000D03*
X103000000Y-48300000D03*
X103500000Y-48300000D03*
D25*
X105450000Y-50250000D03*
X105450000Y-50750000D03*
X105450000Y-51250000D03*
X105450000Y-51750000D03*
X105450000Y-52250000D03*
X105450000Y-52750000D03*
X105450000Y-53250000D03*
X105450000Y-53750000D03*
X105450000Y-54250000D03*
X105450000Y-54750000D03*
X105450000Y-55250000D03*
X105450000Y-55750000D03*
X105450000Y-56250000D03*
X105450000Y-56750000D03*
X105450000Y-57250000D03*
X105450000Y-57750000D03*
D24*
X103500000Y-59700000D03*
X103000000Y-59700000D03*
X102500000Y-59700000D03*
X102000000Y-59700000D03*
X101500000Y-59700000D03*
X101000000Y-59700000D03*
X100500000Y-59700000D03*
X100000000Y-59700000D03*
X99500000Y-59700000D03*
X99000000Y-59700000D03*
X98500000Y-59700000D03*
X98000000Y-59700000D03*
X97500000Y-59700000D03*
X97000000Y-59700000D03*
X96500000Y-59700000D03*
X96000000Y-59700000D03*
D25*
X94050000Y-57750000D03*
X94050000Y-57250000D03*
X94050000Y-56750000D03*
X94050000Y-56250000D03*
X94050000Y-55750000D03*
X94050000Y-55250000D03*
X94050000Y-54750000D03*
X94050000Y-54250000D03*
X94050000Y-53750000D03*
X94050000Y-53250000D03*
X94050000Y-52750000D03*
X94050000Y-52250000D03*
X94050000Y-51750000D03*
X94050000Y-51250000D03*
X94050000Y-50750000D03*
X94050000Y-50250000D03*
%TD*%
D26*
%TO.C,U4*%
X43650000Y-60910000D03*
X42850000Y-60910000D03*
X42050000Y-60910000D03*
X41250000Y-60910000D03*
X40450000Y-60910000D03*
X39650000Y-60910000D03*
X38850000Y-60910000D03*
X38050000Y-60910000D03*
X37250000Y-60910000D03*
X36450000Y-60910000D03*
X35650000Y-60910000D03*
X34850000Y-60910000D03*
X34050000Y-60910000D03*
X33250000Y-60910000D03*
X32450000Y-60910000D03*
X31650000Y-60910000D03*
X30850000Y-60910000D03*
X30050000Y-60910000D03*
X29250000Y-60910000D03*
X28450000Y-60910000D03*
X27650000Y-60910000D03*
X26850000Y-60910000D03*
X26050000Y-60910000D03*
X25250000Y-60910000D03*
X24450000Y-60910000D03*
X23650000Y-60910000D03*
X22850000Y-60910000D03*
X22850000Y-72590000D03*
X23650000Y-72590000D03*
X24450000Y-72590000D03*
X25250000Y-72590000D03*
X26050000Y-72590000D03*
X26850000Y-72590000D03*
X27650000Y-72590000D03*
X28450000Y-72590000D03*
X29250000Y-72590000D03*
X30050000Y-72590000D03*
X30850000Y-72590000D03*
X31650000Y-72590000D03*
X32450000Y-72590000D03*
X33250000Y-72590000D03*
X34050000Y-72590000D03*
X34850000Y-72590000D03*
X35650000Y-72590000D03*
X36450000Y-72590000D03*
X37250000Y-72590000D03*
X38050000Y-72590000D03*
X38850000Y-72590000D03*
X39650000Y-72590000D03*
X40450000Y-72590000D03*
X41250000Y-72590000D03*
X42050000Y-72590000D03*
X42850000Y-72590000D03*
X43650000Y-72590000D03*
%TD*%
D27*
%TO.C,U6*%
X109700000Y-33690000D03*
X109700000Y-34960000D03*
X109700000Y-36230000D03*
X109700000Y-37500000D03*
X109700000Y-38770000D03*
X109700000Y-40040000D03*
X109700000Y-41310000D03*
X104300000Y-41310000D03*
X104300000Y-40040000D03*
X104300000Y-38770000D03*
X104300000Y-37500000D03*
X104300000Y-36230000D03*
X104300000Y-34960000D03*
X104300000Y-33690000D03*
%TD*%
D19*
%TO.C,LED1*%
X97850000Y-30400000D03*
X100550000Y-30400000D03*
%TD*%
%TO.C,LED2*%
X97850000Y-33000000D03*
X100550000Y-33000000D03*
%TD*%
%TO.C,LED3*%
X97850000Y-35600000D03*
X100550000Y-35600000D03*
%TD*%
%TO.C,LED4*%
X97850000Y-38200000D03*
X100550000Y-38200000D03*
%TD*%
%TO.C,R16*%
X94150000Y-30400000D03*
X91450000Y-30400000D03*
%TD*%
%TO.C,R17*%
X94150000Y-33000000D03*
X91450000Y-33000000D03*
%TD*%
%TO.C,R18*%
X94150000Y-35600000D03*
X91450000Y-35600000D03*
%TD*%
%TO.C,R19*%
X94150000Y-38200000D03*
X91450000Y-38200000D03*
%TD*%
D11*
%TO.C,P1*%
X93630000Y-24250000D03*
D10*
X96170000Y-24250000D03*
X98710000Y-24250000D03*
X101250000Y-24250000D03*
%TD*%
D11*
%TO.C,P2*%
X105880000Y-24250000D03*
D10*
X108420000Y-24250000D03*
X110960000Y-24250000D03*
X113500000Y-24250000D03*
%TD*%
D11*
%TO.C,P3*%
X22500000Y-43950000D03*
D10*
X22500000Y-41410000D03*
X22500000Y-38870000D03*
X22500000Y-36330000D03*
X22500000Y-33790000D03*
X22500000Y-31250000D03*
%TD*%
D11*
%TO.C,P4*%
X74300000Y-72750000D03*
D10*
X76840000Y-72750000D03*
X79380000Y-72750000D03*
X81920000Y-72750000D03*
X84460000Y-72750000D03*
X87000000Y-72750000D03*
%TD*%
D11*
%TO.C,P5*%
X103750000Y-72750000D03*
D10*
X101210000Y-72750000D03*
X98670000Y-72750000D03*
X96130000Y-72750000D03*
X93590000Y-72750000D03*
X91050000Y-72750000D03*
%TD*%
%TO.C,P7*%
X127500000Y-73040000D03*
X124960000Y-73040000D03*
X127500000Y-70500000D03*
X124960000Y-70500000D03*
X127500000Y-67960000D03*
X124960000Y-67960000D03*
X127500000Y-65420000D03*
X124960000Y-65420000D03*
X127500000Y-62880000D03*
X124960000Y-62880000D03*
X127500000Y-60340000D03*
X124960000Y-60340000D03*
X127500000Y-57800000D03*
X124960000Y-57800000D03*
X127500000Y-55260000D03*
X124960000Y-55260000D03*
X127500000Y-52720000D03*
X124960000Y-52720000D03*
X127500000Y-50180000D03*
X124960000Y-50180000D03*
X127500000Y-47640000D03*
X124960000Y-47640000D03*
X127500000Y-45100000D03*
X124960000Y-45100000D03*
X127500000Y-42560000D03*
X124960000Y-42560000D03*
X127500000Y-40020000D03*
X124960000Y-40020000D03*
X127500000Y-37480000D03*
X124960000Y-37480000D03*
X127500000Y-34940000D03*
X124960000Y-34940000D03*
X127500000Y-32400000D03*
D11*
X124960000Y-32400000D03*
%TD*%
D28*
%TO.C,REF\002A\002A*%
X23750000Y-23750000D03*
%TD*%
D29*
%TO.C,Y1*%
X54050000Y-49750000D03*
X54050000Y-53750000D03*
X56450000Y-53750000D03*
X56450000Y-49750000D03*
%TD*%
D27*
%TO.C,U7*%
X111500000Y-62200000D03*
X111500000Y-63470000D03*
X111500000Y-64740000D03*
X111500000Y-66010000D03*
X111500000Y-67280000D03*
X111500000Y-68550000D03*
X111500000Y-69820000D03*
X106100000Y-69820000D03*
X106100000Y-68550000D03*
X106100000Y-67280000D03*
X106100000Y-66010000D03*
X106100000Y-64740000D03*
X106100000Y-63470000D03*
X106100000Y-62200000D03*
%TD*%
D30*
%TO.C,D1*%
X78200000Y-27250000D03*
X78200000Y-23950000D03*
%TD*%
D31*
%TO.C,C18*%
X60400000Y-31200000D03*
X64400000Y-31200000D03*
%TD*%
D32*
%TO.C,J1*%
X86640000Y-24410000D03*
X85990000Y-24410000D03*
X85340000Y-24410000D03*
X84690000Y-24410000D03*
X84040000Y-24410000D03*
D33*
X88302500Y-24550000D03*
X82377500Y-24550000D03*
D34*
X88950000Y-21750000D03*
X81730000Y-21750000D03*
D35*
X86180000Y-21750000D03*
X84500000Y-21750000D03*
%TD*%
D11*
%TO.C,J2*%
X118700000Y-24250000D03*
D10*
X121240000Y-24250000D03*
%TD*%
D36*
G36*
X54673000Y-23873000D02*
X47127000Y-23873000D01*
X47127000Y-20927000D01*
X54673000Y-20927000D01*
X54673000Y-23873000D01*
X54673000Y-23873000D01*
G37*
X54673000Y-23873000D02*
X47127000Y-23873000D01*
X47127000Y-20927000D01*
X54673000Y-20927000D01*
X54673000Y-23873000D01*
M02*
