M48
;DRILL file {KiCad (5.0.0-rc2-dev-433-g81843c37a)} date Fri Aug 17 12:44:55 2018
;FORMAT={-:-/ absolute / inch / decimal}
FMAT,2
INCH,TZ
T1C0.0157
T2C0.0197
T3C0.0236
T4C0.0315
T5C0.0394
%
G90
G05
M72
T1
X1.1831Y-1.9193
X1.1831Y-2.7657
X1.2461Y-1.8898
X1.2461Y-2.7854
X1.378Y-1.0827
X1.378Y-1.1811
X1.622Y-1.5984
X1.6437Y-1.4764
X1.6457Y-1.3465
X1.6457Y-1.5256
X1.6614Y-1.4252
X1.6693Y-1.5669
X1.6827Y-1.7991
X1.6831Y-2.0768
X1.7224Y-1.7323
X1.7224Y-2.126
X1.7682Y-2.0014
X1.7827Y-2.2541
X1.8185Y-2.1026
X1.8307Y-2.2541
X1.8602Y-1.7323
X1.8602Y-2.1752
X1.8701Y-1.5256
X1.9864Y-1.6899
X1.9873Y-1.7952
X2.0166Y-1.6118
X2.0276Y-1.672
X2.0276Y-1.8209
X2.0472Y-2.5886
X2.0666Y-1.8506
X2.0669Y-2.628
X2.0677Y-1.6473
X2.0803Y-1.5818
X2.0965Y-2.6575
X2.1061Y-1.8396
X2.1063Y-1.5256
X2.1063Y-1.767
X2.126Y-2.687
X2.1361Y-1.7518
X2.1439Y-1.4912
X2.1555Y-2.7165
X2.1607Y-1.8137
X2.1654Y-1.8701
X2.2047Y-1.8898
X2.2543Y-2.4614
X2.2673Y-2.5036
X2.2811Y-2.5873
X2.2854Y-2.4423
X2.314Y-2.5212
X2.4311Y-2.3819
X2.4703Y-2.2259
X2.4705Y-1.6929
X2.4761Y-1.9225
X2.4764Y-1.8781
X2.4809Y-2.1511
X2.4844Y-2.1857
X2.4961Y-2.0669
X2.5197Y-1.565
X2.5197Y-2.313
X2.5394Y-2.4114
X2.5689Y-2.2343
X2.6063Y-2.0669
X2.6181Y-1.5748
X2.6181Y-1.8898
X2.6476Y-1.8602
X2.6678Y-2.6347
X2.6952Y-2.7433
X2.7039Y-2.6003
X2.7165Y-2.3031
X2.7422Y-1.5699
X2.76Y-2.3076
X2.7897Y-1.5699
X2.8099Y-2.3073
X2.8819Y-1.3465
X2.9384Y-1.5699
X2.9582Y-2.3073
X2.973Y-2.743
X2.987Y-1.5703
X3.0055Y-2.3076
X3.0551Y-2.6772
X3.0945Y-1.8819
X3.1004Y-2.5886
X3.1004Y-2.6476
X3.1024Y-1.2362
X3.126Y-1.9134
X3.1339Y-1.2992
X3.1417Y-1.252
X3.1417Y-2.7008
X3.1811Y-2.2992
X3.2022Y-2.4121
X3.2047Y-1.5906
X3.2047Y-2.4724
X3.2185Y-1.8504
X3.2185Y-2.0866
X3.248Y-2.4902
X3.2874Y-1.4173
X3.2972Y-1.3071
X3.3071Y-1.4567
X3.3169Y-1.5945
X3.3231Y-2.0795
X3.3307Y-1.8583
X3.3366Y-1.3287
X3.3371Y-2.2933
X3.3543Y-1.4173
X3.3543Y-1.6299
X3.3622Y-1.3701
X3.378Y-2.252
X3.3858Y-2.2992
X3.3937Y-2.0945
X3.4331Y-2.126
X3.4331Y-2.1732
X3.4488Y-1.8898
X3.4565Y-1.497
X3.4646Y-1.4173
X3.4882Y-1.3701
X3.4882Y-2.063
X3.4961Y-1.4567
X3.5354Y-2.063
X3.5512Y-1.2441
X3.563Y-2.4902
X3.5669Y-2.1496
X3.5748Y-2.0945
X3.5748Y-2.2598
X3.5748Y-2.3071
X3.5748Y-2.3543
X3.5748Y-2.4016
X3.6693Y-1.1417
X3.7087Y-1.0945
X3.75Y-2.0177
X3.75Y-2.2343
X3.8504Y-1.6142
X3.8583Y-2.3031
X3.9055Y-1.6142
X3.9567Y-2.3031
X3.9689Y-1.9531
X3.9764Y-1.8504
X3.9843Y-2.5984
X4.1043Y-2.1161
X4.1043Y-2.1949
X4.1339Y-2.3307
X4.1732Y-1.4764
X4.1732Y-1.5764
X4.3858Y-2.0472
X4.3898Y-1.4665
X4.3898Y-1.5394
X4.4486Y-2.5197
X4.4488Y-2.6488
T2
X0.8996Y-2.4508
X0.8996Y-2.8051
X0.9843Y-2.5
X1.0827Y-2.5
X1.1673Y-1.685
X1.3091Y-2.3425
X1.3091Y-2.8051
X1.3189Y-2.5
X1.372Y-2.3425
X1.372Y-2.8031
X1.378Y-1.2441
X1.378Y-1.4488
X1.378Y-1.5512
X1.4665Y-2.3425
X1.4665Y-2.8051
X1.5157Y-2.2441
X1.561Y-2.3425
X1.561Y-2.8051
X1.6555Y-2.3425
X1.6555Y-2.8051
X1.7185Y-2.3425
X1.7185Y-2.8051
X1.7657Y-1.6614
X1.8898Y-1.3878
X1.9291Y-2.1063
X1.9882Y-1.3878
X2.0157Y-2.1654
X2.2992Y-1.9764
X2.3031Y-1.7402
X2.6575Y-2.0079
X2.7559Y-1.8504
X2.7559Y-2.0472
X2.7756Y-1.2598
X2.8543Y-1.8504
X2.8543Y-2.0472
X2.874Y-1.2598
X2.9134Y-1.6535
X2.9528Y-1.8504
X2.9528Y-2.0472
X2.9724Y-1.2598
X3.0315Y-1.7717
X3.4252Y-2.7559
X3.4724Y-1.5827
X3.5039Y-2.6772
X3.5354Y-1.6535
X3.6024Y-2.5197
X3.6063Y-2.6457
X3.6811Y-2.5197
X3.685Y-2.6457
X3.6929Y-1.622
X3.7598Y-2.5197
X3.7795Y-1.622
X3.7795Y-2.6457
X3.8386Y-2.5197
X3.8583Y-1.9882
X3.9173Y-2.4409
X3.9173Y-2.5197
X3.937Y-2.0079
X3.937Y-2.1063
X3.937Y-2.2047
X3.9587Y-1.126
X3.9764Y-1.7717
X4.0157Y-2.1063
X4.0157Y-2.2047
X4.0551Y-1.6264
X4.1732Y-1.3386
X4.2126Y-2.874
X4.2323Y-2.7488
X4.2579Y-2.6988
X4.2717Y-1.3264
X4.2913Y-2.874
X4.3386Y-2.4488
X4.3701Y-2.8898
X4.4488Y-2.8937
X4.5276Y-2.8937
X4.6063Y-2.8937
X4.685Y-2.8937
T3
X3.1575Y-0.937
X3.1575Y-1.0157
X3.4488Y-1.0551
X3.5748Y-0.9685
T4
X2.2441Y-1.2283
X2.6614Y-1.2283
X2.937Y-1.1654
T5
X2.9252Y-2.8642
X3.0252Y-2.8642
X3.1252Y-2.8642
X3.2252Y-2.8642
X3.3252Y-2.8642
X3.4252Y-2.8642
X0.8858Y-1.2303
X0.8858Y-1.3303
X0.8858Y-1.4303
X0.8858Y-1.5303
X0.8858Y-1.6303
X0.8858Y-1.7303
X4.6732Y-0.9547
X4.7732Y-0.9547
X4.526Y-1.1319
X4.526Y-1.2319
X4.526Y-1.3319
X4.526Y-1.4319
X4.526Y-1.5319
X4.526Y-1.6319
X4.526Y-1.7319
X4.526Y-1.8319
X4.526Y-1.9319
X4.526Y-2.0319
X4.526Y-2.1319
X4.526Y-2.2319
X4.526Y-2.3319
X4.526Y-2.4319
X4.526Y-2.5319
X4.526Y-2.6319
X4.526Y-2.7319
X4.626Y-1.1319
X4.626Y-1.2319
X4.626Y-1.3319
X4.626Y-1.4319
X4.626Y-1.5319
X4.626Y-1.6319
X4.626Y-1.7319
X4.626Y-1.8319
X4.626Y-1.9319
X4.626Y-2.0319
X4.626Y-2.1319
X4.626Y-2.2319
X4.626Y-2.3319
X4.626Y-2.4319
X4.626Y-2.5319
X4.626Y-2.6319
X4.626Y-2.7319
X4.9197Y-1.2756
X4.9197Y-1.3756
X4.9197Y-1.4756
X4.9197Y-1.5756
X4.9197Y-1.6756
X4.9197Y-1.7756
X4.9197Y-1.8756
X4.9197Y-1.9756
X4.9197Y-2.0756
X4.9197Y-2.1756
X4.9197Y-2.2756
X4.9197Y-2.3756
X4.9197Y-2.4756
X4.9197Y-2.5756
X4.9197Y-2.6756
X4.9197Y-2.7756
X4.9197Y-2.8756
X5.0197Y-1.2756
X5.0197Y-1.3756
X5.0197Y-1.4756
X5.0197Y-1.5756
X5.0197Y-1.6756
X5.0197Y-1.7756
X5.0197Y-1.8756
X5.0197Y-1.9756
X5.0197Y-2.0756
X5.0197Y-2.1756
X5.0197Y-2.2756
X5.0197Y-2.3756
X5.0197Y-2.4756
X5.0197Y-2.5756
X5.0197Y-2.6756
X5.0197Y-2.7756
X5.0197Y-2.8756
X3.5846Y-2.8642
X3.6846Y-2.8642
X3.7846Y-2.8642
X3.8846Y-2.8642
X3.9846Y-2.8642
X4.0846Y-2.8642
X4.1685Y-0.9547
X4.2685Y-0.9547
X4.3685Y-0.9547
X4.4685Y-0.9547
X3.6862Y-0.9547
X3.7862Y-0.9547
X3.8862Y-0.9547
X3.9862Y-0.9547
X4.7736Y-1.1756
X4.7736Y-1.2756
X4.7736Y-1.3756
X4.7736Y-1.4756
X4.7736Y-1.5756
X4.7736Y-1.6756
X4.7736Y-1.7756
X4.7736Y-1.8756
X4.7736Y-1.9756
X4.7736Y-2.0756
X4.7736Y-2.1756
X4.7736Y-2.2756
X4.7736Y-2.3756
X4.7736Y-2.4756
X4.7736Y-2.5756
X4.7736Y-2.6756
X4.7736Y-2.7756
X4.7736Y-2.8756
T0
M30
